<svg xmlns="http://www.w3.org/2000/svg" xmlns:xlink="http://www.w3.org/1999/xlink" width="230" zoomAndPan="magnify" viewBox="0 0 172.5 172.499994" height="230" preserveAspectRatio="xMidYMid meet" version="1.0"><defs><clipPath id="id1"><path d="M 57 67 L 116.765625 67 L 116.765625 120.75 L 57 120.75 Z M 57 67 " clip-rule="nonzero"/></clipPath></defs><g clip-path="url(#id1)"><path fill="#5e17eb" d="M 115.578125 101.425781 C 106.046875 96.519531 104.359375 83.011719 113.039062 76.265625 C 113.316406 76.050781 113.53125 75.785156 113.691406 75.472656 C 113.847656 75.160156 113.933594 74.828125 113.945312 74.476562 C 113.957031 74.128906 113.894531 73.792969 113.761719 73.46875 C 113.625 73.148438 113.429688 72.867188 113.167969 72.628906 C 111.667969 71.164062 109.953125 70.015625 108.019531 69.191406 C 106.085938 68.367188 104.066406 67.921875 101.964844 67.851562 C 95.730469 67.851562 93.109375 70.804688 88.78125 70.804688 C 84.457031 70.804688 80.945312 67.851562 75.558594 67.851562 C 70.171875 67.851562 64.640625 71.046875 61.074219 76.507812 C 56.042969 84.210938 56.902344 98.671875 65.042969 111.007812 C 67.90625 115.414062 71.832031 120.378906 76.917969 120.421875 C 81.433594 120.421875 82.722656 117.566406 88.855469 117.566406 C 94.988281 117.566406 96.132812 120.421875 100.660156 120.421875 C 105.746094 120.421875 109.84375 114.886719 112.753906 110.4375 C 114.167969 108.292969 115.382812 106.039062 116.394531 103.675781 C 116.476562 103.472656 116.523438 103.257812 116.527344 103.039062 C 116.53125 102.816406 116.496094 102.601562 116.421875 102.394531 C 116.347656 102.1875 116.234375 101.996094 116.089844 101.832031 C 115.945312 101.664062 115.773438 101.527344 115.578125 101.425781 Z M 115.578125 101.425781 " fill-opacity="1" fill-rule="evenodd"/></g><path fill="#5e17eb" d="M 89.527344 67.996094 C 91.0625 67.597656 92.492188 66.964844 93.816406 66.101562 C 95.144531 65.238281 96.296875 64.1875 97.28125 62.945312 C 99.132812 60.609375 100.253906 57.96875 100.648438 55.015625 C 100.667969 54.8125 100.660156 54.613281 100.632812 54.410156 C 100.601562 54.207031 100.546875 54.015625 100.464844 53.824219 C 100.386719 53.636719 100.285156 53.460938 100.160156 53.300781 C 100.035156 53.136719 99.894531 52.992188 99.734375 52.867188 C 99.574219 52.738281 99.398438 52.632812 99.214844 52.550781 C 99.027344 52.464844 98.832031 52.40625 98.628906 52.371094 C 98.429688 52.335938 98.226562 52.328125 98.019531 52.34375 C 97.816406 52.359375 97.617188 52.398438 97.421875 52.464844 C 94.535156 53.464844 92.097656 55.125 90.117188 57.441406 C 88.15625 59.742188 86.972656 62.386719 86.5625 65.371094 C 86.542969 65.5625 86.546875 65.753906 86.574219 65.945312 C 86.597656 66.136719 86.648438 66.320312 86.71875 66.5 C 86.789062 66.679688 86.878906 66.847656 86.988281 67.007812 C 87.101562 67.164062 87.226562 67.308594 87.371094 67.4375 C 87.515625 67.566406 87.675781 67.675781 87.847656 67.765625 C 88.015625 67.855469 88.195312 67.925781 88.382812 67.972656 C 88.570312 68.023438 88.761719 68.046875 88.953125 68.050781 C 89.148438 68.054688 89.339844 68.035156 89.527344 67.996094 Z M 89.527344 67.996094 " fill-opacity="1" fill-rule="evenodd"/></svg>