<svg xmlns="http://www.w3.org/2000/svg" xmlns:xlink="http://www.w3.org/1999/xlink" width="560" zoomAndPan="magnify" viewBox="0 0 420 419.999985" height="560" preserveAspectRatio="xMidYMid meet" version="1.0"><defs><clipPath id="id1"><path d="M 148 138 L 285.195312 138 L 285.195312 306 L 148 306 Z M 148 138 " clip-rule="nonzero"/></clipPath></defs><g clip-path="url(#id1)"><path fill="#000000" d="M 262.535156 227.027344 C 262.777344 252.386719 284.828125 260.824219 285.074219 260.929688 C 284.886719 261.527344 281.546875 272.960938 273.453125 284.765625 C 266.457031 294.972656 259.195312 305.148438 247.75 305.355469 C 236.507812 305.5625 232.894531 298.703125 220.039062 298.703125 C 207.191406 298.703125 203.175781 305.148438 192.535156 305.5625 C 181.488281 305.980469 173.078125 294.523438 166.023438 284.355469 C 151.605469 263.546875 140.585938 225.566406 155.382812 199.921875 C 162.730469 187.191406 175.867188 179.128906 190.125 178.921875 C 200.96875 178.714844 211.207031 186.203125 217.832031 186.203125 C 224.460938 186.203125 236.898438 177.199219 249.976562 178.519531 C 255.449219 178.746094 270.816406 180.726562 280.683594 195.140625 C 279.886719 195.632812 262.351562 205.824219 262.535156 227.027344 M 241.410156 164.757812 C 247.273438 157.671875 251.222656 147.8125 250.140625 138 C 241.695312 138.339844 231.472656 143.621094 225.410156 150.699219 C 219.980469 156.96875 215.222656 167.003906 216.503906 176.621094 C 225.921875 177.347656 235.546875 171.84375 241.410156 164.757812 " fill-opacity="1" fill-rule="nonzero"/></g></svg>