<svg xmlns="http://www.w3.org/2000/svg" xmlns:xlink="http://www.w3.org/1999/xlink" width="560" zoomAndPan="magnify" viewBox="0 0 420 419.999985" height="560" preserveAspectRatio="xMidYMid meet" version="1.0"><path fill="#1877f2" d="M 294 210 C 294 163.609375 256.390625 126 210 126 C 163.609375 126 126 163.609375 126 210 C 126 251.925781 156.71875 286.679688 196.875 292.980469 L 196.875 234.28125 L 175.546875 234.28125 L 175.546875 210 L 196.875 210 L 196.875 191.492188 C 196.875 170.441406 209.414062 158.8125 228.601562 158.8125 C 237.792969 158.8125 247.40625 160.453125 247.40625 160.453125 L 247.40625 181.125 L 236.8125 181.125 C 226.378906 181.125 223.125 187.601562 223.125 194.242188 L 223.125 210 L 246.421875 210 L 242.699219 234.28125 L 223.125 234.28125 L 223.125 292.980469 C 263.28125 286.679688 294 251.925781 294 210 " fill-opacity="1" fill-rule="nonzero"/><path fill="#ffffff" d="M 242.699219 234.28125 L 246.421875 210 L 223.125 210 L 223.125 194.242188 C 223.125 187.601562 226.378906 181.125 236.8125 181.125 L 247.40625 181.125 L 247.40625 160.453125 C 247.40625 160.453125 237.792969 158.8125 228.601562 158.8125 C 209.414062 158.8125 196.875 170.441406 196.875 191.492188 L 196.875 210 L 175.546875 210 L 175.546875 234.28125 L 196.875 234.28125 L 196.875 292.980469 C 201.152344 293.652344 205.535156 294 210 294 C 214.464844 294 218.847656 293.652344 223.125 292.980469 L 223.125 234.28125 L 242.699219 234.28125 " fill-opacity="1" fill-rule="nonzero"/></svg>