<svg xmlns="http://www.w3.org/2000/svg" xmlns:xlink="http://www.w3.org/1999/xlink" width="230" zoomAndPan="magnify" viewBox="0 0 172.5 172.499994" height="230" preserveAspectRatio="xMidYMid meet" version="1.0"><defs><clipPath id="id1"><path d="M 51.75 51.75 L 120.75 51.75 L 120.75 120.75 L 51.75 120.75 Z M 51.75 51.75 " clip-rule="nonzero"/></clipPath><clipPath id="id2"><path d="M 72 65 L 102 65 L 102 120.75 L 72 120.75 Z M 72 65 " clip-rule="nonzero"/></clipPath></defs><g clip-path="url(#id1)"><path fill="#5e17eb" d="M 120.75 86.25 C 120.75 67.195312 105.304688 51.75 86.25 51.75 C 67.195312 51.75 51.75 67.195312 51.75 86.25 C 51.75 103.46875 64.367188 117.742188 80.859375 120.332031 L 80.859375 96.222656 L 72.097656 96.222656 L 72.097656 86.25 L 80.859375 86.25 L 80.859375 78.648438 C 80.859375 70.003906 86.011719 65.226562 93.890625 65.226562 C 97.664062 65.226562 101.613281 65.898438 101.613281 65.898438 L 101.613281 74.390625 L 97.261719 74.390625 C 92.976562 74.390625 91.640625 77.050781 91.640625 79.777344 L 91.640625 86.25 L 101.207031 86.25 L 99.679688 96.222656 L 91.640625 96.222656 L 91.640625 120.332031 C 108.132812 117.742188 120.75 103.46875 120.75 86.25 " fill-opacity="1" fill-rule="nonzero"/></g><g clip-path="url(#id2)"><path fill="#ffffff" d="M 99.679688 96.222656 L 101.207031 86.25 L 91.640625 86.25 L 91.640625 79.777344 C 91.640625 77.050781 92.976562 74.390625 97.261719 74.390625 L 101.613281 74.390625 L 101.613281 65.898438 C 101.613281 65.898438 97.664062 65.226562 93.890625 65.226562 C 86.011719 65.226562 80.859375 70.003906 80.859375 78.648438 L 80.859375 86.25 L 72.097656 86.25 L 72.097656 96.222656 L 80.859375 96.222656 L 80.859375 120.332031 C 82.617188 120.605469 84.417969 120.75 86.25 120.75 C 88.082031 120.75 89.882812 120.605469 91.640625 120.332031 L 91.640625 96.222656 L 99.679688 96.222656 " fill-opacity="1" fill-rule="nonzero"/></g></svg>