<svg xmlns="http://www.w3.org/2000/svg" xmlns:xlink="http://www.w3.org/1999/xlink" width="230" zoomAndPan="magnify" viewBox="0 0 172.5 172.499994" height="230" preserveAspectRatio="xMidYMid meet" version="1.0"><defs><clipPath id="id1"><path d="M 52.753906 66 L 77 66 L 77 107 L 52.753906 107 Z M 52.753906 66 " clip-rule="nonzero"/></clipPath><clipPath id="id2"><path d="M 118.667969 80.023438 L 86.875 80.023438 L 86.875 93.253906 L 105.175781 93.253906 C 103.46875 101.660156 96.335938 106.484375 86.875 106.484375 C 75.707031 106.484375 66.710938 97.457031 66.710938 86.25 C 66.710938 75.042969 75.707031 66.015625 86.875 66.015625 C 91.683594 66.015625 96.027344 67.726562 99.4375 70.53125 L 109.363281 60.570312 C 103.316406 55.277344 95.558594 52.007812 86.875 52.007812 C 67.953125 52.007812 52.753906 67.261719 52.753906 86.25 C 52.753906 105.238281 67.953125 120.492188 86.875 120.492188 C 103.933594 120.492188 119.445312 108.039062 119.445312 86.25 C 119.445312 84.226562 119.136719 82.046875 118.667969 80.023438 Z M 118.667969 80.023438 " clip-rule="nonzero"/></clipPath><clipPath id="id3"><path d="M 52.753906 52 L 119.445312 52 L 119.445312 87 L 52.753906 87 Z M 52.753906 52 " clip-rule="nonzero"/></clipPath><clipPath id="id4"><path d="M 118.667969 80.023438 L 86.875 80.023438 L 86.875 93.253906 L 105.175781 93.253906 C 103.46875 101.660156 96.335938 106.484375 86.875 106.484375 C 75.707031 106.484375 66.710938 97.457031 66.710938 86.25 C 66.710938 75.042969 75.707031 66.015625 86.875 66.015625 C 91.683594 66.015625 96.027344 67.726562 99.4375 70.53125 L 109.363281 60.570312 C 103.316406 55.277344 95.558594 52.007812 86.875 52.007812 C 67.953125 52.007812 52.753906 67.261719 52.753906 86.25 C 52.753906 105.238281 67.953125 120.492188 86.875 120.492188 C 103.933594 120.492188 119.445312 108.039062 119.445312 86.25 C 119.445312 84.226562 119.136719 82.046875 118.667969 80.023438 Z M 118.667969 80.023438 " clip-rule="nonzero"/></clipPath><clipPath id="id5"><path d="M 52.753906 52 L 119.445312 52 L 119.445312 120.492188 L 52.753906 120.492188 Z M 52.753906 52 " clip-rule="nonzero"/></clipPath><clipPath id="id6"><path d="M 118.667969 80.023438 L 86.875 80.023438 L 86.875 93.253906 L 105.175781 93.253906 C 103.46875 101.660156 96.335938 106.484375 86.875 106.484375 C 75.707031 106.484375 66.710938 97.457031 66.710938 86.25 C 66.710938 75.042969 75.707031 66.015625 86.875 66.015625 C 91.683594 66.015625 96.027344 67.726562 99.4375 70.53125 L 109.363281 60.570312 C 103.316406 55.277344 95.558594 52.007812 86.875 52.007812 C 67.953125 52.007812 52.753906 67.261719 52.753906 86.25 C 52.753906 105.238281 67.953125 120.492188 86.875 120.492188 C 103.933594 120.492188 119.445312 108.039062 119.445312 86.25 C 119.445312 84.226562 119.136719 82.046875 118.667969 80.023438 Z M 118.667969 80.023438 " clip-rule="nonzero"/></clipPath><clipPath id="id7"><path d="M 69 66 L 119.445312 66 L 119.445312 120.492188 L 69 120.492188 Z M 69 66 " clip-rule="nonzero"/></clipPath><clipPath id="id8"><path d="M 118.667969 80.023438 L 86.875 80.023438 L 86.875 93.253906 L 105.175781 93.253906 C 103.46875 101.660156 96.335938 106.484375 86.875 106.484375 C 75.707031 106.484375 66.710938 97.457031 66.710938 86.25 C 66.710938 75.042969 75.707031 66.015625 86.875 66.015625 C 91.683594 66.015625 96.027344 67.726562 99.4375 70.53125 L 109.363281 60.570312 C 103.316406 55.277344 95.558594 52.007812 86.875 52.007812 C 67.953125 52.007812 52.753906 67.261719 52.753906 86.25 C 52.753906 105.238281 67.953125 120.492188 86.875 120.492188 C 103.933594 120.492188 119.445312 108.039062 119.445312 86.25 C 119.445312 84.226562 119.136719 82.046875 118.667969 80.023438 Z M 118.667969 80.023438 " clip-rule="nonzero"/></clipPath></defs><g clip-path="url(#id1)"><g clip-path="url(#id2)"><path fill="#faff00" d="M 49.652344 106.484375 L 49.652344 66.015625 L 76.019531 86.25 Z M 49.652344 106.484375 " fill-opacity="1" fill-rule="nonzero"/></g></g><g clip-path="url(#id3)"><g clip-path="url(#id4)"><path fill="#f10000" d="M 49.652344 66.015625 L 76.019531 86.25 L 86.875 76.753906 L 124.097656 70.6875 L 124.097656 48.894531 L 49.652344 48.894531 Z M 49.652344 66.015625 " fill-opacity="1" fill-rule="nonzero"/></g></g><g clip-path="url(#id5)"><g clip-path="url(#id6)"><path fill="#117d2e" d="M 49.652344 106.484375 L 96.179688 70.6875 L 108.433594 72.242188 L 124.097656 48.894531 L 124.097656 123.605469 L 49.652344 123.605469 Z M 49.652344 106.484375 " fill-opacity="1" fill-rule="nonzero"/></g></g><g clip-path="url(#id7)"><g clip-path="url(#id8)"><path fill="#5e17eb" d="M 124.097656 123.605469 L 76.019531 86.25 L 69.8125 81.582031 L 124.097656 66.015625 Z M 124.097656 123.605469 " fill-opacity="1" fill-rule="nonzero"/></g></g></svg>