<svg xmlns="http://www.w3.org/2000/svg" xmlns:xlink="http://www.w3.org/1999/xlink" width="560" zoomAndPan="magnify" viewBox="0 0 420 419.999985" height="560" preserveAspectRatio="xMidYMid meet" version="1.0"><defs><clipPath id="id1"><path d="M 128.445312 160 L 186 160 L 186 260 L 128.445312 260 Z M 128.445312 160 " clip-rule="nonzero"/></clipPath><clipPath id="id2"><path d="M 289.160156 194.839844 L 211.636719 194.839844 L 211.636719 227.054688 L 256.261719 227.054688 C 252.101562 247.519531 234.707031 259.265625 211.636719 259.265625 C 184.410156 259.265625 162.476562 237.285156 162.476562 210 C 162.476562 182.714844 184.410156 160.734375 211.636719 160.734375 C 223.359375 160.734375 233.949219 164.902344 242.269531 171.722656 L 266.472656 147.46875 C 251.722656 134.582031 232.816406 126.625 211.636719 126.625 C 165.503906 126.625 128.445312 163.765625 128.445312 210 C 128.445312 256.234375 165.503906 293.375 211.636719 293.375 C 253.234375 293.375 291.050781 263.054688 291.050781 210 C 291.050781 205.074219 290.292969 199.765625 289.160156 194.839844 Z M 289.160156 194.839844 " clip-rule="nonzero"/></clipPath><clipPath id="id3"><path d="M 128.445312 126 L 291.050781 126 L 291.050781 210 L 128.445312 210 Z M 128.445312 126 " clip-rule="nonzero"/></clipPath><clipPath id="id4"><path d="M 289.160156 194.839844 L 211.636719 194.839844 L 211.636719 227.054688 L 256.261719 227.054688 C 252.101562 247.519531 234.707031 259.265625 211.636719 259.265625 C 184.410156 259.265625 162.476562 237.285156 162.476562 210 C 162.476562 182.714844 184.410156 160.734375 211.636719 160.734375 C 223.359375 160.734375 233.949219 164.902344 242.269531 171.722656 L 266.472656 147.46875 C 251.722656 134.582031 232.816406 126.625 211.636719 126.625 C 165.503906 126.625 128.445312 163.765625 128.445312 210 C 128.445312 256.234375 165.503906 293.375 211.636719 293.375 C 253.234375 293.375 291.050781 263.054688 291.050781 210 C 291.050781 205.074219 290.292969 199.765625 289.160156 194.839844 Z M 289.160156 194.839844 " clip-rule="nonzero"/></clipPath><clipPath id="id5"><path d="M 128.445312 126 L 291.050781 126 L 291.050781 293.375 L 128.445312 293.375 Z M 128.445312 126 " clip-rule="nonzero"/></clipPath><clipPath id="id6"><path d="M 289.160156 194.839844 L 211.636719 194.839844 L 211.636719 227.054688 L 256.261719 227.054688 C 252.101562 247.519531 234.707031 259.265625 211.636719 259.265625 C 184.410156 259.265625 162.476562 237.285156 162.476562 210 C 162.476562 182.714844 184.410156 160.734375 211.636719 160.734375 C 223.359375 160.734375 233.949219 164.902344 242.269531 171.722656 L 266.472656 147.46875 C 251.722656 134.582031 232.816406 126.625 211.636719 126.625 C 165.503906 126.625 128.445312 163.765625 128.445312 210 C 128.445312 256.234375 165.503906 293.375 211.636719 293.375 C 253.234375 293.375 291.050781 263.054688 291.050781 210 C 291.050781 205.074219 290.292969 199.765625 289.160156 194.839844 Z M 289.160156 194.839844 " clip-rule="nonzero"/></clipPath><clipPath id="id7"><path d="M 170 160 L 291.050781 160 L 291.050781 293.375 L 170 293.375 Z M 170 160 " clip-rule="nonzero"/></clipPath><clipPath id="id8"><path d="M 289.160156 194.839844 L 211.636719 194.839844 L 211.636719 227.054688 L 256.261719 227.054688 C 252.101562 247.519531 234.707031 259.265625 211.636719 259.265625 C 184.410156 259.265625 162.476562 237.285156 162.476562 210 C 162.476562 182.714844 184.410156 160.734375 211.636719 160.734375 C 223.359375 160.734375 233.949219 164.902344 242.269531 171.722656 L 266.472656 147.46875 C 251.722656 134.582031 232.816406 126.625 211.636719 126.625 C 165.503906 126.625 128.445312 163.765625 128.445312 210 C 128.445312 256.234375 165.503906 293.375 211.636719 293.375 C 253.234375 293.375 291.050781 263.054688 291.050781 210 C 291.050781 205.074219 290.292969 199.765625 289.160156 194.839844 Z M 289.160156 194.839844 " clip-rule="nonzero"/></clipPath></defs><g clip-path="url(#id1)"><g clip-path="url(#id2)"><path fill="#fbbc05" d="M 120.878906 259.265625 L 120.878906 160.734375 L 185.167969 210 Z M 120.878906 259.265625 " fill-opacity="1" fill-rule="nonzero"/></g></g><g clip-path="url(#id3)"><g clip-path="url(#id4)"><path fill="#ea4335" d="M 120.878906 160.734375 L 185.167969 210 L 211.636719 186.882812 L 302.394531 172.101562 L 302.394531 119.046875 L 120.878906 119.046875 Z M 120.878906 160.734375 " fill-opacity="1" fill-rule="nonzero"/></g></g><g clip-path="url(#id5)"><g clip-path="url(#id6)"><path fill="#34a853" d="M 120.878906 259.265625 L 234.328125 172.101562 L 264.203125 175.890625 L 302.394531 119.046875 L 302.394531 300.953125 L 120.878906 300.953125 Z M 120.878906 259.265625 " fill-opacity="1" fill-rule="nonzero"/></g></g><g clip-path="url(#id7)"><g clip-path="url(#id8)"><path fill="#4285f4" d="M 302.394531 300.953125 L 185.167969 210 L 170.039062 198.628906 L 302.394531 160.734375 Z M 302.394531 300.953125 " fill-opacity="1" fill-rule="nonzero"/></g></g></svg>