<svg xmlns="http://www.w3.org/2000/svg" xmlns:xlink="http://www.w3.org/1999/xlink" width="430" zoomAndPan="magnify" viewBox="0 0 322.5 322.499999" height="430" preserveAspectRatio="xMidYMid meet" version="1.0"><defs><clipPath id="id1"><path d="M 11 138 L 322 138 L 322 305 L 11 305 Z M 11 138 " clip-rule="nonzero"/></clipPath><clipPath id="id2"><path d="M 45 168 L 322 168 L 322 305 L 45 305 Z M 45 168 " clip-rule="nonzero"/></clipPath><clipPath id="id3"><path d="M 42 105.144531 L 290 105.144531 L 290 305 L 42 305 Z M 42 105.144531 " clip-rule="nonzero"/></clipPath></defs><g clip-path="url(#id1)"><path fill="#3b3b3b" d="M 309.144531 304.800781 C 302.335938 304.800781 228.554688 304.800781 228.554688 304.800781 C 225.253906 300.839844 223.933594 290.949219 225.910156 284.359375 C 227.890625 277.761719 232.515625 263.257812 233.832031 258.640625 C 235.148438 254.027344 239.773438 248.75 244.394531 248.75 C 249.015625 248.75 264.863281 248.75 264.863281 248.75 C 271.519531 238.902344 278.636719 232.757812 294.433594 232.757812 C 310.230469 232.757812 318.671875 243.640625 319.761719 252.882812 C 320.851562 262.128906 321.9375 280.625 322.210938 290.691406 C 322.492188 300.757812 315.957031 304.800781 309.144531 304.800781 Z M 177.554688 229 C 159.585938 228.574219 148.617188 243.601562 148.617188 243.601562 C 148.617188 243.601562 126.074219 243.601562 119.679688 260.335938 C 119.480469 260.863281 119.28125 261.382812 119.082031 261.910156 C 112.367188 245.023438 98.25 243.394531 91.421875 243.394531 C 84.226562 243.394531 66.839844 243.394531 66.839844 243.394531 C 66.839844 243.394531 63.339844 227.820312 47.351562 227.820312 C 31.359375 227.820312 27.964844 238.203125 22.171875 252.566406 C 16.375 266.9375 -0.0117188 303.460938 24.167969 303.460938 C 48.347656 303.460938 80.929688 303.460938 98.714844 303.460938 C 103.710938 303.460938 108.074219 301.949219 111.632812 299.339844 C 112.128906 301.015625 112.863281 302.519531 113.898438 303.828125 L 203.457031 303.828125 C 203.457031 303.828125 214.730469 295.003906 209.855469 273.101562 C 204.972656 251.203125 203.140625 229.609375 177.554688 229 Z M 57.023438 173.886719 L 85.789062 176.65625 C 85.789062 176.65625 91.128906 173.992188 91.84375 169.472656 C 92.566406 164.960938 89.789062 162.601562 89.789062 162.601562 C 91.433594 156.851562 87.121094 153.0625 87.121094 153.0625 C 88.558594 146.910156 85.375 141.265625 80.03125 139.417969 C 74.6875 137.570312 71.300781 140.75 71.300781 140.75 C 64.210938 140.339844 62.359375 148.957031 62.359375 148.957031 C 62.359375 148.957031 57.222656 149.980469 56.914062 153.984375 C 56.605469 157.984375 58.558594 160.753906 58.558594 160.753906 C 51.476562 165.882812 57.023438 173.886719 57.023438 173.886719 Z M 57.023438 173.886719 " fill-opacity="1" fill-rule="nonzero"/></g><g clip-path="url(#id2)"><path fill="#fb9400" d="M 85.53125 225.292969 L 88.734375 218.039062 L 94.46875 222.273438 C 94.46875 222.273438 93.84375 189.527344 93.84375 185.789062 C 93.84375 182.050781 91.84375 175.703125 87.984375 174.082031 C 84.117188 172.464844 78.257812 170.722656 78.257812 170.722656 L 76.140625 179.4375 L 69.152344 168.976562 C 61.175781 168.355469 54.066406 172.960938 52.691406 177.449219 C 51.320312 181.925781 46.332031 202.972656 45.835938 207.832031 C 45.339844 212.691406 47.574219 214.375 47.574219 214.375 C 47.574219 214.375 61.65625 216.570312 64.894531 217.980469 C 68.121094 219.390625 84.738281 226.636719 84.738281 226.636719 Z M 76.398438 209.40625 C 76.398438 209.40625 79.125 209.003906 81.039062 204.566406 L 82.25 213.738281 Z M 111.714844 282.113281 C 110.65625 289.078125 111.171875 295.441406 111.722656 299.277344 C 108.152344 301.921875 103.753906 303.46875 98.714844 303.46875 C 91.792969 303.46875 82.621094 303.46875 72.582031 303.46875 L 79.21875 295.710938 L 83.472656 276.347656 L 108.652344 251.882812 L 111.683594 250.695312 C 114.480469 253.304688 117.027344 256.839844 118.972656 261.621094 C 117.269531 264.75 113.0625 273.226562 111.714844 282.113281 Z M 209.84375 273.101562 C 214.714844 295.003906 203.445312 303.828125 203.445312 303.828125 L 144.785156 303.828125 C 180.035156 293.421875 199.957031 267.992188 206.589844 258.101562 C 207.738281 262.914062 208.710938 268 209.84375 273.101562 Z M 309.144531 304.800781 C 305.296875 304.800781 280.054688 304.800781 258.824219 304.800781 C 267.925781 302.257812 292.542969 294.464844 302.410156 282.09375 C 313.289062 268.457031 317.15625 262.835938 318.605469 248.203125 C 319.195312 249.773438 319.582031 251.351562 319.761719 252.882812 C 320.851562 262.128906 321.9375 280.625 322.210938 290.691406 C 322.492188 300.757812 315.957031 304.800781 309.144531 304.800781 Z M 309.144531 304.800781 " fill-opacity="1" fill-rule="nonzero"/></g><path fill="#ffffff" d="M 194.183594 183.742188 C 193.222656 195.558594 190.4375 228.457031 190.167969 231.6875 C 186.753906 230.078125 182.628906 229.121094 177.554688 229.003906 C 159.585938 228.578125 148.617188 243.609375 148.617188 243.609375 C 148.617188 243.609375 148.1875 243.609375 147.4375 243.652344 C 140.75 241.328125 139.113281 238.433594 136.328125 231.617188 C 132.964844 223.386719 131.011719 201.242188 131.011719 201.242188 C 131.011719 201.242188 132.292969 193.992188 134.144531 186.605469 C 135.992188 179.21875 139.355469 163.933594 148.101562 162.253906 C 156.527344 160.636719 156.371094 161.351562 156.34375 161.410156 C 156.363281 161.371094 158.382812 156.710938 162.566406 156.375 C 166.765625 156.042969 173.222656 159.464844 173.222656 159.464844 C 173.222656 159.464844 178.542969 160.40625 183.253906 161.917969 C 187.957031 163.417969 195.1875 171.3125 194.183594 183.742188 Z M 288.347656 218.863281 C 282.574219 218.605469 259.824219 221.429688 259.824219 221.429688 C 259.824219 221.429688 233.507812 225.484375 226.988281 226.460938 C 220.472656 227.449219 213.949219 232.96875 214.199219 240.460938 C 214.445312 247.953125 224.035156 282.828125 224.035156 282.828125 L 226.742188 281.84375 C 226.742188 281.84375 231.046875 267.601562 232.769531 261.949219 C 234.488281 256.300781 236.707031 253.726562 236.707031 253.726562 L 236.09375 248.9375 L 264.871094 248.75 C 264.871094 248.75 272.738281 234.808594 290.695312 232.96875 C 291.675781 227.691406 290.675781 221.570312 288.347656 218.863281 Z M 74.25 291.464844 C 74.027344 292.398438 73.898438 293.152344 73.898438 293.632812 C 73.898438 295.707031 83.332031 301.085938 84.886719 302.019531 C 86.4375 302.953125 89.929688 304.078125 91.800781 303.5625 C 93.46875 303.101562 90.777344 300.492188 89.441406 298.761719 C 83.285156 298.484375 76.808594 293.605469 74.25 291.464844 Z M 74.25 291.464844 " fill-opacity="1" fill-rule="nonzero"/><path fill="#ebdab6" d="M 258.644531 193.292969 L 250.832031 205.003906 C 250.832031 205.003906 249.351562 207.417969 247.667969 209.753906 C 245.988281 212.089844 242.382812 214.621094 238 214.5625 C 233.617188 214.503906 229.777344 212.164062 227.554688 207.785156 C 225.332031 203.410156 217.589844 187.101562 217.589844 187.101562 C 217.589844 187.101562 212.371094 186.199219 211.230469 185.902344 C 210.089844 185.601562 205.105469 182.191406 203.964844 181.40625 C 202.824219 180.625 202.769531 179.308594 204.148438 179.609375 C 205.527344 179.914062 208.832031 181.050781 208.832031 181.050781 C 208.832031 180.273438 209.671875 179.492188 212.910156 179.550781 C 216.152344 179.609375 217.785156 179.441406 220.605469 182.105469 C 223.4375 184.773438 237.578125 200.9375 237.578125 200.9375 L 244.15625 187.710938 Z M 232.660156 164.652344 C 232.660156 164.652344 233.324219 166.679688 234.539062 168.410156 L 238.503906 173.230469 L 242.3125 174.5 L 248.816406 174.550781 L 253.238281 174.144531 L 258.320312 166.9375 C 258.320312 166.9375 260.863281 151.863281 247.753906 147.804688 C 234.636719 143.742188 231.027344 156.175781 231.027344 156.175781 L 231.433594 159.679688 C 231.433594 159.679688 229.707031 160.746094 230.214844 162.472656 C 230.730469 164.195312 232.660156 164.652344 232.660156 164.652344 Z M 133.484375 218.359375 C 140.109375 220.046875 145.996094 209.621094 145.996094 209.621094 C 139.203125 207.835938 131.082031 201.285156 131.082031 201.285156 C 127.15625 211.808594 127.859375 216.925781 133.484375 218.359375 Z M 177.753906 143.355469 C 177.753906 143.355469 177.753906 133.273438 172.929688 130.75 C 168.101562 128.226562 157.105469 128.820312 155.328125 137.054688 C 153.542969 145.289062 168.25 157.453125 168.25 157.453125 L 173.222656 159.453125 L 171.960938 154.851562 C 171.960938 154.851562 177.308594 154.332031 177.605469 146.839844 L 178.210938 146.839844 C 178.734375 146.839844 179.078125 146.304688 178.863281 145.835938 Z M 226.75 281.847656 L 224.042969 282.832031 L 225.195312 287.429688 Z M 224.949219 292.460938 C 224.949219 292.460938 220.234375 298.304688 217.636719 300.90625 C 215.03125 303.503906 216.984375 305.289062 218.9375 304.882812 C 220.890625 304.476562 227.554688 303.261719 227.554688 303.261719 C 227.554688 303.261719 226.175781 300.253906 225.601562 297.332031 C 225.027344 294.410156 224.949219 292.460938 224.949219 292.460938 Z M 69.152344 168.976562 L 76.132812 179.4375 L 78.253906 170.722656 L 79.226562 166.527344 C 79.226562 166.527344 83.640625 166.71875 84.941406 164.839844 C 86.246094 162.960938 87.121094 158.707031 87.410156 154.464844 C 87.703125 150.222656 87.089844 147.847656 87.089844 147.847656 C 87.089844 147.847656 79.554688 147.785156 76.699219 145.0625 C 76.699219 145.0625 76.828125 153.105469 71.570312 154.402344 L 70.984375 153.101562 C 70.984375 153.101562 68.257812 153.359375 67.992188 155.757812 C 67.734375 158.160156 70.917969 159.390625 70.917969 159.390625 C 70.917969 159.390625 74.011719 165.597656 69.152344 168.976562 Z M 112.042969 233.8125 L 111.316406 230.8125 C 111.316406 230.8125 112.457031 227.601562 111.417969 225.949219 C 110.378906 224.292969 108.203125 222.839844 105.925781 222.222656 C 103.644531 221.605469 97.839844 223.050781 96.183594 222.949219 C 94.527344 222.847656 94.460938 222.28125 94.460938 222.28125 L 88.726562 218.042969 L 85.457031 225.347656 L 88.519531 226.796875 L 81.546875 243.761719 L 91.308594 243.761719 C 91.308594 243.761719 80.941406 271.601562 78.554688 278.226562 C 76.730469 283.296875 74.972656 288.421875 74.246094 291.476562 C 76.804688 293.621094 83.28125 298.492188 89.433594 298.773438 C 89.28125 298.570312 89.136719 298.375 89.027344 298.203125 C 87.992188 296.546875 85.402344 292.609375 85.296875 291.476562 C 85.195312 290.339844 91.105469 280.296875 91.105469 280.296875 C 91.105469 280.296875 103.542969 266.738281 109.351562 260.320312 C 115.15625 253.90625 116.503906 249.972656 117.644531 246.246094 C 118.777344 242.507812 119.085938 235.054688 112.042969 233.8125 Z M 112.042969 233.8125 " fill-opacity="1" fill-rule="nonzero"/><g clip-path="url(#id3)"><path fill="#3b3b3b" d="M 176.722656 133.574219 C 175.945312 135.917969 173.207031 142.167969 173.207031 142.167969 L 171.050781 139.335938 C 171.050781 139.335938 167.238281 140.507812 167.824219 144.117188 C 168.410156 147.726562 172.910156 147.535156 172.910156 147.535156 C 172.910156 147.535156 173.792969 149.875 172.8125 152.417969 C 171.832031 154.953125 168.804688 155.25 168.804688 155.25 C 168.804688 155.25 169.292969 158.570312 165.96875 160.136719 C 162.640625 161.699219 159.804688 159.941406 159.804688 159.941406 C 159.804688 159.941406 156.578125 162.476562 153.355469 161.410156 C 150.125 160.335938 150.914062 155.9375 150.914062 155.9375 C 150.914062 155.9375 146.808594 156.917969 145.046875 154.375 C 143.289062 151.839844 144.363281 148.03125 144.363281 148.03125 C 144.363281 148.03125 141.433594 147.050781 141.039062 143.539062 C 140.644531 140.023438 143.777344 137.191406 143.777344 137.191406 C 143.777344 137.191406 141.824219 134.847656 143.480469 131.527344 C 145.144531 128.207031 149.644531 127.917969 149.644531 127.917969 C 149.644531 127.917969 149.449219 124.109375 152.382812 122.550781 C 155.3125 120.984375 160.695312 124.015625 160.695312 124.015625 C 160.695312 124.015625 163.628906 121.28125 167.636719 122.066406 C 171.644531 122.847656 172.527344 126.261719 172.527344 126.261719 C 177.414062 126.546875 177.511719 131.230469 176.722656 133.574219 Z M 137.65625 218.023438 C 137.65625 218.023438 132.765625 219.34375 130.113281 216.570312 C 130.113281 216.570312 123.894531 217.496094 122.710938 223.4375 C 121.515625 229.382812 121.78125 255.804688 121.78125 255.804688 C 121.78125 255.804688 129.683594 244.597656 148.617188 243.59375 C 149.695312 242.460938 149.695312 242.460938 149.695312 242.460938 C 149.695312 242.460938 136.996094 235.859375 137.65625 218.023438 Z M 288.160156 206.285156 C 285.855469 200.90625 273.667969 177.210938 267.382812 170.164062 C 265.753906 168.328125 263.921875 167.3125 262.074219 166.867188 C 262.125 166.800781 262.15625 166.765625 262.15625 166.765625 C 262.15625 166.765625 263.960938 159.839844 260.21875 152.089844 C 256.472656 144.335938 246.910156 140.597656 238.863281 143.371094 C 230.820312 146.144531 228.746094 153.472656 230.542969 158.042969 C 230.542969 158.042969 239.140625 155.277344 241.359375 152.226562 C 241.359375 152.226562 242.332031 158.597656 247.738281 159.007812 L 247.597656 155.546875 C 247.597656 155.546875 251.199219 154.714844 251.753906 158.039062 C 252.308594 161.359375 248.566406 162.882812 248.566406 162.882812 C 248.566406 162.882812 244.980469 168.765625 249.757812 171.558594 C 249.589844 171.769531 249.433594 171.988281 249.300781 172.203125 C 248.925781 172.792969 248.578125 173.320312 248.261719 173.824219 C 247.648438 173.160156 246.523438 171.96875 245.167969 170.683594 C 237.582031 173.140625 234.503906 168.226562 234.503906 168.226562 C 234.503906 168.226562 233.007812 171.746094 237.472656 174.570312 C 240.667969 176.589844 245.515625 175.425781 247.664062 174.746094 C 246.050781 177.285156 245.089844 179.019531 243.90625 182.570312 C 242.363281 187.183594 244.164062 187.691406 244.164062 187.691406 L 257.292969 193.988281 L 250.832031 204.988281 C 250.832031 204.988281 251.988281 213.441406 253.527344 216.769531 C 255.066406 220.097656 259.554688 221.386719 259.554688 221.386719 L 288.34375 218.84375 C 288.347656 218.863281 290.476562 211.667969 288.160156 206.285156 Z M 240.675781 159.664062 C 240.675781 159.3125 240.394531 159.027344 240.039062 159.027344 C 239.683594 159.027344 239.398438 159.3125 239.398438 159.664062 C 239.398438 160.019531 239.683594 160.300781 240.039062 160.300781 C 240.394531 160.300781 240.675781 160.019531 240.675781 159.664062 Z M 233.414062 160.425781 C 233.058594 160.425781 232.773438 160.707031 232.773438 161.0625 C 232.773438 161.414062 233.058594 161.699219 233.414062 161.699219 C 233.765625 161.699219 234.050781 161.414062 234.050781 161.0625 C 234.050781 160.707031 233.765625 160.425781 233.414062 160.425781 Z M 241.617188 157.03125 C 238.910156 155.648438 237.390625 157.59375 237.375 157.613281 C 237.265625 157.761719 237.292969 157.964844 237.441406 158.074219 C 237.5 158.121094 237.570312 158.140625 237.640625 158.140625 C 237.738281 158.140625 237.839844 158.09375 237.90625 158.011719 C 237.949219 157.945312 239.105469 156.484375 241.320312 157.617188 C 241.480469 157.703125 241.679688 157.636719 241.765625 157.476562 C 241.847656 157.316406 241.785156 157.117188 241.617188 157.03125 Z M 235.160156 159.117188 C 235.308594 159.222656 235.515625 159.175781 235.617188 159.027344 C 235.71875 158.875 235.675781 158.675781 235.527344 158.570312 C 233.433594 157.175781 232.089844 158.667969 232.078125 158.6875 C 231.957031 158.824219 231.976562 159.027344 232.109375 159.152344 C 232.175781 159.207031 232.253906 159.234375 232.332031 159.234375 C 232.421875 159.234375 232.511719 159.195312 232.574219 159.125 C 232.613281 159.074219 233.554688 158.054688 235.160156 159.117188 Z M 236.101562 160.503906 C 235.933594 160.488281 235.757812 160.625 235.746094 160.804688 C 235.738281 160.867188 235.628906 162.414062 235.628906 163.210938 C 235.628906 163.460938 235.726562 163.679688 235.914062 163.84375 C 236.234375 164.125 236.769531 164.183594 237.125 164.183594 C 237.304688 164.183594 237.441406 164.171875 237.480469 164.164062 C 237.660156 164.144531 237.789062 163.976562 237.769531 163.796875 C 237.75 163.617188 237.582031 163.480469 237.402344 163.507812 C 237.09375 163.546875 236.539062 163.519531 236.351562 163.347656 C 236.304688 163.308594 236.292969 163.269531 236.292969 163.207031 C 236.292969 162.433594 236.402344 160.855469 236.410156 160.84375 C 236.421875 160.675781 236.28125 160.515625 236.101562 160.503906 Z M 240.117188 166.675781 C 239.988281 166.800781 239.980469 167.007812 240.101562 167.136719 C 240.167969 167.207031 240.257812 167.242188 240.339844 167.242188 C 240.425781 167.242188 240.503906 167.207031 240.566406 167.148438 C 240.792969 166.9375 241.914062 165.832031 241.976562 165.066406 C 242.015625 164.601562 241.828125 164.203125 241.488281 164.023438 C 241.257812 163.898438 240.765625 163.777344 240.078125 164.332031 C 239.285156 164.960938 237.867188 165.40625 237.851562 165.40625 C 237.679688 165.457031 237.582031 165.644531 237.632812 165.816406 C 237.6875 165.992188 237.871094 166.089844 238.046875 166.035156 C 238.109375 166.015625 239.59375 165.554688 240.488281 164.847656 C 240.824219 164.574219 241.0625 164.550781 241.171875 164.609375 C 241.277344 164.667969 241.332031 164.820312 241.3125 165.011719 C 241.289062 165.394531 240.597656 166.210938 240.117188 166.675781 Z M 219.144531 299.304688 C 218.601562 299.902344 218.082031 300.457031 217.628906 300.90625 C 215.027344 303.503906 216.976562 305.289062 218.929688 304.882812 C 220.882812 304.476562 227.546875 303.261719 227.546875 303.261719 C 227.546875 303.261719 226.75 301.515625 226.109375 299.398438 Z M 80.0625 154.792969 C 80.0625 154.472656 79.804688 154.214844 79.484375 154.214844 C 79.160156 154.214844 78.902344 154.472656 78.902344 154.792969 C 78.902344 155.117188 79.160156 155.371094 79.484375 155.371094 C 79.804688 155.378906 80.0625 155.117188 80.0625 154.792969 Z M 86.523438 155.101562 C 86.523438 154.78125 86.265625 154.523438 85.941406 154.523438 C 85.621094 154.523438 85.363281 154.78125 85.363281 155.101562 C 85.363281 155.425781 85.621094 155.683594 85.941406 155.683594 C 86.265625 155.683594 86.523438 155.425781 86.523438 155.101562 Z M 84.167969 152.558594 C 84.1875 152.554688 85.804688 151.644531 86.84375 152.683594 C 86.910156 152.746094 86.992188 152.777344 87.078125 152.777344 C 87.160156 152.777344 87.242188 152.746094 87.308594 152.683594 C 87.4375 152.554688 87.4375 152.347656 87.308594 152.21875 C 85.917969 150.828125 83.917969 151.941406 83.835938 151.988281 C 83.671875 152.078125 83.621094 152.277344 83.710938 152.4375 C 83.808594 152.59375 84.015625 152.648438 84.167969 152.558594 Z M 77.183594 152.476562 C 77.203125 152.464844 79.273438 151.382812 80.574219 152.683594 C 80.636719 152.746094 80.722656 152.777344 80.804688 152.777344 C 80.890625 152.777344 80.972656 152.746094 81.039062 152.683594 C 81.167969 152.554688 81.167969 152.347656 81.039062 152.21875 C 79.386719 150.570312 76.972656 151.847656 76.867188 151.898438 C 76.707031 151.980469 76.648438 152.179688 76.730469 152.339844 C 76.824219 152.503906 77.023438 152.558594 77.183594 152.476562 Z M 82.734375 158.4375 C 82.738281 158.4375 82.746094 158.4375 82.75 158.4375 C 82.925781 158.421875 83.828125 158.347656 84.214844 157.863281 C 84.363281 157.675781 84.414062 157.453125 84.375 157.21875 C 84.242188 156.449219 83.839844 155.519531 83.828125 155.480469 C 83.757812 155.316406 83.558594 155.238281 83.394531 155.308594 C 83.230469 155.378906 83.152344 155.570312 83.222656 155.738281 C 83.230469 155.746094 83.601562 156.632812 83.726562 157.335938 C 83.730469 157.386719 83.726562 157.417969 83.699219 157.457031 C 83.550781 157.652344 83.035156 157.761719 82.714844 157.785156 C 82.53125 157.800781 82.390625 157.953125 82.402344 158.132812 C 82.417969 158.300781 82.558594 158.4375 82.734375 158.4375 Z M 80.082031 159.375 C 79.960938 159.242188 79.753906 159.226562 79.621094 159.351562 C 79.484375 159.472656 79.472656 159.679688 79.59375 159.8125 C 79.640625 159.863281 80.59375 160.90625 82.0625 160.90625 C 82.269531 160.90625 82.488281 160.886719 82.71875 160.835938 C 82.898438 160.796875 83.007812 160.625 82.976562 160.445312 C 82.9375 160.265625 82.765625 160.15625 82.585938 160.1875 C 81.128906 160.507812 80.121094 159.425781 80.082031 159.375 Z M 69.554688 157.066406 C 69.589844 157.066406 69.628906 157.058594 69.667969 157.046875 C 69.84375 156.980469 69.925781 156.796875 69.867188 156.621094 C 69.5 155.605469 70.253906 154.910156 70.289062 154.878906 C 70.421875 154.753906 70.4375 154.550781 70.3125 154.414062 C 70.191406 154.277344 69.984375 154.265625 69.847656 154.382812 C 69.804688 154.421875 68.722656 155.398438 69.242188 156.847656 C 69.289062 156.980469 69.417969 157.066406 69.554688 157.066406 Z M 78.550781 169.453125 L 79.234375 166.527344 C 76.964844 166.472656 76.121094 166.835938 76.179688 167.382812 C 76.210938 167.679688 77.449219 168.648438 78.550781 169.453125 Z M 71.175781 206.117188 C 71.195312 206.203125 71.242188 206.273438 71.3125 206.320312 L 75.589844 209.316406 C 75.648438 209.355469 75.714844 209.375 75.777344 209.375 C 75.882812 209.375 75.984375 209.324219 76.050781 209.234375 C 76.152344 209.085938 76.121094 208.878906 75.964844 208.777344 L 71.789062 205.847656 L 66.535156 181.605469 C 66.496094 181.425781 66.324219 181.316406 66.144531 181.355469 C 65.964844 181.394531 65.851562 181.566406 65.890625 181.746094 Z M 81.339844 204.054688 C 81.398438 204.085938 81.457031 204.105469 81.515625 204.105469 C 81.625 204.105469 81.734375 204.046875 81.792969 203.949219 C 85.355469 198.304688 86.417969 193.132812 86.675781 189.785156 C 86.960938 186.148438 86.40625 183.875 86.378906 183.78125 C 86.335938 183.601562 86.160156 183.496094 85.980469 183.542969 C 85.804688 183.585938 85.695312 183.765625 85.742188 183.941406 C 85.769531 184.03125 87.894531 193.035156 81.230469 203.601562 C 81.140625 203.75 81.1875 203.957031 81.339844 204.054688 Z M 57.164062 206.164062 C 58.707031 210.246094 60.730469 213.378906 60.75 213.410156 C 60.8125 213.507812 60.917969 213.558594 61.027344 213.558594 C 61.089844 213.558594 61.148438 213.539062 61.207031 213.507812 C 61.363281 213.410156 61.40625 213.203125 61.304688 213.050781 C 61.285156 213.019531 59.300781 209.933594 57.785156 205.925781 C 56.574219 202.714844 52.914062 189.804688 52.875 189.675781 C 52.820312 189.5 52.640625 189.398438 52.46875 189.449219 C 52.292969 189.5 52.191406 189.683594 52.242188 189.855469 C 52.28125 189.992188 55.941406 202.925781 57.164062 206.164062 Z M 81.089844 224.164062 C 81.140625 224.191406 81.191406 224.203125 81.242188 224.203125 C 81.359375 224.203125 81.476562 224.140625 81.535156 224.03125 L 85.421875 216.746094 C 85.503906 216.582031 85.445312 216.382812 85.285156 216.300781 C 85.125 216.21875 84.921875 216.273438 84.839844 216.4375 L 80.953125 223.722656 C 80.871094 223.882812 80.929688 224.082031 81.089844 224.164062 Z M 82.808594 214.136719 C 82.714844 214.292969 82.757812 214.5 82.914062 214.59375 L 87.753906 217.625 C 87.804688 217.660156 87.867188 217.679688 87.925781 217.679688 C 88.035156 217.679688 88.144531 217.621094 88.203125 217.523438 C 88.300781 217.367188 88.253906 217.164062 88.101562 217.066406 L 83.261719 214.035156 C 83.113281 213.933594 82.90625 213.984375 82.808594 214.136719 Z M 234.890625 244.597656 C 234.707031 244.632812 234.585938 244.796875 234.617188 244.976562 L 235.074219 247.734375 C 235.101562 247.894531 235.242188 248.007812 235.398438 248.007812 C 235.417969 248.007812 235.4375 248.007812 235.457031 248.003906 C 235.636719 247.972656 235.757812 247.804688 235.726562 247.625 L 235.269531 244.867188 C 235.238281 244.6875 235.070312 244.566406 234.890625 244.597656 Z M 155.558594 184.191406 C 155.390625 184.128906 155.199219 184.210938 155.132812 184.386719 L 145.6875 209.496094 C 145.621094 209.671875 145.703125 209.859375 145.878906 209.921875 C 145.917969 209.933594 145.957031 209.941406 145.996094 209.941406 C 146.128906 209.941406 146.253906 209.859375 146.304688 209.730469 L 155.753906 184.617188 C 155.816406 184.449219 155.734375 184.257812 155.558594 184.191406 Z M 111.894531 234.46875 C 111.714844 234.480469 111.574219 234.636719 111.585938 234.816406 C 111.585938 234.867188 111.851562 239.875 109.125 245.511719 C 106.367188 251.222656 92.117188 277.710938 91.96875 277.980469 C 91.882812 278.140625 91.941406 278.339844 92.101562 278.425781 C 92.15625 278.449219 92.207031 278.464844 92.257812 278.464844 C 92.375 278.464844 92.488281 278.398438 92.546875 278.289062 C 92.691406 278.027344 106.953125 251.515625 109.71875 245.796875 C 112.515625 240.003906 112.257812 234.984375 112.242188 234.769531 C 112.230469 234.597656 112.074219 234.449219 111.894531 234.46875 Z M 96.898438 230.859375 C 97.53125 231.050781 98.246094 231.136719 98.992188 231.136719 C 100.675781 231.136719 102.511719 230.722656 103.851562 230.265625 C 105.496094 229.699219 108.964844 229.121094 109.828125 228.980469 L 110.671875 230.148438 C 110.773438 230.296875 110.980469 230.332031 111.136719 230.226562 C 111.28125 230.117188 111.316406 229.914062 111.210938 229.765625 L 110.246094 228.433594 C 110.175781 228.328125 110.050781 228.277344 109.929688 228.296875 C 109.753906 228.324219 105.574219 228.972656 103.640625 229.640625 C 101.660156 230.332031 98.863281 230.773438 97.089844 230.234375 C 95.378906 229.707031 89.449219 227.175781 88.332031 226.695312 L 85.53125 225.292969 L 84.738281 226.628906 C 84.738281 226.628906 70.441406 220.007812 66.890625 218.507812 C 63.339844 217.007812 61.683594 214.371094 61.683594 214.371094 L 47.574219 214.371094 C 47.574219 214.371094 41.8125 221.640625 42.117188 229.816406 C 42.421875 237.996094 47.425781 243.75 52.28125 243.75 C 57.132812 243.75 81.554688 243.75 81.554688 243.75 L 88.28125 227.382812 C 89.808594 228.039062 95.214844 230.34375 96.898438 230.859375 Z M 105.683594 225.851562 C 105.503906 225.882812 105.386719 226.058594 105.417969 226.238281 C 105.449219 226.398438 105.585938 226.507812 105.742188 226.507812 C 105.761719 226.507812 105.777344 226.507812 105.804688 226.5 C 107.273438 226.222656 109.878906 225.96875 110.605469 226.449219 C 110.761719 226.554688 110.960938 226.507812 111.0625 226.359375 C 111.167969 226.207031 111.121094 226.003906 110.972656 225.902344 C 109.78125 225.105469 106.101562 225.773438 105.683594 225.851562 Z M 103.832031 223.996094 C 103.652344 224.03125 103.535156 224.203125 103.570312 224.382812 C 103.601562 224.542969 103.734375 224.652344 103.890625 224.652344 C 103.910156 224.652344 103.929688 224.652344 103.957031 224.648438 C 105.425781 224.371094 108.027344 224.113281 108.757812 224.597656 C 108.910156 224.699219 109.109375 224.652344 109.214844 224.507812 C 109.316406 224.351562 109.273438 224.152344 109.125 224.050781 C 107.925781 223.257812 104.246094 223.921875 103.832031 223.996094 Z M 101.738281 223.246094 C 101.757812 223.246094 101.777344 223.246094 101.804688 223.238281 C 103.273438 222.960938 105.875 222.703125 106.605469 223.1875 C 106.753906 223.289062 106.957031 223.246094 107.0625 223.097656 C 107.164062 222.941406 107.121094 222.742188 106.972656 222.640625 C 105.777344 221.847656 102.097656 222.511719 101.679688 222.589844 C 101.5 222.621094 101.382812 222.792969 101.417969 222.972656 C 101.449219 223.136719 101.582031 223.246094 101.738281 223.246094 Z M 96.582031 237.339844 C 96.730469 237.234375 96.777344 237.03125 96.671875 236.882812 C 96.570312 236.726562 96.363281 236.6875 96.214844 236.792969 C 96.09375 236.875 93.226562 238.8125 91.347656 242.855469 C 91.273438 243.023438 91.34375 243.214844 91.511719 243.292969 C 91.554688 243.3125 91.601562 243.324219 91.644531 243.324219 C 91.769531 243.324219 91.890625 243.253906 91.949219 243.132812 C 93.742188 239.261719 96.554688 237.359375 96.582031 237.339844 Z M 215.339844 183.15625 L 209.792969 181.21875 C 209.617188 181.160156 209.429688 181.25 209.375 181.417969 C 209.316406 181.59375 209.40625 181.777344 209.574219 181.835938 L 215.121094 183.773438 C 215.160156 183.785156 215.191406 183.792969 215.230469 183.792969 C 215.367188 183.792969 215.496094 183.710938 215.542969 183.574219 C 215.605469 183.40625 215.515625 183.21875 215.339844 183.15625 Z M 238.074219 201.332031 C 237.929688 201.222656 237.722656 201.242188 237.609375 201.382812 C 237.492188 201.523438 237.519531 201.730469 237.660156 201.84375 L 238.542969 202.546875 C 238.605469 202.597656 238.679688 202.617188 238.75 202.617188 C 238.847656 202.617188 238.941406 202.574219 239.007812 202.496094 C 239.121094 202.355469 239.097656 202.148438 238.957031 202.03125 Z M 242.796875 133.097656 L 227.566406 132.78125 C 226.664062 132.765625 225.742188 133.144531 225.113281 133.832031 C 224.488281 134.519531 224.183594 135.441406 224.285156 136.367188 L 225.246094 144.90625 C 225.265625 145.054688 225.175781 145.199219 225.035156 145.253906 C 224.996094 145.269531 224.957031 145.273438 224.917969 145.273438 C 224.816406 145.273438 224.710938 145.222656 224.648438 145.140625 L 217.101562 134.648438 C 216.527344 133.851562 215.636719 133.363281 214.652344 133.3125 L 189.515625 131.925781 C 188.929688 131.894531 188.390625 131.636719 187.996094 131.195312 C 187.601562 130.753906 187.402344 130.1875 187.441406 129.605469 L 188.648438 108.402344 C 188.710938 107.265625 189.660156 106.351562 190.800781 106.324219 L 240.527344 105.257812 C 241.65625 105.246094 242.660156 106.105469 242.769531 107.246094 L 245.039062 130.683594 C 245.097656 131.308594 244.890625 131.933594 244.460938 132.398438 C 244.035156 132.855469 243.433594 133.109375 242.796875 133.097656 Z M 227.585938 132.125 L 242.816406 132.441406 C 243.246094 132.449219 243.679688 132.269531 243.980469 131.945312 C 244.285156 131.625 244.425781 131.1875 244.386719 130.75 L 242.121094 107.308594 C 242.042969 106.523438 241.371094 105.914062 240.578125 105.914062 C 240.566406 105.914062 240.558594 105.914062 240.546875 105.914062 L 190.824219 106.980469 C 190.027344 107 189.363281 107.636719 189.316406 108.4375 L 188.113281 129.636719 C 188.085938 130.046875 188.226562 130.445312 188.503906 130.75 C 188.78125 131.058594 189.164062 131.238281 189.574219 131.265625 L 214.710938 132.648438 C 215.890625 132.710938 216.964844 133.296875 217.65625 134.261719 L 224.46875 143.730469 L 223.648438 136.4375 C 223.527344 135.324219 223.886719 134.210938 224.640625 133.386719 C 225.390625 132.5625 226.441406 132.121094 227.585938 132.125 Z M 195.683594 112.824219 L 232.324219 113 C 232.503906 113 232.652344 112.851562 232.652344 112.671875 C 232.652344 112.492188 232.503906 112.34375 232.324219 112.34375 L 195.683594 112.167969 C 195.503906 112.167969 195.355469 112.316406 195.355469 112.496094 C 195.351562 112.675781 195.496094 112.824219 195.683594 112.824219 Z M 232.851562 117.710938 L 195.683594 117.273438 C 195.683594 117.273438 195.683594 117.273438 195.679688 117.273438 C 195.496094 117.273438 195.351562 117.421875 195.351562 117.601562 C 195.351562 117.78125 195.492188 117.929688 195.679688 117.9375 L 232.847656 118.375 C 232.847656 118.375 232.847656 118.375 232.851562 118.375 C 233.03125 118.375 233.179688 118.226562 233.179688 118.046875 C 233.179688 117.859375 233.03125 117.710938 232.851562 117.710938 Z M 232.589844 123.863281 L 195.335938 123.863281 C 195.15625 123.863281 195.007812 124.011719 195.007812 124.191406 C 195.007812 124.371094 195.15625 124.519531 195.335938 124.519531 L 232.589844 124.519531 C 232.769531 124.519531 232.917969 124.371094 232.917969 124.191406 C 232.917969 124.011719 232.769531 123.863281 232.589844 123.863281 Z M 232.589844 123.863281 " fill-opacity="1" fill-rule="nonzero"/></g></svg>