<svg xmlns="http://www.w3.org/2000/svg" xmlns:xlink="http://www.w3.org/1999/xlink" width="430" zoomAndPan="magnify" viewBox="0 0 322.5 322.499999" height="430" preserveAspectRatio="xMidYMid meet" version="1.0"><defs><clipPath id="id1"><path d="M 12 52 L 278 52 L 278 289.335938 L 12 289.335938 Z M 12 52 " clip-rule="nonzero"/></clipPath><clipPath id="id2"><path d="M 287 243 L 322 243 L 322 289 L 287 289 Z M 287 243 " clip-rule="nonzero"/></clipPath><clipPath id="id3"><path d="M 41 207 L 97 207 L 97 289.335938 L 41 289.335938 Z M 41 207 " clip-rule="nonzero"/></clipPath><clipPath id="id4"><path d="M 40 206 L 98 206 L 98 289.335938 L 40 289.335938 Z M 40 206 " clip-rule="nonzero"/></clipPath><clipPath id="id5"><path d="M 1 207 L 71 207 L 71 289.335938 L 1 289.335938 Z M 1 207 " clip-rule="nonzero"/></clipPath><clipPath id="id6"><path d="M 1 269 L 17 269 L 17 289.335938 L 1 289.335938 Z M 1 269 " clip-rule="nonzero"/></clipPath><clipPath id="id7"><path d="M 64 207 L 137 207 L 137 289.335938 L 64 289.335938 Z M 64 207 " clip-rule="nonzero"/></clipPath><clipPath id="id8"><path d="M 88 242 L 101 242 L 101 289.335938 L 88 289.335938 Z M 88 242 " clip-rule="nonzero"/></clipPath><clipPath id="id9"><path d="M 65 277 L 92 277 L 92 289.335938 L 65 289.335938 Z M 65 277 " clip-rule="nonzero"/></clipPath><clipPath id="id10"><path d="M 49 284 L 146 284 L 146 289.335938 L 49 289.335938 Z M 49 284 " clip-rule="nonzero"/></clipPath><clipPath id="id11"><path d="M 147 173 L 293 173 L 293 289.335938 L 147 289.335938 Z M 147 173 " clip-rule="nonzero"/></clipPath></defs><g clip-path="url(#id1)"><path fill="#e7e8ff" d="M 92.59375 289.785156 L 227.078125 289.785156 C 237.597656 289.785156 247.800781 286.191406 256.007812 279.597656 L 263.027344 273.957031 C 282.933594 257.953125 282.496094 227.464844 262.136719 212.039062 L 260.535156 210.824219 C 242.5 197.160156 240.589844 170.726562 256.46875 154.601562 C 271.390625 139.449219 270.742188 114.910156 255.035156 100.570312 L 216.207031 65.132812 C 196.300781 46.960938 165.257812 49.195312 148.152344 70.03125 C 139.839844 80.152344 127.695312 86.351562 114.632812 87.140625 L 91.300781 88.550781 C 65.066406 90.136719 46.027344 114.195312 50.480469 140.132812 C 53.445312 157.417969 45.976562 174.914062 32.21875 185.765625 C 31.605469 186.25 30.988281 186.738281 30.371094 187.226562 C 5.367188 207.03125 6.074219 243.921875 32.148438 262.285156 C 37.609375 266.128906 42.972656 269.996094 47.957031 273.738281 C 60.890625 283.457031 76.425781 289.785156 92.59375 289.785156 Z M 92.59375 289.785156 " fill-opacity="1" fill-rule="nonzero"/></g><path fill="#ffffff" d="M 53.464844 89.015625 C 53.464844 85.960938 55.933594 83.488281 58.984375 83.488281 L 196.917969 83.488281 C 199.964844 83.488281 202.4375 85.960938 202.4375 89.015625 L 202.4375 208.398438 C 202.4375 211.449219 199.964844 213.925781 196.917969 213.925781 L 58.984375 213.925781 C 55.933594 213.925781 53.464844 211.449219 53.464844 208.398438 Z M 53.464844 89.015625 " fill-opacity="1" fill-rule="nonzero"/><path fill="#191919" d="M 52.636719 89.015625 C 52.636719 85.503906 55.476562 82.660156 58.984375 82.660156 L 196.917969 82.660156 C 200.421875 82.660156 203.265625 85.503906 203.265625 89.015625 L 203.265625 208.398438 C 203.265625 211.90625 200.421875 214.753906 196.917969 214.753906 L 58.984375 214.753906 C 55.476562 214.753906 52.636719 211.90625 52.636719 208.398438 Z M 58.984375 84.316406 C 56.390625 84.316406 54.289062 86.417969 54.289062 89.015625 L 54.289062 208.398438 C 54.289062 210.992188 56.390625 213.097656 58.984375 213.097656 L 196.917969 213.097656 C 199.507812 213.097656 201.609375 210.992188 201.609375 208.398438 L 201.609375 89.015625 C 201.609375 86.417969 199.507812 84.316406 196.917969 84.316406 Z M 58.984375 84.316406 " fill-opacity="1" fill-rule="evenodd"/><path fill="#fb9400" d="M 103.480469 182.214844 C 101.179688 188.558594 91.964844 192.546875 87.648438 193.746094 L 188.042969 193.746094 L 188.042969 149.425781 C 185.882812 156.511719 179.121094 170.6875 169.332031 170.6875 C 157.097656 170.6875 161.054688 150.507812 149.179688 150.507812 C 137.304688 150.507812 140.183594 181.136719 131.1875 181.136719 C 122.191406 181.136719 121.832031 166 114.636719 166 C 107.4375 166 106.359375 174.289062 103.480469 182.214844 Z M 103.480469 182.214844 " fill-opacity="1" fill-rule="nonzero"/><path fill="#191919" d="M 188.042969 193.746094 L 188.042969 138.617188 C 172.210938 138.617188 169.332031 172.847656 159.617188 172.847656 C 149.898438 172.847656 153.859375 151.226562 138.746094 151.226562 C 123.632812 151.226562 127.949219 181.855469 114.277344 181.855469 C 106.71875 181.855469 108.878906 171.40625 97.722656 171.40625 C 89.414062 171.40625 86.207031 179.695312 83.691406 183.65625 C 80.414062 188.8125 74.933594 192.785156 71.816406 193.746094 Z M 188.042969 193.746094 " fill-opacity="1" fill-rule="nonzero"/><path fill="#191919" d="M 53.464844 89.015625 C 53.464844 85.960938 55.933594 83.488281 58.984375 83.488281 L 196.917969 83.488281 C 199.964844 83.488281 202.4375 85.960938 202.4375 89.015625 L 202.4375 100.0625 L 53.464844 100.0625 Z M 53.464844 89.015625 " fill-opacity="1" fill-rule="nonzero"/><path fill="#ffffff" d="M 68.652344 91.894531 C 68.652344 93.882812 67.042969 95.496094 65.054688 95.496094 C 63.070312 95.496094 61.457031 93.882812 61.457031 91.894531 C 61.457031 89.902344 63.070312 88.289062 65.054688 88.289062 C 67.042969 88.289062 68.652344 89.902344 68.652344 91.894531 Z M 68.652344 91.894531 " fill-opacity="1" fill-rule="nonzero"/><path fill="#ffffff" d="M 80.644531 91.894531 C 80.644531 93.882812 79.035156 95.496094 77.050781 95.496094 C 75.0625 95.496094 73.453125 93.882812 73.453125 91.894531 C 73.453125 89.902344 75.0625 88.289062 77.050781 88.289062 C 79.035156 88.289062 80.644531 89.902344 80.644531 91.894531 Z M 80.644531 91.894531 " fill-opacity="1" fill-rule="nonzero"/><path fill="#ffffff" d="M 92.636719 91.894531 C 92.636719 93.882812 91.023438 95.496094 89.039062 95.496094 C 87.050781 95.496094 85.441406 93.882812 85.441406 91.894531 C 85.441406 89.902344 87.050781 88.289062 89.039062 88.289062 C 91.023438 88.289062 92.636719 89.902344 92.636719 91.894531 Z M 92.636719 91.894531 " fill-opacity="1" fill-rule="nonzero"/><path fill="#e7e8ff" d="M 74.332031 130.546875 C 74.332031 129.628906 75.074219 128.886719 75.988281 128.886719 L 130.253906 128.886719 C 131.167969 128.886719 131.90625 129.628906 131.90625 130.546875 L 131.90625 131.554688 C 131.90625 132.46875 131.167969 133.210938 130.253906 133.210938 L 75.988281 133.210938 C 75.074219 133.210938 74.332031 132.46875 74.332031 131.554688 Z M 74.332031 130.546875 " fill-opacity="1" fill-rule="nonzero"/><path fill="#e7e8ff" d="M 74.332031 141.355469 C 74.332031 140.441406 75.074219 139.699219 75.988281 139.699219 L 105.0625 139.699219 C 105.976562 139.699219 106.71875 140.441406 106.71875 141.355469 L 106.71875 142.363281 C 106.71875 143.28125 105.976562 144.023438 105.0625 144.023438 L 75.988281 144.023438 C 75.074219 144.023438 74.332031 143.28125 74.332031 142.363281 Z M 74.332031 141.355469 " fill-opacity="1" fill-rule="nonzero"/><path fill="#fb9400" d="M 74.332031 114.691406 C 74.332031 113.777344 75.074219 113.035156 75.988281 113.035156 L 90.671875 113.035156 C 91.585938 113.035156 92.324219 113.777344 92.324219 114.691406 L 92.324219 115.699219 C 92.324219 116.617188 91.585938 117.359375 90.671875 117.359375 L 75.988281 117.359375 C 75.074219 117.359375 74.332031 116.617188 74.332031 115.699219 Z M 74.332031 114.691406 " fill-opacity="1" fill-rule="nonzero"/><path fill="#191919" d="M 188.871094 115.917969 L 188.871094 194.574219 L 70.628906 194.574219 L 70.628906 157.714844 L 72.28125 157.714844 L 72.28125 192.917969 L 187.214844 192.917969 L 187.214844 115.917969 Z M 188.871094 115.917969 " fill-opacity="1" fill-rule="evenodd"/><g clip-path="url(#id2)"><path fill="#191919" d="M 320.328125 244.058594 C 298.242188 254.925781 289.058594 278.113281 287.515625 288.511719 L 295.796875 288.511719 C 314.34375 275.703125 321.152344 255.746094 322.355469 245.441406 C 322.484375 244.324219 321.34375 243.558594 320.328125 244.058594 Z M 320.328125 244.058594 " fill-opacity="1" fill-rule="nonzero"/></g><path fill="#ffffff" d="M 314.386719 211.15625 C 289.585938 223.09375 282.304688 267.230469 281.785156 288.195312 L 292.929688 288.195312 C 318.660156 251.359375 319.449219 223.066406 316.34375 212.007812 C 316.109375 211.167969 315.175781 210.777344 314.386719 211.15625 Z M 314.386719 211.15625 " fill-opacity="1" fill-rule="nonzero"/><path fill="#191919" d="M 315.605469 212.214844 C 315.503906 211.855469 315.101562 211.660156 314.722656 211.84375 C 302.617188 217.667969 294.679688 231.429688 289.710938 246.527344 C 284.875 261.21875 282.910156 276.992188 282.574219 287.433594 L 292.527344 287.433594 C 317.945312 250.882812 318.621094 222.960938 315.605469 212.214844 Z M 314.050781 210.472656 C 315.253906 209.894531 316.714844 210.484375 317.085938 211.804688 C 320.269531 223.140625 319.382812 251.664062 293.5625 288.628906 L 293.332031 288.957031 L 280.996094 288.957031 L 281.015625 288.175781 C 281.277344 277.636719 283.238281 261.285156 288.25 246.054688 C 293.25 230.859375 301.355469 216.578125 314.050781 210.472656 Z M 314.050781 210.472656 " fill-opacity="1" fill-rule="evenodd"/><path fill="#191919" d="M 313.078125 220.234375 L 302.867188 247.574219 L 308.851562 244.859375 L 309.492188 246.25 L 302.117188 249.589844 L 292.859375 274.375 L 298.058594 272.324219 L 298.628906 273.742188 L 292.140625 276.300781 L 287.601562 288.460938 L 286.160156 287.929688 L 295.367188 263.269531 L 290.636719 252.816406 L 292.039062 252.191406 L 296.128906 261.230469 L 306.117188 234.476562 L 303.660156 226.511719 L 305.128906 226.066406 L 307 232.121094 L 311.632812 219.707031 Z M 313.078125 220.234375 " fill-opacity="1" fill-rule="evenodd"/><path fill="#efcb96" d="M 46.203125 201.808594 L 44.792969 209.257812 L 46.203125 217.0625 C 49.847656 217.535156 57.28125 218.480469 57.84375 218.480469 C 58.410156 218.480469 62.546875 214.933594 64.546875 213.160156 L 62.429688 201.808594 C 68.355469 199.820312 70.308594 191.046875 70.542969 186.910156 C 71.953125 169.882812 60.667969 167.753906 58.550781 167.753906 C 56.433594 167.753906 43.027344 167.753906 41.265625 181.941406 C 39.851562 193.292969 43.96875 199.917969 46.203125 201.808594 Z M 46.203125 201.808594 " fill-opacity="1" fill-rule="nonzero"/><g clip-path="url(#id3)"><path fill="#ffffff" d="M 54.667969 213.871094 C 47.613281 213.871094 44.671875 209.613281 43.734375 207.484375 L 41.265625 208.195312 L 56.785156 289.078125 L 97 289.078125 L 73.363281 212.449219 L 65.25 207.484375 L 64.191406 207.484375 C 63.722656 209.613281 61.722656 213.871094 54.667969 213.871094 Z M 54.667969 213.871094 " fill-opacity="1" fill-rule="nonzero"/></g><g clip-path="url(#id4)"><path fill="#191919" d="M 44.140625 206.605469 L 44.398438 207.1875 C 45.257812 209.136719 47.984375 213.140625 54.667969 213.140625 C 58.039062 213.140625 60.121094 212.128906 61.410156 210.9375 C 62.710938 209.734375 63.269531 208.289062 63.484375 207.324219 L 63.609375 206.753906 L 65.457031 206.753906 L 73.976562 211.96875 L 97.988281 289.808594 L 56.183594 289.808594 L 40.421875 207.675781 Z M 64.753906 208.214844 C 64.417969 209.335938 63.730469 210.777344 62.390625 212.015625 C 60.800781 213.484375 58.351562 214.601562 54.667969 214.601562 C 47.820312 214.601562 44.605469 210.761719 43.347656 208.355469 L 42.105469 208.714844 L 57.386719 288.347656 L 96.011719 288.347656 L 72.753906 212.933594 L 65.046875 208.214844 Z M 64.753906 208.214844 " fill-opacity="1" fill-rule="evenodd"/></g><g clip-path="url(#id5)"><path fill="#fb9400" d="M 55.375 249.699219 C 53.398438 236.929688 46.554688 216 43.378906 207.128906 C 37.382812 208.195312 24.050781 212.308594 18.6875 220.253906 C 13.324219 228.203125 6.105469 254.546875 3.164062 266.726562 C -0.0078125 277.726562 -0.0078125 289.785156 11.984375 289.785156 L 66.308594 289.785156 C 71.953125 278.789062 70.191406 273.46875 68.425781 271.339844 C 67.015625 269.636719 60.753906 268.265625 57.800781 267.792969 C 57.035156 261.4375 56.191406 254.972656 55.375 249.699219 Z M 55.375 249.699219 " fill-opacity="1" fill-rule="nonzero"/></g><path fill="#191919" d="M 35.621094 262.472656 L 40.910156 240.832031 L 39.5 262.117188 L 65.609375 268.757812 C 67.640625 269.277344 69.503906 270.546875 70.078125 272.574219 C 71.796875 278.621094 69.121094 285.589844 67.015625 288.011719 C 69.175781 285.53125 69.132812 273.46875 66.664062 271.695312 C 64.6875 270.277344 40.207031 265.664062 28.210938 263.535156 Z M 35.621094 262.472656 " fill-opacity="1" fill-rule="nonzero"/><path fill="#191919" d="M 44.085938 183.714844 C 42.675781 187.691406 46.554688 190.101562 48.671875 190.8125 L 44.820312 208.902344 L 44.457031 207.441406 C 37.183594 208.171875 28.800781 211.742188 25.742188 213.871094 C 23.980469 202.871094 30.679688 198.261719 34.5625 189.746094 C 38.441406 181.234375 35.265625 161.367188 55.023438 161.367188 C 70.824219 161.367188 73.128906 175.558594 72.308594 182.652344 C 65.253906 180.664062 61.136719 173.308594 59.960938 169.882812 C 59.253906 171.65625 53.257812 187.617188 51.140625 183.714844 C 49.023438 179.8125 45.851562 178.75 44.085938 183.714844 Z M 44.085938 183.714844 " fill-opacity="1" fill-rule="nonzero"/><path fill="#191919" d="M 77.246094 210.675781 C 72.449219 205.851562 70.542969 194.714844 70.191406 189.746094 C 69.0625 197.976562 64.546875 201.21875 62.429688 201.808594 L 63.488281 207.484375 C 69.699219 207.199219 75.246094 209.496094 77.246094 210.675781 Z M 77.246094 210.675781 " fill-opacity="1" fill-rule="nonzero"/><g clip-path="url(#id6)"><path fill="#191919" d="M 16.925781 289.785156 C 15.230469 278.433594 6.695312 271.222656 2.460938 269.210938 C 0.171875 278.488281 0.695312 289.785156 10.574219 289.785156 Z M 16.925781 289.785156 " fill-opacity="1" fill-rule="nonzero"/></g><path fill="#191919" d="M 55.039062 202.023438 C 58.425781 203.15625 61.613281 202.128906 62.789062 201.65625 L 63.515625 206.410156 C 59 205.84375 55.980469 203.324219 55.039062 202.023438 Z M 55.039062 202.023438 " fill-opacity="1" fill-rule="nonzero"/><path fill="#efcb96" d="M 128.203125 228.15625 C 127.6875 230.273438 125.296875 231.761719 124.867188 232.535156 L 132.71875 239.410156 C 134.007812 236.875 135.832031 231.421875 142.28125 230.625 C 151.308594 229.632812 152.09375 222.832031 147.578125 221.839844 C 143.96875 221.042969 137.664062 222.320312 134.332031 222.984375 L 138.136719 221.320312 C 138.664062 221.089844 138.84375 220.425781 138.503906 219.960938 C 138.316406 219.703125 138.007812 219.5625 137.6875 219.582031 C 136.390625 219.660156 134.011719 219.777344 132.074219 221.203125 C 130.167969 222.601562 128.847656 225.507812 128.203125 228.15625 Z M 128.203125 228.15625 " fill-opacity="1" fill-rule="nonzero"/><g clip-path="url(#id7)"><path fill="#fb9400" d="M 64.898438 207.128906 C 68.425781 215.40625 76.046875 235.511719 78.304688 249.699219 C 80.5625 263.890625 82.300781 282.101562 82.890625 289.785156 L 100.175781 289.785156 L 99.609375 288.367188 C 103.996094 288.332031 108.683594 287.097656 111.464844 285.175781 C 117.109375 281.273438 136.472656 245.441406 136.472656 241.1875 C 136.472656 236.929688 128.359375 229.832031 124.832031 229.832031 C 123.152344 229.832031 118.671875 234.257812 114.171875 238.703125 C 109.222656 243.589844 104.253906 248.5 102.960938 247.570312 C 102 246.882812 101.359375 244.90625 100.417969 241.996094 C 98.9375 237.421875 96.710938 230.542969 91.320312 222.738281 C 89.085938 219.5 86.4375 216.832031 83.707031 214.691406 C 78.003906 209.195312 68.875 207.359375 64.898438 207.128906 Z M 64.898438 207.128906 " fill-opacity="1" fill-rule="evenodd"/></g><g clip-path="url(#id8)"><path fill="#191919" d="M 88.179688 242.25 C 89.304688 256.039062 93.804688 280.714844 95.675781 289.785156 L 100.175781 289.785156 C 98.078125 285.140625 91.179688 256.765625 88.179688 242.25 Z M 88.179688 242.25 " fill-opacity="1" fill-rule="nonzero"/></g><path fill="#191919" d="M 118.519531 275.953125 C 116.050781 280.207031 113.226562 285.882812 107.230469 287.304688 C 104.601562 288.183594 101.921875 288.453125 99.46875 288.382812 L 95.589844 283.160156 C 103.859375 278.390625 113.859375 276.242188 118.519531 275.953125 Z M 118.519531 275.953125 " fill-opacity="1" fill-rule="nonzero"/><g clip-path="url(#id9)"><path fill="#efcb96" d="M 91.710938 289.785156 C 91.710938 280.136719 77.480469 277.253906 70.542969 277.015625 C 70.542969 281.839844 68.074219 286.59375 65.957031 289.785156 Z M 91.710938 289.785156 " fill-opacity="1" fill-rule="nonzero"/></g><path fill="#ffffff" d="M 105.535156 243.269531 L 88.453125 281.980469 C 87.597656 283.921875 89.023438 286.105469 91.148438 286.105469 L 143.277344 286.105469 C 144.476562 286.105469 145.554688 285.382812 146.007812 284.277344 L 161.84375 245.566406 C 162.636719 243.632812 161.210938 241.515625 159.117188 241.515625 L 108.234375 241.515625 C 107.066406 241.515625 106.007812 242.203125 105.535156 243.269531 Z M 105.535156 243.269531 " fill-opacity="1" fill-rule="nonzero"/><path fill="#191919" d="M 108.234375 242.125 C 107.308594 242.125 106.46875 242.671875 106.097656 243.515625 L 89.015625 282.226562 C 88.335938 283.765625 89.464844 285.496094 91.148438 285.496094 L 143.277344 285.496094 C 144.226562 285.496094 145.082031 284.921875 145.441406 284.042969 L 161.277344 245.335938 C 161.90625 243.804688 160.773438 242.125 159.117188 242.125 Z M 104.976562 243.023438 C 105.546875 241.734375 106.824219 240.902344 108.234375 240.902344 L 159.117188 240.902344 C 161.644531 240.902344 163.367188 243.460938 162.410156 245.796875 L 146.574219 284.507812 C 146.027344 285.84375 144.726562 286.714844 143.277344 286.714844 L 91.148438 286.714844 C 88.582031 286.714844 86.859375 284.082031 87.894531 281.734375 Z M 104.976562 243.023438 " fill-opacity="1" fill-rule="evenodd"/><path fill="#fb9400" d="M 121.460938 260.710938 C 122.417969 258.496094 124.605469 257.058594 127.027344 257.058594 C 131.382812 257.058594 134.316406 261.511719 132.589844 265.503906 L 132.160156 266.496094 C 131.203125 268.714844 129.015625 270.148438 126.59375 270.148438 C 122.238281 270.148438 119.304688 265.699219 121.03125 261.707031 Z M 121.460938 260.710938 " fill-opacity="1" fill-rule="nonzero"/><g clip-path="url(#id10)"><path fill="#191919" d="M 142.460938 289.785156 L 51.992188 289.785156 C 50.519531 289.785156 49.324219 288.597656 49.324219 287.128906 C 49.324219 285.660156 50.519531 284.46875 51.992188 284.46875 L 142.460938 284.46875 C 144.371094 284.46875 145.660156 286.414062 144.914062 288.167969 C 144.496094 289.148438 143.53125 289.785156 142.460938 289.785156 Z M 142.460938 289.785156 " fill-opacity="1" fill-rule="nonzero"/></g><path fill="#efcb96" d="M 155.117188 193.054688 C 155.863281 195.953125 157.566406 199.042969 157.671875 199.457031 L 151.042969 207.335938 C 150.296875 206.792969 148.273438 205.402344 146.140625 204.1875 C 143.472656 202.664062 138.253906 196.507812 136.765625 192.476562 C 135.277344 188.445312 140.296875 184.949219 143.175781 185.535156 C 144.457031 186.261719 148.398438 189.925781 150.210938 191.667969 C 150 190.25 149.941406 187.414062 151.390625 187.394531 C 153.207031 187.367188 154.375 190.15625 155.117188 193.054688 Z M 155.117188 193.054688 " fill-opacity="1" fill-rule="nonzero"/><path fill="#efcb96" d="M 238.871094 137.261719 C 249.527344 144.804688 245.046875 158.222656 243.039062 163.421875 L 243.917969 174.027344 C 243.007812 177.367188 239.703125 184.046875 233.773438 184.046875 C 227.839844 184.046875 225.121094 178.34375 224.503906 175.492188 L 225.429688 167.445312 C 218.480469 164.929688 218.015625 154.867188 218.480469 146.820312 C 219.03125 137.257812 229.480469 130.613281 238.871094 137.261719 Z M 238.871094 137.261719 " fill-opacity="1" fill-rule="nonzero"/><path fill="#191919" d="M 242.707031 160.789062 L 243.628906 169.910156 C 243.9375 169.234375 244.644531 167.277344 245.015625 164.84375 C 245.476562 161.800781 252.863281 150.148438 250.554688 141.53125 C 248.707031 134.640625 243.628906 134.945312 241.320312 135.957031 C 239.9375 133.425781 231.625 124.808594 219.625 125.824219 C 207.621094 126.835938 206.234375 144.066406 215.929688 146.601562 C 223.6875 148.628906 232.398438 147.445312 235.78125 146.601562 C 236.089844 147.277344 236.984375 149.539062 238.089844 153.1875 C 239.476562 157.75 239.476562 158.761719 239.9375 155.722656 C 240.398438 152.679688 242.246094 147.105469 244.554688 152.679688 C 246.398438 157.140625 244.09375 159.945312 242.707031 160.789062 Z M 242.707031 160.789062 " fill-opacity="1" fill-rule="nonzero"/><path fill="#191919" d="M 236 167.261719 C 232.824219 169.132812 227.910156 168.042969 225.851562 167.261719 L 225.410156 170.539062 C 230 171.660156 234.382812 168.820312 236 167.261719 Z M 236 167.261719 " fill-opacity="1" fill-rule="nonzero"/><g clip-path="url(#id11)"><path fill="#fb9400" d="M 234.183594 179.273438 C 227.726562 179.273438 224.289062 175.738281 223.167969 173.636719 C 223.039062 173.394531 222.792969 173.226562 222.515625 173.230469 C 202.308594 173.578125 188.207031 196.925781 183.46875 209.058594 C 183.367188 209.324219 183.117188 209.496094 182.832031 209.464844 C 176.933594 208.863281 163.246094 197.597656 159.433594 196.75 C 155.515625 195.878906 148.121094 206.550781 147.683594 209.492188 C 147.25 212.429688 162.042969 242.488281 168.136719 246.84375 C 172.6875 250.101562 181.378906 252.722656 185.925781 252.582031 C 186.378906 252.566406 186.761719 252.949219 186.707031 253.402344 C 185.199219 265.351562 184.0625 278.328125 185.457031 281.585938 C 187.527344 286.417969 207.019531 289.785156 222.972656 289.785156 C 250.570312 289.785156 286.1875 289.097656 290.671875 284.605469 C 296.277344 278.992188 288.945312 209.058594 276.441406 191.359375 C 266.667969 177.527344 251.851562 173.003906 245.410156 173.207031 C 245.136719 173.214844 244.90625 173.394531 244.792969 173.644531 C 243.820312 175.75 240.636719 179.273438 234.183594 179.273438 Z M 234.183594 179.273438 " fill-opacity="1" fill-rule="nonzero"/></g><path fill="#191919" d="M 265.230469 274.246094 C 271.4375 267.683594 279.890625 247.046875 283.339844 237.550781 C 282.476562 250.644531 270.835938 280.289062 265.230469 280.289062 C 252.8125 283.050781 222.398438 263.019531 208.742188 252.660156 C 224.984375 262.589844 259.019531 280.808594 265.230469 274.246094 Z M 265.230469 274.246094 " fill-opacity="1" fill-rule="nonzero"/><path fill="#191919" d="M 199.6875 200.855469 L 195.375 213.808594 L 192.355469 213.808594 Z M 199.6875 200.855469 " fill-opacity="1" fill-rule="nonzero"/><path fill="#191919" d="M 247.550781 273.8125 C 257.898438 265.179688 269.109375 263.597656 273.421875 263.882812 C 272.273438 267.769531 267.558594 275.367188 263.074219 276.402344 C 258.589844 277.441406 251.285156 275.253906 247.550781 273.8125 Z M 247.550781 273.8125 " fill-opacity="1" fill-rule="nonzero"/><path fill="#191919" d="M 243.238281 235.394531 L 247.980469 212.511719 L 238.496094 234.097656 C 229.871094 231.9375 220.527344 231.9375 215.640625 231.9375 C 235.476562 235.394531 244.960938 239.277344 254.019531 241.867188 Z M 243.238281 235.394531 " fill-opacity="1" fill-rule="nonzero"/><path fill="#ffffff" d="M 198.863281 213.042969 L 201.777344 255.152344 C 201.808594 255.625 201.371094 255.988281 200.914062 255.867188 L 163.484375 245.871094 C 163.214844 245.800781 163.011719 245.570312 162.976562 245.292969 L 157.980469 205.679688 C 157.921875 205.21875 158.332031 204.832031 158.789062 204.917969 L 198.304688 212.414062 C 198.613281 212.472656 198.839844 212.730469 198.863281 213.042969 Z M 198.863281 213.042969 " fill-opacity="1" fill-rule="nonzero"/><path fill="#191919" d="M 158.917969 204.242188 C 158.003906 204.066406 157.183594 204.839844 157.300781 205.765625 L 162.296875 245.378906 C 162.367188 245.933594 162.765625 246.394531 163.308594 246.539062 L 200.738281 256.53125 C 201.648438 256.773438 202.53125 256.046875 202.464844 255.105469 L 199.550781 212.996094 C 199.507812 212.371094 199.046875 211.855469 198.433594 211.738281 Z M 158.664062 205.59375 L 198.175781 213.089844 L 201.09375 255.199219 L 163.660156 245.207031 Z M 158.664062 205.59375 " fill-opacity="1" fill-rule="evenodd"/><path fill="#fb9400" d="M 174.101562 231.726562 C 175.328125 236.335938 178.5625 239.472656 181.324219 238.734375 C 184.082031 237.996094 185.328125 233.664062 184.097656 229.058594 C 182.871094 224.449219 179.636719 221.3125 176.875 222.050781 C 174.113281 222.789062 172.871094 227.121094 174.101562 231.726562 Z M 174.101562 231.726562 " fill-opacity="1" fill-rule="nonzero"/><path fill="#efcb96" d="M 206.15625 230.210938 C 208.167969 232.035156 211.515625 233.644531 212.953125 235.082031 L 210.46875 247.046875 C 208.398438 246.703125 204.519531 245.386719 202.074219 244.667969 C 199.320312 244.085938 193.460938 242.402344 192.070312 240.3125 C 190.328125 237.699219 188.585938 227.679688 192.070312 228.113281 C 194.855469 228.460938 199.136719 230 200.929688 231.164062 L 200.335938 224.191406 C 204.648438 225.488281 204.011719 228.269531 206.15625 230.210938 Z M 206.15625 230.210938 " fill-opacity="1" fill-rule="nonzero"/><path fill="#fb9400" d="M 71.5625 62.734375 L 75.476562 64.191406 C 76.175781 64.453125 76.128906 65.453125 75.410156 65.648438 L 71.476562 66.71875 C 71.238281 66.785156 71.042969 66.960938 70.957031 67.191406 L 69.402344 71.378906 C 69.152344 72.054688 68.195312 72.042969 67.960938 71.359375 L 66.5 67.085938 C 66.429688 66.878906 66.273438 66.710938 66.070312 66.628906 L 61.496094 64.722656 C 60.8125 64.441406 60.886719 63.453125 61.601562 63.273438 L 66.105469 62.132812 C 66.324219 62.078125 66.507812 61.929688 66.605469 61.726562 L 68.804688 57.167969 C 69.128906 56.496094 70.121094 56.636719 70.246094 57.371094 L 71.078125 62.148438 C 71.125 62.417969 71.308594 62.640625 71.5625 62.734375 Z M 71.5625 62.734375 " fill-opacity="1" fill-rule="nonzero"/><path fill="#fb9400" d="M 34.617188 98.707031 L 35.554688 99.675781 C 36.074219 100.210938 35.601562 101.097656 34.871094 100.964844 L 33.582031 100.730469 C 33.339844 100.6875 33.089844 100.761719 32.914062 100.933594 L 31.738281 102.074219 C 31.222656 102.574219 30.363281 102.152344 30.445312 101.4375 L 30.640625 99.761719 C 30.664062 99.542969 30.59375 99.328125 30.449219 99.164062 L 29.1875 97.761719 C 28.695312 97.214844 29.183594 96.355469 29.90625 96.5 L 31.566406 96.828125 C 31.789062 96.875 32.019531 96.816406 32.195312 96.675781 L 33.679688 95.480469 C 34.261719 95.015625 35.097656 95.566406 34.898438 96.285156 L 34.425781 97.96875 C 34.355469 98.230469 34.425781 98.511719 34.617188 98.707031 Z M 34.617188 98.707031 " fill-opacity="1" fill-rule="nonzero"/></svg>