<svg width="375" height="290" viewBox="0 0 375 290" fill="none" xmlns="http://www.w3.org/2000/svg">
<g filter="url(#filter0_d_2_1605)">
<path d="M0 187.173L6.05816 201.646L15.7512 195.158L25.4443 267.525L35.1373 242.571L44.2246 232.589L54.5234 201.646L63.6107 128.282L73.3037 126.285L84.2084 131.276L93.2956 137.764L102.989 217.118L112.682 210.131L122.375 260.538L132.068 239.576L141.761 257.044L161.147 236.083L170.84 187.173L180.533 165.713L200.525 281L209.612 168.208L219.911 124.788L228.998 168.208L239.297 155.731L248.384 137.764L258.078 87.8564L268.95 29L278.675 45.9337L287.763 91.3499L296.85 98.337L307.149 96.3407L316.842 64.3996L325.929 74.8803L336.228 10L346.527 16.9871L375 69.8895" stroke="#0063F5" stroke-width="2"/>
</g>
<defs>
<filter id="filter0_d_2_1605" x="-8.92236" y="0.288925" width="392.803" height="288.882" filterUnits="userSpaceOnUse" color-interpolation-filters="sRGB">
<feFlood flood-opacity="0" result="BackgroundImageFix"/>
<feColorMatrix in="SourceAlpha" type="matrix" values="0 0 0 0 0 0 0 0 0 0 0 0 0 0 0 0 0 0 127 0" result="hardAlpha"/>
<feOffset/>
<feGaussianBlur stdDeviation="4"/>
<feColorMatrix type="matrix" values="0 0 0 0 0 0 0 0 0 0.388235 0 0 0 0 0.960784 0 0 0 0.24 0"/>
<feBlend mode="normal" in2="BackgroundImageFix" result="effect1_dropShadow_2_1605"/>
<feBlend mode="normal" in="SourceGraphic" in2="effect1_dropShadow_2_1605" result="shape"/>
</filter>
</defs>
</svg>
