<svg width="92" height="94" viewBox="0 0 92 94" fill="none" xmlns="http://www.w3.org/2000/svg">
<path d="M78.1628 36.5622H10.2483C6.96898 36.5622 4.31055 33.9038 4.31055 30.6244C4.31055 27.3451 6.96898 24.6866 10.2483 24.6866H78.1628V36.5622Z" fill="#F0F5FA"/>
<path d="M70.8191 24.6866H78.1628V36.5622H70.8191V24.6866Z" fill="#E4ECF2"/>
<path d="M14.416 37.9403H86.9765V50.5229H14.416V37.9403Z" fill="#677A8F"/>
<path d="M79.6326 37.9401H86.9763V50.5227H79.6326V37.9401Z" fill="#5C6D80"/>
<path d="M20.9055 37.9401H37.7636V50.5227H20.9055V37.9401Z" fill="#FFE7B3"/>
<path d="M44.1458 37.9397H51.8242V50.5223H44.1458V37.9397Z" fill="#FFE7B3"/>
<path d="M9.70337 51.8994H72.4487C77.6879 51.8994 81.935 56.1435 81.935 61.3791C81.935 66.6146 77.6879 70.8588 72.4487 70.8588H9.70337V51.8994Z" fill="#F0F5FA"/>
<path d="M72.4482 51.8994H65.1045C70.3435 51.8994 74.5908 56.1435 74.5908 61.3791C74.5908 66.6146 70.3435 70.8588 65.1045 70.8588H72.4482C77.6873 70.8588 81.9345 66.6146 81.9345 61.3791C81.9345 56.1435 77.6873 51.8994 72.4482 51.8994Z" fill="#E4ECF2"/>
<path d="M72.4482 72.2355H4.90942C4.14898 72.2355 3.53247 71.6192 3.53247 70.8586C3.53247 70.0979 4.14898 69.4816 4.90942 69.4816H72.4484C76.9198 69.4816 80.5577 65.8468 80.5577 61.3789C80.5577 56.911 76.92 53.276 72.4484 53.276H4.90942C4.14898 53.276 3.53247 52.6597 3.53247 51.899C3.53247 51.1384 4.14898 50.5221 4.90942 50.5221H72.4484C78.4383 50.5221 83.3116 55.3923 83.3116 61.3789C83.3114 67.3653 78.4381 72.2355 72.4482 72.2355Z" fill="#87DDF5"/>
<path d="M9.70337 63.0181H64.2443C65.0049 63.0181 65.6212 63.6344 65.6212 64.395C65.6212 65.1557 65.0049 65.772 64.2443 65.772H9.70337V63.0181Z" fill="#C5D7E6"/>
<path d="M9.70337 57.3658H44.1307C44.8911 57.3658 45.5076 57.9822 45.5076 58.7428C45.5076 59.5034 44.8911 60.1197 44.1307 60.1197H9.70337V57.3658Z" fill="#C5D7E6"/>
<path d="M81.9723 37.9395H10.2483C6.21496 37.9395 2.93359 34.6581 2.93359 30.6246C2.93359 26.5912 6.21496 23.3098 10.2483 23.3098H81.9723C82.7329 23.3098 83.3493 23.9261 83.3493 24.6868C83.3493 25.4474 82.7329 26.0637 81.9723 26.0637H10.2483C7.73347 26.0637 5.6875 28.1097 5.6875 30.6246C5.6875 33.1394 7.73347 35.1856 10.2483 35.1856H81.9723C82.7329 35.1856 83.3493 35.8019 83.3493 36.5625C83.3493 37.3232 82.7329 37.9395 81.9723 37.9395Z" fill="#FFDA45"/>
<path d="M78.1629 32.0016H25.6672C24.9068 32.0016 24.2903 31.3853 24.2903 30.6246C24.2903 29.864 24.9068 29.2477 25.6672 29.2477H78.1629V32.0016Z" fill="#C5D7E6"/>
<path d="M24.0344 72.2352H91.2459V94.0001H24.0344V72.2352Z" fill="#FFDA45"/>
<path d="M83.9023 72.2352H91.2461V94.0001H83.9023V72.2352Z" fill="#FAC800"/>
<path d="M36.9829 86.773H79.7861C81.8047 86.773 83.4411 85.1367 83.4411 83.1181V83.1164C83.4411 81.0978 81.8047 79.4614 79.7861 79.4614H36.9829C34.9643 79.4614 33.3279 81.0978 33.3279 83.1164V83.1181C33.3279 85.1367 34.9643 86.773 36.9829 86.773Z" fill="#B23EFF"/>
<path d="M0 72.2557H26.0962V93.9767H0V72.2557Z" fill="#B23EFF"/>
<path d="M6.48682 88.1498C5.72637 88.1498 5.10986 87.5335 5.10986 86.7729V79.4614C5.10986 78.7008 5.72637 78.0845 6.48682 78.0845C7.24726 78.0845 7.86377 78.7008 7.86377 79.4614V86.7729C7.86377 87.5333 7.24726 88.1498 6.48682 88.1498Z" fill="white"/>
<path d="M12.8745 88.1498C12.1141 88.1498 11.4976 87.5335 11.4976 86.7729V79.4614C11.4976 78.7008 12.1141 78.0845 12.8745 78.0845C13.635 78.0845 14.2515 78.7008 14.2515 79.4614V86.7729C14.2515 87.5333 13.635 88.1498 12.8745 88.1498Z" fill="white"/>
<path d="M19.2617 88.1498C18.5013 88.1498 17.8848 87.5335 17.8848 86.7729V79.4614C17.8848 78.7008 18.5013 78.0845 19.2617 78.0845C20.0222 78.0845 20.6387 78.7008 20.6387 79.4614V86.7729C20.6387 87.5333 20.0222 88.1498 19.2617 88.1498Z" fill="white"/>
<path d="M49.1112 16.4008C48.7536 16.4008 48.3961 16.2624 48.1264 15.9864L45.7063 13.5108C43.6517 11.4564 40.2912 11.4568 38.2256 13.522C38.2168 13.5308 38.2078 13.5397 38.1986 13.5483L36.1658 15.4729C35.6136 15.9958 34.7421 15.9719 34.2192 15.4198C33.6963 14.8676 33.72 13.9961 34.2723 13.473L36.292 11.5605C39.4322 8.4352 44.5296 8.43979 47.6641 11.5743L50.0955 14.0611C50.6271 14.6049 50.6172 15.4768 50.0734 16.0083C49.8058 16.2702 49.4584 16.4008 49.1112 16.4008Z" fill="#677A8F"/>
<path d="M25.4111 24.6859C31.8478 24.6859 37.0658 19.4679 37.0658 13.0312C37.0658 6.59446 31.8478 1.37646 25.4111 1.37646C18.9743 1.37646 13.7563 6.59446 13.7563 13.0312C13.7563 19.4679 18.9743 24.6859 25.4111 24.6859Z" fill="#87DDF5"/>
<path d="M25.4111 1.37646C24.1276 1.37646 22.8941 1.58686 21.7393 1.97021C26.3761 3.50891 29.7221 7.87788 29.7221 13.0312C29.7221 18.1845 26.3761 22.5536 21.7393 24.0923C22.8941 24.4755 24.1276 24.6861 25.4111 24.6861C31.8479 24.6861 37.0658 19.468 37.0658 13.0314C37.0658 6.59456 31.8479 1.37646 25.4111 1.37646Z" fill="#64D5F5"/>
<path d="M25.4113 26.064C18.2256 26.064 12.3796 20.218 12.3796 13.0323C12.3796 5.84666 18.2256 0.000488281 25.4113 0.000488281C32.597 0.000488281 38.443 5.84648 38.443 13.0322C38.443 20.2178 32.597 26.064 25.4113 26.064ZM25.4113 2.75439C19.7441 2.75439 15.1335 7.36498 15.1335 13.0322C15.1335 18.6993 19.7441 23.3099 25.4113 23.3099C31.0785 23.3099 35.6891 18.6993 35.6891 13.0322C35.6891 7.36498 31.0785 2.75439 25.4113 2.75439Z" fill="#677A8F"/>
<path d="M25.4111 21.1063C24.6507 21.1063 24.0342 20.49 24.0342 19.7294C24.0342 18.9687 24.6507 18.3524 25.4111 18.3524C28.345 18.3524 30.7319 15.9655 30.7319 13.0319C30.7319 12.2712 31.3484 11.6549 32.1088 11.6549C32.8693 11.6549 33.4858 12.2712 33.4858 13.0319C33.4858 17.484 29.8635 21.1063 25.4111 21.1063Z" fill="white"/>
<path d="M58.5314 24.6864C64.9681 24.6864 70.1861 19.4684 70.1861 13.0317C70.1861 6.59494 64.9681 1.37695 58.5314 1.37695C52.0947 1.37695 46.8767 6.59494 46.8767 13.0317C46.8767 19.4684 52.0947 24.6864 58.5314 24.6864Z" fill="#87DDF5"/>
<path d="M58.5315 1.37695C57.248 1.37695 56.0144 1.58735 54.8596 1.9707C59.4965 3.50939 62.8425 7.87837 62.8425 13.0317C62.8425 18.185 59.4965 22.5541 54.8596 24.0928C56.0144 24.476 57.248 24.6866 58.5315 24.6866C64.9683 24.6866 70.1862 19.4685 70.1862 13.0318C70.1862 6.59505 64.9683 1.37695 58.5315 1.37695Z" fill="#64D5F5"/>
<path d="M58.5314 26.0635C51.3456 26.0635 45.4998 20.2175 45.4998 13.0318C45.4998 5.84617 51.3456 0 58.5314 0C65.7173 0 71.5631 5.84599 71.5631 13.0317C71.5631 20.2173 65.7171 26.0635 58.5314 26.0635ZM58.5314 2.7539C52.8643 2.7539 48.2537 7.36449 48.2537 13.0317C48.2537 18.6988 52.8643 23.3094 58.5314 23.3094C64.1986 23.3094 68.8092 18.6988 68.8092 13.0317C68.8092 7.36449 64.1986 2.7539 58.5314 2.7539Z" fill="#677A8F"/>
<path d="M58.5315 21.1063C57.7709 21.1063 57.1545 20.49 57.1545 19.7294C57.1545 18.9687 57.7709 18.3524 58.5315 18.3524C61.4653 18.3524 63.8522 15.9655 63.8522 13.0319C63.8522 12.2712 64.4685 11.6549 65.2292 11.6549C65.9898 11.6549 66.6061 12.2712 66.6061 13.0319C66.6061 17.484 62.9838 21.1063 58.5315 21.1063Z" fill="white"/>
</svg>
