<svg width="102" height="104" viewBox="0 0 102 104" fill="none" xmlns="http://www.w3.org/2000/svg">
<path d="M2.47474 51.1405H4.94927V48.6659C4.94927 48.0097 5.20998 47.3802 5.67404 46.9162C6.13811 46.4521 6.76752 46.1914 7.42381 46.1914C8.08009 46.1914 8.7095 46.4521 9.17357 46.9162C9.63763 47.3802 9.89834 48.0097 9.89834 48.6659V51.1405H12.3729C13.0292 51.1405 13.6586 51.4012 14.1226 51.8653C14.5867 52.3293 14.8474 52.9587 14.8474 53.615C14.8474 54.2713 14.5867 54.9007 14.1226 55.3648C13.6586 55.8288 13.0292 56.0895 12.3729 56.0895H9.89834V58.5641C9.89834 59.2204 9.63763 59.8498 9.17357 60.3138C8.7095 60.7779 8.08009 61.0386 7.42381 61.0386C6.76752 61.0386 6.13811 60.7779 5.67404 60.3138C5.20998 59.8498 4.94927 59.2204 4.94927 58.5641V56.0895H2.47474C1.81845 56.0895 1.18904 55.8288 0.724974 55.3648C0.260908 54.9007 0.000200272 54.2713 0.000200272 53.615C0.000200272 52.9587 0.260908 52.3293 0.724974 51.8653C1.18904 51.4012 1.81845 51.1405 2.47474 51.1405Z" fill="url(#paint0_linear_2_786)"/>
<path d="M4.12391 4.94907H6.59844V2.47454C6.59844 1.81825 6.85915 1.18884 7.32321 0.724775C7.78728 0.260709 8.41669 0 9.07298 0C9.72926 0 10.3587 0.260709 10.8227 0.724775C11.2868 1.18884 11.5475 1.81825 11.5475 2.47454V4.94907H14.022C14.6783 4.94907 15.3077 5.20978 15.7718 5.67385C16.2359 6.13791 16.4966 6.76732 16.4966 7.42361C16.4966 8.07989 16.2359 8.7093 15.7718 9.17337C15.3077 9.63743 14.6783 9.89814 14.022 9.89814H11.5475V12.3727C11.5475 13.029 11.2868 13.6584 10.8227 14.1224C10.3587 14.5865 9.72926 14.8472 9.07298 14.8472C8.41669 14.8472 7.78728 14.5865 7.32321 14.1224C6.85915 13.6584 6.59844 13.029 6.59844 12.3727V9.89814H4.12391C3.46762 9.89814 2.83821 9.63743 2.37414 9.17337C1.91008 8.7093 1.64937 8.07989 1.64937 7.42361C1.64937 6.76732 1.91008 6.13791 2.37414 5.67385C2.83821 5.20978 3.46762 4.94907 4.12391 4.94907Z" fill="url(#paint1_linear_2_786)"/>
<path d="M56.9144 21.4459H59.389V18.9714C59.389 18.3151 59.6497 17.6857 60.1137 17.2216C60.5778 16.7575 61.2072 16.4968 61.8635 16.4968C62.5198 16.4968 63.1492 16.7575 63.6133 17.2216C64.0773 17.6857 64.338 18.3151 64.338 18.9714V21.4459H66.8126C67.4689 21.4459 68.0983 21.7066 68.5623 22.1707C69.0264 22.6347 69.2871 23.2641 69.2871 23.9204C69.2871 24.5767 69.0264 25.2061 68.5623 25.6702C68.0983 26.1343 67.4689 26.395 66.8126 26.395H64.338V28.8695C64.338 29.5258 64.0773 30.1552 63.6133 30.6193C63.1492 31.0833 62.5198 31.344 61.8635 31.344C61.2072 31.344 60.5778 31.0833 60.1137 30.6193C59.6497 30.1552 59.389 29.5258 59.389 28.8695V26.395H56.9144C56.2581 26.395 55.6287 26.1343 55.1647 25.6702C54.7006 25.2061 54.4399 24.5767 54.4399 23.9204C54.4399 23.2641 54.7006 22.6347 55.1647 22.1707C55.6287 21.7066 56.2581 21.4459 56.9144 21.4459Z" fill="url(#paint2_linear_2_786)"/>
<path d="M34.6439 23.509C29.4051 23.509 25.1582 19.2621 25.1582 14.0233C25.1582 8.7845 29.4051 4.5376 34.6439 4.5376C39.8827 4.5376 44.1296 8.7845 44.1296 14.0233C44.1296 19.2621 39.8827 23.509 34.6439 23.509Z" fill="url(#paint3_linear_2_786)"/>
<path d="M28.0446 23.9202H41.2422C43.2104 23.9223 45.0973 24.7052 46.489 26.0969C47.8808 27.4886 48.6636 29.3756 48.6658 31.3438V46.191C48.6658 46.8473 48.4051 47.4767 47.941 47.9407C47.4769 48.4048 46.8475 48.6655 46.1912 48.6655H23.0956C22.4393 48.6655 21.8099 48.4048 21.3458 47.9407C20.8817 47.4767 20.621 46.8473 20.621 46.191V31.3438C20.6232 29.3756 21.4061 27.4886 22.7978 26.0969C24.1895 24.7052 26.0765 23.9223 28.0446 23.9202Z" fill="url(#paint4_linear_2_786)"/>
<path d="M26.3197 9.34585C27.4163 7.15238 29.7506 4.53762 34.6436 4.53762H47.8314C48.159 4.53574 48.474 4.66358 48.7076 4.8932C48.9413 5.12282 49.0746 5.43557 49.0784 5.76313C49.086 11.5488 43.5201 12.2947 43.2838 12.3736C43.1575 12.4158 43.0252 12.4372 42.892 12.4372L30.5194 12.3736L28.8697 20.1478C28.8698 20.3229 28.8143 20.4935 28.711 20.6349C28.6078 20.7764 28.4622 20.8813 28.2954 20.9345C28.1285 20.9876 27.9491 20.9864 27.7831 20.9308C27.617 20.8752 27.473 20.7683 27.3717 20.6254C26.3407 19.1786 25.1579 16.8666 25.1579 14.0233C25.2113 12.3997 25.6072 10.8058 26.3197 9.34585Z" fill="url(#paint5_linear_2_786)"/>
<path d="M32.1692 68.4621C32.1692 67.1495 32.6906 65.8907 33.6188 64.9626C34.5469 64.0345 35.8057 63.513 37.1183 63.513H55.2649V52.1714C55.2649 49.0861 55.2649 42.935 63.3591 42.1496C63.5878 42.1281 63.8186 42.1546 64.0365 42.2275C64.2544 42.3003 64.4547 42.4179 64.6245 42.5727C64.7943 42.7275 64.9299 42.916 65.0227 43.1262C65.1154 43.3364 65.1632 43.5637 65.163 43.7935V55.0039C65.1631 55.3092 65.2478 55.6084 65.4078 55.8684L70.1121 63.513H69.9059L80.0102 70.1118L81.6599 83.3093L80.0102 96.5069C80.0102 98.257 79.315 99.9354 78.0775 101.173C76.84 102.41 75.1616 103.106 73.4115 103.106H40.4177C39.1051 103.106 37.8463 102.584 36.9181 101.656C35.99 100.728 35.4686 99.4691 35.4686 98.1565C35.4686 96.844 35.99 95.5852 36.9181 94.657C37.8463 93.7289 39.1051 93.2075 40.4177 93.2075H38.768C37.4554 93.2075 36.1966 92.6861 35.2685 91.7579C34.3403 90.8298 33.8189 89.571 33.8189 88.2584C33.8189 86.9458 34.3403 85.687 35.2685 84.7589C36.1966 83.8308 37.4554 83.3093 38.768 83.3093H37.1183C35.8057 83.3093 34.5469 82.7879 33.6188 81.8598C32.6906 80.9316 32.1692 79.6728 32.1692 78.3603C32.1692 77.0477 32.6906 75.7889 33.6188 74.8607C34.5469 73.9326 35.8057 73.4112 37.1183 73.4112C35.8057 73.4112 34.5469 72.8898 33.6188 71.9616C32.6906 71.0335 32.1692 69.7747 32.1692 68.4621Z" fill="url(#paint6_linear_2_786)"/>
<path d="M82.4846 63.5132H98.9815C100.348 63.5132 101.456 64.6211 101.456 65.9877V100.631C101.456 101.998 100.348 103.106 98.9815 103.106H82.4846C81.118 103.106 80.0101 101.998 80.0101 100.631V65.9877C80.0101 64.6211 81.118 63.5132 82.4846 63.5132Z" fill="url(#paint7_linear_2_786)"/>
<path d="M90.733 99.1874C89.3663 99.1874 88.2584 98.0795 88.2584 96.7128C88.2584 95.3462 89.3663 94.2383 90.733 94.2383C92.0996 94.2383 93.2075 95.3462 93.2075 96.7128C93.2075 98.0795 92.0996 99.1874 90.733 99.1874Z" fill="#BFE8E5"/>
<defs>
<linearGradient id="paint0_linear_2_786" x1="14.8474" y1="53.615" x2="0.000201225" y2="53.615" gradientUnits="userSpaceOnUse">
<stop offset="0.011" stop-color="#FAD46A"/>
<stop offset="1" stop-color="#FCE6AA"/>
</linearGradient>
<linearGradient id="paint1_linear_2_786" x1="-6219.33" y1="593.888" x2="-7288.33" y2="593.888" gradientUnits="userSpaceOnUse">
<stop offset="0.011" stop-color="#FAD46A"/>
<stop offset="1" stop-color="#FCE6AA"/>
</linearGradient>
<linearGradient id="paint2_linear_2_786" x1="-2365.66" y1="1798.16" x2="-3434.65" y2="1798.16" gradientUnits="userSpaceOnUse">
<stop offset="0.011" stop-color="#FAD46A"/>
<stop offset="1" stop-color="#FCE6AA"/>
</linearGradient>
<linearGradient id="paint3_linear_2_786" x1="41.3483" y1="20.7277" x2="27.9396" y2="7.31898" gradientUnits="userSpaceOnUse">
<stop offset="0.004" stop-color="#F1CCCD"/>
<stop offset="1" stop-color="#FAEEEE"/>
</linearGradient>
<linearGradient id="paint4_linear_2_786" x1="46.3902" y1="49.4916" x2="22.8966" y2="25.9982" gradientUnits="userSpaceOnUse">
<stop offset="0.015" stop-color="#CACAD5"/>
<stop offset="1" stop-color="#DCDCE3"/>
</linearGradient>
<linearGradient id="paint5_linear_2_786" x1="41.4793" y1="16.2075" x2="30.1362" y2="4.86426" gradientUnits="userSpaceOnUse">
<stop offset="0.011" stop-color="#606082"/>
<stop offset="1" stop-color="#83839E"/>
</linearGradient>
<linearGradient id="paint6_linear_2_786" x1="-5714.74" y1="29937.1" x2="-17384.5" y2="20463.4" gradientUnits="userSpaceOnUse">
<stop offset="0.004" stop-color="#F1CCCD"/>
<stop offset="1" stop-color="#FAEEEE"/>
</linearGradient>
<linearGradient id="paint7_linear_2_786" x1="105.268" y1="97.8443" x2="76.1983" y2="68.7747" gradientUnits="userSpaceOnUse">
<stop offset="0.011" stop-color="#60C6BE"/>
<stop offset="1" stop-color="#80D1CB"/>
</linearGradient>
</defs>
</svg>
