<svg width="75" height="75" viewBox="0 0 75 75" fill="none" xmlns="http://www.w3.org/2000/svg">
<path d="M70.5681 20.9895C66.1406 26.8672 58.7396 28.7203 54.0324 25.118C49.3251 21.5157 48.6603 14.9796 52.7426 8.76959C57.2368 1.93199 66.7143 4.40882 72.2647 0.279054C72.4447 0.13427 72.661 0.0415867 72.89 0.0110745C73.1189 -0.0194377 73.3519 0.0133879 73.5636 0.105985C73.7752 0.198582 73.9575 0.347409 74.0905 0.536297C74.2235 0.725186 74.3022 0.946912 74.318 1.17739C74.6132 5.87439 74.6388 15.5738 70.5681 20.9895Z" fill="#00E979"/>
<path d="M25.6834 31.2564C30.1096 37.134 37.5106 38.9872 42.2191 35.3849C46.9277 31.7825 47.5899 25.2465 43.5025 19.0365C39.0134 12.1989 29.5359 14.6757 23.9855 10.5459C23.8056 10.4007 23.5893 10.3076 23.3602 10.2769C23.131 10.2461 22.8978 10.2788 22.686 10.3715C22.4742 10.4642 22.2919 10.6132 22.159 10.8024C22.026 10.9916 21.9476 11.2136 21.9322 11.4443C21.6383 16.1413 21.6126 25.8407 25.6834 31.2564Z" fill="#00E979"/>
<path d="M52.6168 46.2063C52.3605 46.2062 52.1101 46.1294 51.8978 45.9858C51.6856 45.8422 51.5212 45.6383 51.4258 45.4004C48.967 39.2519 45.6765 37.0484 43.0842 35.8164C30.6615 29.9131 29.5694 22.3055 29.5296 21.9847C29.4918 21.6502 29.587 21.3143 29.7945 21.0493C30.0021 20.7843 30.3055 20.6115 30.6392 20.5681C30.973 20.5246 31.3105 20.6141 31.579 20.8171C31.8474 21.0202 32.0254 21.3206 32.0744 21.6536C32.0924 21.7691 33.1909 28.2691 44.1878 33.4987C46.8417 34.725 49.1342 36.6156 50.8432 38.9875C50.9882 32.8763 52.9235 23.0922 61.9402 13.2567C62.1703 13.0059 62.4906 12.8567 62.8306 12.842C63.1707 12.8273 63.5027 12.9483 63.7535 13.1784C64.0044 13.4085 64.1535 13.7288 64.1682 14.0689C64.1829 14.409 64.0619 14.7409 63.8318 14.9918C50.3863 29.6513 53.8257 44.4674 53.8629 44.615C53.9405 44.9304 53.8956 45.2636 53.7372 45.5473C53.5788 45.831 53.3188 46.044 53.0095 46.1434C52.8825 46.1842 52.7501 46.2054 52.6168 46.2063Z" fill="#00DC72"/>
<path d="M25.6667 64.1734H20.5333C21.2141 64.1734 21.8669 63.903 22.3482 63.4216C22.8296 62.9403 23.1 62.2874 23.1 61.6067C23.1 60.926 22.8296 60.2731 22.3482 59.7918C21.8669 59.3105 21.2141 59.04 20.5333 59.04H2.56667C1.88594 59.04 1.2331 59.3105 0.751759 59.7918C0.270416 60.2731 0 60.926 0 61.6067C0 62.2874 0.270416 62.9403 0.751759 63.4216C1.2331 63.903 1.88594 64.1734 2.56667 64.1734H7.7C7.01928 64.1734 6.36644 64.4438 5.88509 64.9251C5.40375 65.4065 5.13333 66.0593 5.13333 66.74C5.13333 67.4208 5.40375 68.0736 5.88509 68.5549C6.36644 69.0363 7.01928 69.3067 7.7 69.3067H5.13333C4.45261 69.3067 3.79977 69.5771 3.31843 70.0585C2.83708 70.5398 2.56667 71.1926 2.56667 71.8734C2.56667 72.5541 2.83708 73.2069 3.31843 73.6883C3.79977 74.1696 4.45261 74.44 5.13333 74.44H23.1C23.7807 74.44 24.4336 74.1696 24.9149 73.6883C25.3963 73.2069 25.6667 72.5541 25.6667 71.8734C25.6667 71.1926 25.3963 70.5398 24.9149 70.0585C24.4336 69.5771 23.7807 69.3067 23.1 69.3067H25.6667C26.3474 69.3067 27.0002 69.0363 27.4816 68.5549C27.9629 68.0736 28.2333 67.4208 28.2333 66.74C28.2333 66.0593 27.9629 65.4065 27.4816 64.9251C27.0002 64.4438 26.3474 64.1734 25.6667 64.1734Z" fill="#FDE05E"/>
<path d="M25.6671 64.1738H7.70046C6.28292 64.1738 5.13379 65.323 5.13379 66.7405C5.13379 68.158 6.28292 69.3072 7.70046 69.3072H25.6671C27.0847 69.3072 28.2338 68.158 28.2338 66.7405C28.2338 65.323 27.0847 64.1738 25.6671 64.1738Z" fill="#E3C84C"/>
<path d="M66.7335 64.173H61.6001C62.2809 64.173 62.9337 63.9026 63.415 63.4212C63.8964 62.9399 64.1668 62.287 64.1668 61.6063C64.1668 60.9256 63.8964 60.2728 63.415 59.7914C62.9337 59.3101 62.2809 59.0397 61.6001 59.0397H57.7501C58.4309 59.0397 59.0837 58.7692 59.565 58.2879C60.0464 57.8066 60.3168 57.1537 60.3168 56.473C60.3168 55.7923 60.0464 55.1394 59.565 54.6581C59.0837 54.1767 58.4309 53.9063 57.7501 53.9063H61.6001C62.2809 53.9063 62.9337 53.6359 63.415 53.1546C63.8964 52.6732 64.1668 52.0204 64.1668 51.3397C64.1668 50.6589 63.8964 50.0061 63.415 49.5247C62.9337 49.0434 62.2809 48.773 61.6001 48.773C62.2809 48.773 62.9337 48.5026 63.415 48.0212C63.8964 47.5399 64.1668 46.887 64.1668 46.2063C64.1668 45.5256 63.8964 44.8727 63.415 44.3914C62.9337 43.9101 62.2809 43.6396 61.6001 43.6396H43.6335C42.9527 43.6396 42.2999 43.9101 41.8186 44.3914C41.3372 44.8727 41.0668 45.5256 41.0668 46.2063C41.0668 46.887 41.3372 47.5399 41.8186 48.0212C42.2999 48.5026 42.9527 48.773 43.6335 48.773C42.9527 48.773 42.2999 49.0434 41.8186 49.5247C41.3372 50.0061 41.0668 50.6589 41.0668 51.3397C41.0668 52.0204 41.3372 52.6732 41.8186 53.1546C42.2999 53.6359 42.9527 53.9063 43.6335 53.9063H39.7835C39.1027 53.9063 38.4499 54.1767 37.9686 54.6581C37.4872 55.1394 37.2168 55.7923 37.2168 56.473C37.2168 57.1537 37.4872 57.8066 37.9686 58.2879C38.4499 58.7692 39.1027 59.0397 39.7835 59.0397H43.6335C42.9527 59.0397 42.2999 59.3101 41.8186 59.7914C41.3372 60.2728 41.0668 60.9256 41.0668 61.6063C41.0668 62.287 41.3372 62.9399 41.8186 63.4212C42.2999 63.9026 42.9527 64.173 43.6335 64.173H48.7668C48.0861 64.173 47.4332 64.4434 46.9519 64.9247C46.4705 65.4061 46.2001 66.0589 46.2001 66.7397C46.2001 67.4204 46.4705 68.0732 46.9519 68.5546C47.4332 69.0359 48.0861 69.3063 48.7668 69.3063H46.2001C45.5194 69.3063 44.8666 69.5767 44.3852 70.0581C43.9039 70.5394 43.6335 71.1923 43.6335 71.873C43.6335 72.5537 43.9039 73.2066 44.3852 73.6879C44.8666 74.1692 45.5194 74.4397 46.2001 74.4397H64.1668C64.8475 74.4397 65.5004 74.1692 65.9817 73.6879C66.4631 73.2066 66.7335 72.5537 66.7335 71.873C66.7335 71.1923 66.4631 70.5394 65.9817 70.0581C65.5004 69.5767 64.8475 69.3063 64.1668 69.3063H66.7335C67.4142 69.3063 68.067 69.0359 68.5484 68.5546C69.0297 68.0732 69.3001 67.4204 69.3001 66.7397C69.3001 66.0589 69.0297 65.4061 68.5484 64.9247C68.067 64.4434 67.4142 64.173 66.7335 64.173Z" fill="#FDE05E"/>
<path d="M61.6002 59.0403H43.6336C42.216 59.0403 41.0669 60.1894 41.0669 61.6069C41.0669 63.0245 42.216 64.1736 43.6336 64.1736H61.6002C63.0178 64.1736 64.1669 63.0245 64.1669 61.6069C64.1669 60.1894 63.0178 59.0403 61.6002 59.0403Z" fill="#E3C84C"/>
<path d="M61.6002 48.7734H43.6336C42.216 48.7734 41.0669 49.9226 41.0669 51.3401C41.0669 52.7576 42.216 53.9068 43.6336 53.9068H61.6002C63.0178 53.9068 64.1669 52.7576 64.1669 51.3401C64.1669 49.9226 63.0178 48.7734 61.6002 48.7734Z" fill="#E3C84C"/>
<path d="M64.1669 69.3069H46.2002C44.7827 69.3069 43.6335 70.456 43.6335 71.8736C43.6335 73.2911 44.7827 74.4402 46.2002 74.4402H64.1669C65.5844 74.4402 66.7336 73.2911 66.7336 71.8736C66.7336 70.456 65.5844 69.3069 64.1669 69.3069Z" fill="#E3C84C"/>
<path d="M14.1169 59.0404C20.4958 59.0404 25.6669 53.8693 25.6669 47.4904C25.6669 41.1115 20.4958 35.9404 14.1169 35.9404C7.73801 35.9404 2.56689 41.1115 2.56689 47.4904C2.56689 53.8693 7.73801 59.0404 14.1169 59.0404Z" fill="#FDE05E"/>
<path d="M14.1171 56.4735C19.0785 56.4735 23.1005 52.4515 23.1005 47.4902C23.1005 42.5288 19.0785 38.5068 14.1171 38.5068C9.15577 38.5068 5.13379 42.5288 5.13379 47.4902C5.13379 52.4515 9.15577 56.4735 14.1171 56.4735Z" fill="#E3C84C"/>
<path d="M17.9669 50.0567C17.9669 49.0356 17.5612 48.0564 16.8392 47.3343C16.1172 46.6123 15.1379 46.2067 14.1169 46.2067C13.8916 46.2065 13.6704 46.147 13.4755 46.0342C13.2805 45.9214 13.1187 45.7594 13.0062 45.5642C12.8938 45.3691 12.8346 45.1478 12.8348 44.9226C12.8349 44.6974 12.8943 44.4762 13.007 44.2812C13.1197 44.0862 13.2818 43.9243 13.4768 43.8117C13.6719 43.6992 13.8932 43.64 14.1184 43.64C14.3436 43.6401 14.5649 43.6994 14.7599 43.8121C14.9549 43.9247 15.1169 44.0867 15.2295 44.2817C15.405 44.5655 15.6842 44.7697 16.0078 44.8511C16.3314 44.9325 16.6739 44.8847 16.9628 44.7177C17.2517 44.5508 17.4643 44.278 17.5554 43.957C17.6465 43.636 17.6091 43.2922 17.451 42.9984C16.9863 42.2171 16.2597 41.626 15.4002 41.33V41.0734C15.4002 40.733 15.265 40.4066 15.0243 40.1659C14.7836 39.9252 14.4572 39.79 14.1169 39.79C13.7765 39.79 13.4501 39.9252 13.2094 40.1659C12.9687 40.4066 12.8335 40.733 12.8335 41.0734V41.3095C11.9779 41.6109 11.2566 42.2053 10.7973 42.9875C10.338 43.7697 10.1704 44.6893 10.3241 45.5832C10.4778 46.4772 10.943 47.2879 11.6371 47.8718C12.3313 48.4557 13.2098 48.7751 14.1169 48.7734C14.3421 48.7736 14.5633 48.8331 14.7582 48.9458C14.9532 49.0586 15.115 49.2207 15.2275 49.4158C15.3399 49.611 15.3991 49.8323 15.3989 50.0575C15.3988 50.2827 15.3394 50.5039 15.2267 50.6989C15.114 50.8939 14.952 51.0558 14.7569 51.1683C14.5618 51.2809 14.3405 51.3401 14.1153 51.34C13.8901 51.34 13.6688 51.2807 13.4738 51.168C13.2788 51.0554 13.1168 50.8934 13.0042 50.6984C12.8287 50.4146 12.5495 50.2104 12.2259 50.129C11.9024 50.0476 11.5598 50.0954 11.2709 50.2623C10.982 50.4292 10.7694 50.7021 10.6783 51.0231C10.5872 51.344 10.6246 51.6879 10.7828 51.9817C11.248 52.7634 11.9757 53.3546 12.8361 53.65V53.9067C12.8361 54.2471 12.9713 54.5735 13.212 54.8142C13.4526 55.0548 13.7791 55.19 14.1194 55.19C14.4598 55.19 14.7862 55.0548 15.0269 54.8142C15.2675 54.5735 15.4028 54.2471 15.4028 53.9067V53.6706C16.1503 53.4057 16.7979 52.9163 17.2568 52.2695C17.7158 51.6226 17.9638 50.8498 17.9669 50.0567Z" fill="#FDE05E"/>
</svg>
