<svg width="92" height="94" viewBox="0 0 92 94" fill="none" xmlns="http://www.w3.org/2000/svg">
<path d="M78.5143 36.5623H10.5999C7.32055 36.5623 4.66211 33.9039 4.66211 30.6246C4.66211 27.3452 7.32055 24.6868 10.5999 24.6868H78.5143V36.5623Z" fill="#F0F5FA"/>
<path d="M71.1707 24.6868H78.5144V36.5623H71.1707V24.6868Z" fill="#E4ECF2"/>
<path d="M14.7676 37.9404H87.328V50.523H14.7676V37.9404Z" fill="#677A8F"/>
<path d="M79.9841 37.9399H87.3279V50.5225H79.9841V37.9399Z" fill="#5C6D80"/>
<path d="M21.2571 37.9399H38.1152V50.5225H21.2571V37.9399Z" fill="#FFE7B3"/>
<path d="M44.4973 37.9397H52.1758V50.5223H44.4973V37.9397Z" fill="#FFE7B3"/>
<path d="M10.0549 51.8997H72.8003C78.0395 51.8997 82.2866 56.1438 82.2866 61.3793C82.2866 66.6149 78.0395 70.859 72.8003 70.859H10.0549V51.8997Z" fill="#F0F5FA"/>
<path d="M72.7998 51.8997H65.4561C70.6951 51.8997 74.9423 56.1438 74.9423 61.3793C74.9423 66.6149 70.6951 70.859 65.4561 70.859H72.7998C78.0388 70.859 82.2861 66.6149 82.2861 61.3793C82.2861 56.1438 78.0388 51.8997 72.7998 51.8997Z" fill="#E4ECF2"/>
<path d="M72.7998 72.2357H5.26099C4.50054 72.2357 3.88403 71.6193 3.88403 70.8587C3.88403 70.0981 4.50054 69.4817 5.26099 69.4817H72.8C77.2714 69.4817 80.9093 65.847 80.9093 61.379C80.9093 56.9111 77.2716 53.2761 72.8 53.2761H5.26099C4.50054 53.2761 3.88403 52.6598 3.88403 51.8992C3.88403 51.1385 4.50054 50.5222 5.26099 50.5222H72.8C78.7899 50.5222 83.6632 55.3924 83.6632 61.379C83.663 67.3655 78.7897 72.2357 72.7998 72.2357Z" fill="#87DDF5"/>
<path d="M10.0549 63.0183H64.5958C65.3565 63.0183 65.9728 63.6346 65.9728 64.3953C65.9728 65.1559 65.3565 65.7722 64.5958 65.7722H10.0549V63.0183Z" fill="#C5D7E6"/>
<path d="M10.0549 57.366H44.4822C45.2427 57.366 45.8592 57.9823 45.8592 58.7429C45.8592 59.5035 45.2427 60.1199 44.4822 60.1199H10.0549V57.366Z" fill="#C5D7E6"/>
<path d="M82.3239 37.9395H10.5999C6.56653 37.9395 3.28516 34.6581 3.28516 30.6246C3.28516 26.5912 6.56653 23.3098 10.5999 23.3098H82.3239C83.0845 23.3098 83.7008 23.9261 83.7008 24.6868C83.7008 25.4474 83.0845 26.0637 82.3239 26.0637H10.5999C8.08503 26.0637 6.03906 28.1097 6.03906 30.6246C6.03906 33.1394 8.08503 35.1856 10.5999 35.1856H82.3239C83.0845 35.1856 83.7008 35.8019 83.7008 36.5625C83.7008 37.3232 83.0845 37.9395 82.3239 37.9395Z" fill="#FFDA45"/>
<path d="M78.5145 32.0015H26.0188C25.2584 32.0015 24.6418 31.3851 24.6418 30.6245C24.6418 29.8639 25.2584 29.2476 26.0188 29.2476H78.5145V32.0015Z" fill="#C5D7E6"/>
<path d="M24.386 72.2351H91.5974V94H24.386V72.2351Z" fill="#FFDA45"/>
<path d="M84.2539 72.2351H91.5977V94H84.2539V72.2351Z" fill="#FAC800"/>
<path d="M37.3344 86.773H80.1376C82.1562 86.773 83.7926 85.1367 83.7926 83.1181V83.1164C83.7926 81.0978 82.1562 79.4614 80.1376 79.4614H37.3344C35.3158 79.4614 33.6794 81.0978 33.6794 83.1164V83.1181C33.6794 85.1367 35.3158 86.773 37.3344 86.773Z" fill="#B23EFF"/>
<path d="M0.351562 72.2556H26.4478V93.9766H0.351562V72.2556Z" fill="#B23EFF"/>
<path d="M6.83838 88.1498C6.07793 88.1498 5.46143 87.5335 5.46143 86.7729V79.4614C5.46143 78.7008 6.07793 78.0845 6.83838 78.0845C7.59882 78.0845 8.21533 78.7008 8.21533 79.4614V86.7729C8.21533 87.5333 7.59882 88.1498 6.83838 88.1498Z" fill="white"/>
<path d="M13.2261 88.1498C12.4656 88.1498 11.8491 87.5335 11.8491 86.7729V79.4614C11.8491 78.7008 12.4656 78.0845 13.2261 78.0845C13.9865 78.0845 14.603 78.7008 14.603 79.4614V86.7729C14.603 87.5333 13.9865 88.1498 13.2261 88.1498Z" fill="white"/>
<path d="M19.6133 88.1498C18.8528 88.1498 18.2363 87.5335 18.2363 86.7729V79.4614C18.2363 78.7008 18.8528 78.0845 19.6133 78.0845C20.3737 78.0845 20.9902 78.7008 20.9902 79.4614V86.7729C20.9902 87.5333 20.3737 88.1498 19.6133 88.1498Z" fill="white"/>
<path d="M49.4628 16.4008C49.1051 16.4008 48.7477 16.2624 48.478 15.9864L46.0578 13.5108C44.0033 11.4564 40.6428 11.4568 38.5771 13.522C38.5683 13.5308 38.5593 13.5397 38.5502 13.5483L36.5174 15.4729C35.9652 15.9958 35.0936 15.9719 34.5708 15.4198C34.0479 14.8676 34.0716 13.9961 34.6238 13.473L36.6435 11.5605C39.7837 8.4352 44.8812 8.43979 48.0157 11.5743L50.447 14.0611C50.9787 14.6049 50.9688 15.4768 50.425 16.0083C50.1573 16.2702 49.81 16.4008 49.4628 16.4008Z" fill="#677A8F"/>
<path d="M25.7626 24.6859C32.1993 24.6859 37.4173 19.4679 37.4173 13.0312C37.4173 6.59446 32.1993 1.37646 25.7626 1.37646C19.3259 1.37646 14.1079 6.59446 14.1079 13.0312C14.1079 19.4679 19.3259 24.6859 25.7626 24.6859Z" fill="#87DDF5"/>
<path d="M25.7627 1.37646C24.4792 1.37646 23.2456 1.58686 22.0908 1.97021C26.7277 3.50891 30.0737 7.87788 30.0737 13.0312C30.0737 18.1845 26.7277 22.5536 22.0908 24.0923C23.2456 24.4755 24.4792 24.6861 25.7627 24.6861C32.1995 24.6861 37.4174 19.468 37.4174 13.0314C37.4174 6.59456 32.1995 1.37646 25.7627 1.37646Z" fill="#64D5F5"/>
<path d="M25.7629 26.064C18.5772 26.064 12.7312 20.218 12.7312 13.0323C12.7312 5.84666 18.5772 0.000488281 25.7629 0.000488281C32.9485 0.000488281 38.7945 5.84648 38.7945 13.0322C38.7945 20.2178 32.9485 26.064 25.7629 26.064ZM25.7629 2.75439C20.0957 2.75439 15.4851 7.36498 15.4851 13.0322C15.4851 18.6993 20.0957 23.3099 25.7629 23.3099C31.43 23.3099 36.0406 18.6993 36.0406 13.0322C36.0406 7.36498 31.43 2.75439 25.7629 2.75439Z" fill="#677A8F"/>
<path d="M25.7627 21.1062C25.0022 21.1062 24.3857 20.4899 24.3857 19.7292C24.3857 18.9686 25.0022 18.3523 25.7627 18.3523C28.6965 18.3523 31.0834 15.9654 31.0834 13.0317C31.0834 12.2711 31.6999 11.6548 32.4604 11.6548C33.2208 11.6548 33.8373 12.2711 33.8373 13.0317C33.8373 17.4839 30.215 21.1062 25.7627 21.1062Z" fill="white"/>
<path d="M58.883 24.6864C65.3197 24.6864 70.5377 19.4684 70.5377 13.0317C70.5377 6.59494 65.3197 1.37695 58.883 1.37695C52.4463 1.37695 47.2283 6.59494 47.2283 13.0317C47.2283 19.4684 52.4463 24.6864 58.883 24.6864Z" fill="#87DDF5"/>
<path d="M58.8831 1.37695C57.5996 1.37695 56.366 1.58735 55.2112 1.9707C59.848 3.50939 63.194 7.87837 63.194 13.0317C63.194 18.185 59.848 22.5541 55.2112 24.0928C56.366 24.476 57.5996 24.6866 58.8831 24.6866C65.3198 24.6866 70.5378 19.4685 70.5378 13.0318C70.5378 6.59505 65.3198 1.37695 58.8831 1.37695Z" fill="#64D5F5"/>
<path d="M58.883 26.0635C51.6971 26.0635 45.8513 20.2175 45.8513 13.0318C45.8513 5.84617 51.6971 0 58.883 0C66.0688 0 71.9146 5.84599 71.9146 13.0317C71.9146 20.2173 66.0687 26.0635 58.883 26.0635ZM58.883 2.7539C53.2158 2.7539 48.6052 7.36449 48.6052 13.0317C48.6052 18.6988 53.2158 23.3094 58.883 23.3094C64.5502 23.3094 69.1607 18.6988 69.1607 13.0317C69.1607 7.36449 64.5502 2.7539 58.883 2.7539Z" fill="#677A8F"/>
<path d="M58.8831 21.1062C58.1224 21.1062 57.5061 20.4899 57.5061 19.7292C57.5061 18.9686 58.1224 18.3523 58.8831 18.3523C61.8169 18.3523 64.2038 15.9654 64.2038 13.0317C64.2038 12.2711 64.8201 11.6548 65.5807 11.6548C66.3414 11.6548 66.9577 12.2711 66.9577 13.0317C66.9577 17.4839 63.3354 21.1062 58.8831 21.1062Z" fill="white"/>
</svg>
