<svg width="98" height="78" viewBox="0 0 98 78" fill="none" xmlns="http://www.w3.org/2000/svg">
<path d="M94.6192 21.3277H84.9486V17.5174H91.7529C93.6201 17.5174 95.1333 16.0039 95.1333 14.137C95.1333 12.27 93.6201 10.7565 91.7529 10.7565H84.9486V6.9464H94.6192C96.4864 6.9464 97.9996 5.43295 97.9996 3.56597C97.9996 1.699 96.4864 0.185547 94.6192 0.185547H81.5682C79.701 0.185547 78.1877 1.699 78.1877 3.56597V24.7079C78.1877 26.5749 79.701 28.0884 81.5682 28.0884H94.6192C96.4864 28.0884 97.9996 26.5749 97.9996 24.7079C97.9994 22.8412 96.4864 21.3277 94.6192 21.3277Z" fill="white"/>
<path d="M97.9993 24.7068C97.9993 26.5742 96.487 28.0886 94.6196 28.0886H90.7056C92.5729 28.0886 94.0852 26.5742 94.0852 24.7068C94.0852 22.8394 92.5729 21.3271 90.7056 21.3271H94.6196C96.487 21.3271 97.9993 22.8396 97.9993 24.7068Z" fill="#F8F9FA"/>
<path d="M91.2204 14.1365C91.2204 12.2691 89.706 10.7568 87.8386 10.7568H91.7527C93.62 10.7568 95.1324 12.2691 95.1324 14.1365C95.1324 16.0039 93.62 17.5181 91.7527 17.5181H87.8386C89.706 17.5181 91.2204 16.0037 91.2204 14.1365Z" fill="#F8F9FA"/>
<path d="M94.0852 3.56521C94.0852 1.69785 92.5729 0.185547 90.7056 0.185547H94.6196C96.487 0.185547 97.9993 1.69785 97.9993 3.56521C97.9993 5.43257 96.487 6.94697 94.6196 6.94697H90.7056C92.5729 6.94678 94.0852 5.43257 94.0852 3.56521Z" fill="#F8F9FA"/>
<path d="M43.667 0.000244141C41.7999 0.000244141 40.2866 1.51369 40.2866 3.38067V24.7081C40.2866 26.5751 41.7999 28.0885 43.667 28.0885C45.5342 28.0885 47.0475 26.5751 47.0475 24.7081V3.38067C47.0475 1.51369 45.5342 0.000244141 43.667 0.000244141Z" fill="white"/>
<path d="M47.0477 3.37985V24.7071C47.0477 26.5745 45.5333 28.0889 43.668 28.0889C42.9365 28.0889 42.2622 27.8582 41.71 27.4637C42.5717 26.8524 43.1336 25.8448 43.1336 24.7071V3.37985C43.1336 2.24213 42.5717 1.23648 41.71 0.625133C42.262 0.230836 42.9365 0 43.668 0C45.5333 0 47.0477 1.51249 47.0477 3.37985Z" fill="#F8F9FA"/>
<path d="M72.3456 1.24165C71.1643 -0.204613 69.0339 -0.417649 67.5894 0.762562L59.9435 7.00949V3.38042C59.9435 1.51345 58.4302 0 56.563 0C54.6959 0 53.1826 1.51345 53.1826 3.38042V24.7079C53.1826 26.5748 54.6959 28.0883 56.563 28.0883C58.4302 28.0883 59.9435 26.5748 59.9435 24.7079V15.7401L60.3249 15.4283L66.8169 26.4261C67.4476 27.4945 68.5744 28.0885 69.731 28.0885C70.315 28.0885 70.907 27.9371 71.4462 27.6186C73.054 26.6696 73.5881 24.5968 72.6391 22.9892L65.6213 11.1006L71.8665 5.9981C73.3126 4.81674 73.527 2.68734 72.3456 1.24165Z" fill="white"/>
<path d="M72.6399 22.9895C73.5883 24.5966 73.0539 26.6689 71.447 27.6195C70.9678 27.9014 70.4473 28.0532 69.9267 28.0809C70.1219 27.2292 69.9996 26.2984 69.5246 25.4958L61.7161 12.1171C61.371 11.5314 61.5052 10.7841 62.0297 10.3542L70.3309 3.3168C71.1907 2.61491 71.6145 1.57577 71.5713 0.546387C71.8572 0.731668 72.1194 0.964417 72.3463 1.24253C73.5274 2.68784 73.3125 4.81742 71.8672 5.99859L65.6224 11.1017L72.6399 22.9895Z" fill="#F8F9FA"/>
<path d="M39.5549 21.4033V57.7402H20.1463C18.0699 57.7402 16.031 57.1861 14.2406 56.1351L13.3435 55.6085C11.5393 54.5496 9.48456 53.9915 7.39249 53.9915H1.97187C0.88334 53.9917 0 53.1084 0 52.0198V23.3751C0 22.2847 0.88334 21.4033 1.97187 21.4033H10.8156C13.5525 21.4033 16.2381 20.5199 18.3717 18.8043C20.2883 17.2643 21.992 14.8981 21.992 11.3548V4.0452C21.992 2.92719 22.4435 1.91753 23.177 1.18597C23.9086 0.454418 24.9201 0.000976562 26.0362 0.000976562C30.0588 0.000976562 33.3202 3.26043 33.3202 7.28303V21.4033H39.5549Z" fill="#F69583"/>
<path d="M33.3195 21.4025V7.28301C33.3195 3.26003 30.0575 0 26.0365 0C25.1663 0 24.3613 0.274094 23.7021 0.741699C26.1171 1.92612 27.7806 4.41 27.7806 7.28301V19.8096C27.7806 20.718 27.313 21.5747 26.5255 22.0276C25.1288 22.8307 24.1775 24.3275 24.2099 26.0322C24.2566 28.5002 26.2719 30.4864 28.7512 30.4864H27.7036C25.1572 30.4864 23.0119 32.5703 23.0601 35.1163C23.1068 37.5843 25.1221 39.5708 27.6014 39.5708H25.9789C23.4324 39.5708 21.2871 41.6546 21.3354 44.2007C21.3821 46.6687 23.3974 48.6551 25.8767 48.6551H23.6787C21.1323 48.6551 18.987 50.7389 19.0352 53.285C19.0819 55.753 21.0972 57.7394 23.5765 57.7394H35.5055V21.4025H33.3195Z" fill="#EA806F"/>
<path d="M10.8152 27.2787L10.5871 49.7563C10.5871 52.3782 11.9767 54.8066 14.2401 56.1348L13.345 55.6076C11.5397 54.5497 9.48514 53.9901 7.39211 53.9901H1.97187C0.882766 53.9901 0 53.1073 0 52.0182V23.3742C0 22.2851 0.882766 21.4024 1.97187 21.4024H10.8152C12.4137 21.4024 13.9929 21.1015 15.4534 20.5093V20.5112C12.7394 21.5616 10.8152 24.195 10.8152 27.2787Z" fill="#EA806F"/>
<path d="M44.6404 21.4023H33.4839C30.9374 21.4023 28.7922 23.4862 28.8404 26.0323C28.8871 28.5003 30.9024 30.4865 33.3817 30.4865H44.6404C46.7574 30.4865 48.4735 28.7703 48.4735 26.6534V25.2354C48.4737 23.1185 46.7576 21.4023 44.6404 21.4023Z" fill="#FDB0A0"/>
<path d="M48.474 25.2354V26.6538C48.474 28.7696 46.7567 30.4869 44.6409 30.4869H37.0999C39.2158 30.4869 40.933 28.7696 40.933 26.6538V25.2354C40.933 23.1177 39.2157 21.4023 37.0999 21.4023H44.6409C46.7567 21.4023 48.474 23.1177 48.474 25.2354Z" fill="#F89F8E"/>
<path d="M43.4906 30.4868H32.3343C29.7878 30.4868 27.6425 32.5707 27.6907 35.1167C27.7374 37.5847 29.7528 39.571 32.232 39.571H43.4907C45.6077 39.571 47.3239 37.8548 47.3239 35.7379V34.3199C47.3239 32.203 45.6077 30.4868 43.4906 30.4868Z" fill="#FDB0A0"/>
<path d="M47.3239 34.3204V35.7387C47.3239 37.8547 45.6066 39.5718 43.4908 39.5718H31.8091C33.9251 39.5718 35.6422 37.8545 35.6422 35.7387V34.3204C35.6422 32.2025 33.9249 30.4873 31.8091 30.4873H43.4908C45.6068 30.4873 47.3239 32.2027 47.3239 34.3204Z" fill="#F89F8E"/>
<path d="M41.7657 39.5706H30.6092C28.0627 39.5706 25.9174 41.6544 25.9656 44.2005C26.0123 46.6685 28.0277 48.6547 30.5069 48.6547H41.7657C43.8826 48.6547 45.5988 46.9385 45.5988 44.8216V43.4037C45.5988 41.2867 43.8826 39.5706 41.7657 39.5706Z" fill="#FDB0A0"/>
<path d="M45.5991 43.4049V44.8213C45.5991 46.9392 43.8818 48.6544 41.766 48.6544H32.4504C34.5664 48.6544 36.2835 46.939 36.2835 44.8213V43.4049C36.2835 41.287 34.5662 39.5718 32.4504 39.5718H41.766C43.882 39.5716 45.5991 41.287 45.5991 43.4049Z" fill="#F89F8E"/>
<path d="M40.424 48.655H28.3094C25.7629 48.655 23.6176 50.7389 23.6658 53.285C23.7125 55.7529 25.7279 57.7392 28.2071 57.7392H39.4658C41.5828 57.7392 43.2989 56.023 43.2989 53.9061V51.5299C43.2989 49.9422 42.0119 48.655 40.424 48.655Z" fill="#FDB0A0"/>
<path d="M43.2994 51.5287V53.9052C43.2994 56.0231 41.5821 57.7383 39.4663 57.7383H33.1084C35.2244 57.7383 36.9415 56.0229 36.9415 53.9052V51.5287C36.9415 49.9418 35.6535 48.6538 34.0666 48.6538H40.4245C42.0115 48.6538 43.2994 49.9418 43.2994 51.5287Z" fill="#F89F8E"/>
<path d="M33.32 7.58789V13.0321C32.4701 13.667 31.4191 14.0436 30.2795 14.0436H28.2623C27.444 14.0436 26.7834 13.3812 26.7834 12.5648C26.7834 11.7485 27.444 11.086 28.2623 11.086H30.2795C31.4547 11.086 32.4131 10.1298 32.4131 8.95243C32.4129 8.33916 32.7877 7.81088 33.32 7.58789Z" fill="#C4715C"/>
<path d="M97.4219 59.8305L80.5668 76.6837C79.3265 77.9259 77.201 77.0466 77.201 75.2897V69.2795H19.2353C18.1468 69.2795 17.2634 68.3962 17.2634 67.3076V49.5631C17.2634 48.4746 18.1468 47.5913 19.2353 47.5913H77.201V41.5811C77.201 39.8242 79.3265 38.9449 80.5668 40.1871L97.4219 57.0402C98.1929 57.8114 98.1929 59.0595 97.4219 59.8305Z" fill="#27E19D"/>
<path d="M97.4219 59.8297L80.5668 76.6828C79.3265 77.925 77.2009 77.0457 77.2009 75.2888V72.3842L89.7576 59.8297C90.5285 59.0587 90.5285 57.8105 89.7576 57.0395L77.2009 44.485V41.5806C77.2009 39.8237 79.3265 38.9444 80.5668 40.1866L97.4219 57.0397C98.1928 57.8105 98.1928 59.0587 97.4219 59.8297Z" fill="#1EC186"/>
<path d="M64.4827 47.5908C62.3768 52.3942 57.5794 55.7482 51.9991 55.7482C46.4189 55.7482 41.6215 52.3942 39.5156 47.5908H64.4827Z" fill="#1EC186"/>
<path d="M51.9994 50.38C59.5256 50.38 65.6268 44.2788 65.6268 36.7526C65.6268 29.2264 59.5256 23.1252 51.9994 23.1252C44.4732 23.1252 38.3721 29.2264 38.3721 36.7526C38.3721 44.2788 44.4732 50.38 51.9994 50.38Z" fill="#FCB44D"/>
<path d="M65.6263 36.7525C65.6263 44.2797 59.5248 50.3794 51.9993 50.3794C47.6421 50.3794 43.7627 48.3348 41.2673 45.1519C43.2396 46.6411 45.6951 47.5223 48.3568 47.5223C54.8654 47.5223 60.1436 42.246 60.1436 35.7355C60.1436 29.2269 54.8654 23.9487 48.3568 23.9487C47.9551 23.9487 47.5571 23.9686 47.1644 24.0084C48.6661 23.4384 50.2965 23.1255 51.9993 23.1255C59.5248 23.1253 65.6263 29.2269 65.6263 36.7525Z" fill="#FB9927"/>
<path d="M50.0643 45.1506C49.8786 45.1506 49.6968 45.142 49.52 45.1251C47.1038 44.8962 45.3239 43.2448 44.9853 40.918C44.48 37.4444 46.802 35.5319 48.9274 34.165C47.7931 32.2349 47.8461 31.329 47.8672 30.9683C47.9933 28.8034 49.6618 27.1707 51.7483 27.1707C53.8898 27.1707 55.6319 28.9128 55.6319 31.0543C55.6319 32.0217 55.2405 32.9678 54.5003 33.7904C54.0993 34.2358 53.6256 34.6305 53.118 34.9959C53.7477 35.7866 54.4709 36.6194 55.2738 37.4809C55.3586 37.2715 55.4398 37.0553 55.5175 36.8309C55.7849 36.0592 56.6272 35.6501 57.3988 35.9175C58.1706 36.1849 58.5796 37.0273 58.3122 37.7989C58.0676 38.505 57.7943 39.1513 57.4978 39.7418C58.2163 40.4372 58.9762 41.1431 59.7711 41.853C60.3803 42.397 60.4332 43.3318 59.8892 43.9411C59.345 44.5503 58.41 44.603 57.8011 44.0592C57.1228 43.4536 56.4684 42.8499 55.8411 42.2516C54.028 44.3413 51.8609 45.1506 50.0643 45.1506ZM50.6146 36.598C48.7419 37.7924 47.6604 38.7601 47.9125 40.4921C48.0519 41.4507 48.7572 42.0818 49.7992 42.1805C51.0035 42.2942 52.4724 41.6712 53.7284 40.1497C52.5377 38.9111 51.4891 37.716 50.6146 36.598ZM51.7483 30.1283C51.1775 30.1283 50.8493 30.6372 50.82 31.1402C50.82 31.1437 50.8274 31.5451 51.4204 32.5742C51.7655 32.3241 52.0676 32.0718 52.3019 31.8117C52.549 31.5372 52.6741 31.2823 52.6741 31.0543C52.6741 30.5436 52.2588 30.1283 51.7483 30.1283Z" fill="#EEF4F5"/>
<path d="M74.8332 60.8116H71.5531V59.9146H73.7879C74.6047 59.9146 75.2667 59.2526 75.2667 58.4358C75.2667 57.6191 74.6047 56.957 73.7879 56.957H71.5531V56.0599H74.8332C75.6499 56.0599 76.312 55.3978 76.312 54.5811C76.312 53.7644 75.6499 53.1023 74.8332 53.1023H70.0743C69.2575 53.1023 68.5955 53.7644 68.5955 54.5811V62.2906C68.5955 63.1073 69.2575 63.7694 70.0743 63.7694H74.8332C75.6499 63.7694 76.312 63.1073 76.312 62.2906C76.312 61.4736 75.6499 60.8116 74.8332 60.8116Z" fill="#0D9E66"/>
<path d="M29.8452 56.0599H32.6769C33.4936 56.0599 34.1557 55.3978 34.1557 54.5811C34.1557 53.7644 33.4936 53.1023 32.6769 53.1023H29.8452C27.967 53.1023 26.439 54.6303 26.439 56.5086C26.439 58.3868 27.967 59.9148 29.8452 59.9148H30.7494C30.9967 59.9148 31.1981 60.116 31.1981 60.3633C31.1981 60.6106 30.9969 60.8118 30.7494 60.8118H27.918C27.1012 60.8118 26.4392 61.4738 26.4392 62.2906C26.4392 63.1073 27.1012 63.7694 27.918 63.7694H30.7494C32.6277 63.7694 34.1557 62.2414 34.1557 60.3631C34.1557 58.4848 32.6277 56.9568 30.7494 56.9568H29.8452C29.5979 56.9568 29.3968 56.7557 29.3968 56.5082C29.3966 56.2613 29.5979 56.0599 29.8452 56.0599Z" fill="#0D9E66"/>
<path d="M43.0264 53.1023C42.2096 53.1023 41.5476 53.7644 41.5476 54.5811V56.957H39.7464V54.5811C39.7464 53.7644 39.0844 53.1023 38.2676 53.1023C37.4509 53.1023 36.7888 53.7644 36.7888 54.5811V62.2906C36.7888 63.1073 37.4509 63.7694 38.2676 63.7694C39.0844 63.7694 39.7464 63.1073 39.7464 62.2906V59.9148H41.5476V62.2906C41.5476 63.1073 42.2096 63.7694 43.0264 63.7694C43.8431 63.7694 44.5052 63.1073 44.5052 62.2906V54.5811C44.5052 53.7644 43.8431 53.1023 43.0264 53.1023Z" fill="#0D9E66"/>
<path d="M51.3755 53.1023C49.248 53.1023 47.5171 54.8332 47.5171 56.9607V62.2908C47.5171 63.1075 48.1792 63.7696 48.9959 63.7696C49.8126 63.7696 50.4747 63.1075 50.4747 62.2908V60.9008H52.2758V62.2908C52.2758 63.1075 52.9379 63.7696 53.7546 63.7696C54.5714 63.7696 55.2334 63.1075 55.2334 62.2908V56.9607C55.2338 54.8332 53.5031 53.1023 51.3755 53.1023ZM52.2762 57.943H50.4751V56.9607C50.4751 56.464 50.8791 56.0601 51.3757 56.0601C51.8722 56.0601 52.2762 56.4642 52.2762 56.9607V57.943Z" fill="#0D9E66"/>
<path d="M64.336 59.7259C65.2082 59.0479 65.7727 57.992 65.7727 56.8043C65.7727 54.7631 64.1119 53.1023 62.0705 53.1023H59.535C58.7182 53.1023 58.0562 53.7644 58.0562 54.5811V62.2906C58.0562 63.1073 58.7182 63.7694 59.535 63.7694C60.3517 63.7694 61.0138 63.1073 61.0138 62.2906V60.5063H61.2888L63.0718 63.1232C63.3579 63.5435 63.8225 63.7696 64.2952 63.7696C64.582 63.7696 64.8717 63.6863 65.1265 63.5127C65.8016 63.0527 65.976 62.1328 65.516 61.4579L64.336 59.7259ZM62.0707 57.5487H62.0669C62.0648 57.5487 62.0629 57.5487 62.0608 57.5487H61.0138V56.0601H62.0707C62.4811 56.0601 62.8151 56.3939 62.8151 56.8043C62.8151 57.2147 62.4813 57.5487 62.0707 57.5487Z" fill="#0D9E66"/>
</svg>
