<svg width="78" height="84" viewBox="0 0 78 84" fill="none" xmlns="http://www.w3.org/2000/svg">
<path d="M53.625 14.8916V73.5541L48.75 83.4666H0V14.8916H53.625Z" fill="#FDBF00"/>
<path d="M53.625 14.8916V73.5541L48.75 83.4666H26.8125V14.8916H53.625Z" fill="#FF9100"/>
<path d="M39 46.7417C39 43.5728 36.9527 40.8917 34.125 39.8681V34.5542H29.25V39.4292H24.375V34.5542H19.5V39.4292H14.625V44.3042H19.5V58.9292H14.625V63.8042H19.5V68.6792H24.375V63.8042H29.25V68.6792H34.125V63.3653C36.9527 62.3417 39 59.6606 39 56.4917C39 54.5904 38.2686 52.9331 37.0987 51.6167C38.2686 50.3003 39 48.6429 39 46.7417ZM31.6875 58.9292H24.375V54.0542H31.6875C33.0527 54.0542 34.125 55.1265 34.125 56.4917C34.125 57.8569 33.0527 58.9292 31.6875 58.9292ZM31.6875 49.1792H24.375V44.3042H31.6875C33.0527 44.3042 34.125 45.3765 34.125 46.7417C34.125 48.1069 33.0527 49.1792 31.6875 49.1792Z" fill="#FF9100"/>
<path d="M37.0988 51.6162C38.2688 52.9326 39 54.59 39 56.4912C39 59.6601 36.9527 62.3412 34.125 63.3648V68.6787H29.25V63.8037H26.8125V58.9287H31.6875C33.0527 58.9287 34.125 57.8564 34.125 56.4912C34.125 55.126 33.0527 54.0537 31.6875 54.0537H26.8125V49.1787H31.6875C33.0527 49.1787 34.125 48.1064 34.125 46.7412C34.125 45.376 33.0527 44.3037 31.6875 44.3037H26.8125V39.4287H29.25V34.5537H34.125V39.8676C36.9527 40.8912 39 43.5723 39 46.7412C39 48.6425 38.2686 50.2998 37.0988 51.6162Z" fill="#FF641A"/>
<path d="M65.8125 44.3041C63.9112 44.3041 62.2539 45.0352 60.9375 46.2054C59.6211 45.0351 57.9637 44.3041 56.0625 44.3041C52.0161 44.3041 48.75 47.5702 48.75 51.6166C48.75 55.6627 52.0161 58.9291 56.0625 58.9291H65.8125C69.8589 58.9291 73.125 55.6627 73.125 51.6166C73.125 47.5702 69.8589 44.3041 65.8125 44.3041ZM58.5 54.0541H56.0625C54.6973 54.0541 53.625 52.9815 53.625 51.6166C53.625 50.2515 54.6973 49.1791 56.0625 49.1791C57.4277 49.1791 58.5 50.2515 58.5 51.6166V54.0541ZM65.8125 54.0541H63.375V51.6166C63.375 50.2515 64.4473 49.1791 65.8125 49.1791C67.1777 49.1791 68.25 50.2515 68.25 51.6166C68.25 52.9815 67.1777 54.0541 65.8125 54.0541Z" fill="#FDBF00"/>
<path d="M65.8125 44.3041C63.9112 44.3041 62.2539 45.0352 60.9375 46.2054V58.9291H65.8125C69.8589 58.9291 73.125 55.6627 73.125 51.6166C73.125 47.5702 69.8589 44.3041 65.8125 44.3041ZM65.8125 54.0541H63.375V51.6166C63.375 50.2515 64.4473 49.1791 65.8125 49.1791C67.1777 49.1791 68.25 50.2515 68.25 51.6166C68.25 52.9815 67.1777 54.0541 65.8125 54.0541Z" fill="#FF9100"/>
<path d="M48.75 63.8041V83.4666H73.125V63.8041H48.75Z" fill="#00C8C8"/>
<path d="M60.9375 63.8041H73.125V83.4666H60.9375V63.8041Z" fill="#1CADB5"/>
<path d="M78 54.0541V68.6791H43.875V54.0541H58.5L60.9375 58.9291L63.375 54.0541H78Z" fill="#64E1DC"/>
<path d="M78 54.0541V68.6791H60.9375V58.9291L63.375 54.0541H78Z" fill="#00C8C8"/>
<path d="M58.5 54.0541H63.375V73.5541H58.5V54.0541Z" fill="#FDBF00"/>
<path d="M60.9375 54.0541H63.375V73.5541H60.9375V54.0541Z" fill="#FF9100"/>
<path d="M39 12.4541V24.8041H34.125V12.4541C34.125 8.40769 30.8589 5.1416 26.8125 5.1416C22.7661 5.1416 19.5 8.40769 19.5 12.4541V24.8041H14.625V12.4541C14.625 5.7266 20.085 0.266602 26.8125 0.266602C33.54 0.266602 39 5.7266 39 12.4541Z" fill="#537983"/>
<path d="M39 12.4541V24.8041H34.125V12.4541C34.125 8.40769 30.8589 5.1416 26.8125 5.1416V0.266602C33.54 0.266602 39 5.7266 39 12.4541Z" fill="#3E5959"/>
</svg>
