<svg width="326" height="326" viewBox="0 0 326 326" fill="none" xmlns="http://www.w3.org/2000/svg">
<path d="M236.105 220.105C256.274 199.935 266.394 173.468 266.394 147H163.071L236.105 220.105Z" fill="#F59300"/>
<path d="M266.394 147C266.394 120.532 256.274 94.0642 236.105 73.895L163.071 147H266.394Z" fill="white"/>
<path d="M163.071 250.394C189.538 250.394 216.006 240.274 236.175 220.105L163.071 147V250.394Z" fill="white"/>
<path d="M89.9661 220.104C110.135 240.273 136.603 250.393 163.071 250.393V147.07L89.9661 220.104Z" fill="#F59300"/>
<path d="M163.071 147H59.7478C59.7478 173.468 69.8678 199.935 90.037 220.105L163.071 147Z" fill="white"/>
<path d="M236.105 74.2888C215.935 54.1196 189.468 43.9996 163 43.9996V147.323L236.105 74.2888Z" fill="#F59300"/>
<path d="M89.966 73.895C69.7968 94.0642 59.6768 120.532 59.6768 147H163L89.966 73.895Z" fill="#F59300"/>
<path d="M163.071 43.6771C136.603 43.6771 110.135 53.7971 89.9661 73.9663L163.071 147.071V43.6771Z" fill="white"/>
<path d="M163.142 243.955C109.357 243.955 65.5508 200.219 65.5508 146.364C65.5508 92.5792 109.286 48.773 163.142 48.773C216.926 48.773 260.732 92.5084 260.732 146.364C260.732 200.148 216.926 243.955 163.142 243.955ZM163.142 54.4345C112.4 54.4345 71.1415 95.693 71.1415 146.435C71.1415 197.176 112.4 238.435 163.142 238.435C213.883 238.435 255.142 197.176 255.142 146.435C255.142 95.693 213.883 54.4345 163.142 54.4345Z" fill="#ECF4FF"/>
<g filter="url(#filter0_d_2_629)">
<path d="M163.071 262C99.5908 262 48 210.409 48 147C48 83.5908 99.5908 32 163 32C226.409 32 278 83.5908 278 147C278.071 210.409 226.48 262 163.071 262ZM163.071 49.6215C109.357 49.6215 65.6923 93.2862 65.6923 147C65.6923 200.714 109.357 244.378 163.071 244.378C216.785 244.378 260.449 200.714 260.449 147C260.378 93.3569 216.714 49.6215 163.071 49.6215Z" fill="#0063F5"/>
</g>
<path d="M167.175 253.649C166.539 255.984 164.203 257.4 161.868 256.763C159.603 256.126 158.188 253.72 158.825 251.314C159.462 248.978 161.797 247.563 164.132 248.2C166.468 248.837 167.812 251.314 167.175 253.649ZM164.203 37.3782C161.939 36.7413 159.532 38.1567 158.896 40.4921C158.259 42.8275 159.603 45.3044 161.939 45.9413C164.203 46.5782 166.609 45.1629 167.246 42.8275C167.812 40.4921 166.468 38.0152 164.203 37.3782ZM269.579 142.895C267.243 142.258 264.766 143.603 264.129 145.938C263.492 148.203 264.908 150.609 267.243 151.246C269.579 151.883 272.056 150.538 272.692 148.203C273.329 145.938 271.985 143.532 269.579 142.895ZM58.757 142.895C56.4217 142.258 53.9447 143.603 53.3078 145.938C52.6709 148.203 54.0863 150.609 56.4217 151.246C58.757 151.883 61.234 150.538 61.8709 148.203C62.5078 145.938 61.1632 143.532 58.757 142.895ZM239.714 76.3013C241.837 75.0982 242.615 72.409 241.412 70.3567C240.209 68.3044 237.591 67.5967 235.468 68.7998C233.345 70.0028 232.566 72.6921 233.769 74.7444C234.902 76.7967 237.591 77.5044 239.714 76.3013ZM235.326 217.769C233.274 218.972 232.566 221.591 233.769 223.714C234.972 225.837 237.662 226.615 239.714 225.412C241.766 224.209 242.474 221.591 241.271 219.467C240.139 217.344 237.449 216.637 235.326 217.769ZM86.2863 68.729C84.234 69.9321 83.5263 72.5505 84.7293 74.6736C85.9324 76.7967 88.6217 77.5752 90.674 76.3721C92.7263 75.169 93.434 72.5505 92.2309 70.4275C91.0278 68.3044 88.3386 67.5259 86.2863 68.729ZM86.357 217.84C84.234 219.043 83.4555 221.732 84.6586 223.784C85.8617 225.837 88.4801 226.544 90.6032 225.341C92.7263 224.138 93.5047 221.449 92.3017 219.397C91.1693 217.344 88.4801 216.637 86.357 217.84Z" fill="#ECF4FF"/>
<path d="M163 162.427C171.794 162.427 178.923 155.298 178.923 146.504C178.923 137.71 171.794 130.581 163 130.581C154.206 130.581 147.077 137.71 147.077 146.504C147.077 155.298 154.206 162.427 163 162.427Z" fill="#0063F5"/>
<path d="M155.236 154.269C150.962 149.996 150.962 143.066 155.236 138.74C159.509 134.467 166.439 134.467 170.764 138.74C175.037 143.013 175.037 149.944 170.764 154.269C166.491 158.542 159.561 158.542 155.236 154.269Z" fill="#ECF4FF"/>
<g filter="url(#filter1_d_2_629)">
<path d="M187.654 133.544L191.662 118.551L176.641 122.589L180.462 126.403L171.846 135.002L175.18 138.367L183.833 129.73L187.654 133.544Z" fill="#0063F5"/>
</g>
<path d="M206.884 123.144C207.471 122.901 208.054 122.928 208.634 123.223C209.351 123.585 209.947 124.337 210.42 125.48C210.86 126.541 210.984 127.438 210.794 128.168C210.602 128.896 210.208 129.383 209.613 129.63C209.038 129.868 208.462 129.834 207.884 129.527C207.16 129.14 206.569 128.393 206.11 127.286C205.674 126.233 205.555 125.302 205.751 124.491C205.908 123.841 206.286 123.392 206.884 123.144ZM207.046 123.458C206.649 123.622 206.418 123.942 206.354 124.416C206.288 124.887 206.503 125.721 206.999 126.918C207.484 128.088 207.921 128.821 208.312 129.117C208.705 129.412 209.096 129.479 209.484 129.319C209.875 129.157 210.101 128.852 210.162 128.404C210.233 127.87 210.033 127.034 209.561 125.894C209.073 124.715 208.628 123.974 208.228 123.671C207.828 123.368 207.434 123.297 207.046 123.458ZM212.301 120.552L217.714 118.31L218.889 120.777L218.578 120.906C217.759 119.508 216.917 118.989 216.051 119.347C215.876 119.42 215.769 119.5 215.727 119.587C215.689 119.673 215.699 119.786 215.756 119.924L217.965 125.256C218.009 125.365 218.074 125.431 218.158 125.456C218.243 125.481 218.357 125.464 218.501 125.404L219.173 125.125L219.314 125.464L216.214 126.748L216.074 126.409L216.841 126.092C216.943 126.049 217.011 125.991 217.044 125.918C217.077 125.844 217.076 125.765 217.041 125.681L214.801 120.272C214.753 120.158 214.683 120.087 214.59 120.058C214.496 120.027 214.373 120.043 214.219 120.106C213.783 120.287 213.505 120.643 213.384 121.176C213.284 121.616 213.333 122.223 213.53 122.997L213.201 123.134L212.301 120.552ZM220.465 119.887C221.034 119.651 221.596 119.66 222.151 119.912C222.709 120.161 223.126 120.62 223.404 121.291C223.596 121.754 223.672 122.186 223.634 122.586C223.597 122.981 223.457 123.341 223.214 123.663C222.973 123.985 222.668 124.222 222.298 124.376C221.751 124.602 221.2 124.587 220.646 124.33C220.096 124.072 219.683 123.612 219.409 122.951C219.134 122.286 219.101 121.667 219.311 121.094C219.521 120.521 219.906 120.118 220.465 119.887ZM220.598 120.207C220.261 120.346 220.048 120.614 219.958 121.011C219.868 121.404 219.959 121.93 220.232 122.589C220.509 123.26 220.819 123.706 221.161 123.927C221.506 124.147 221.848 124.187 222.188 124.046C222.54 123.9 222.76 123.628 222.848 123.228C222.939 122.827 222.839 122.275 222.548 121.571C222.277 120.919 221.974 120.492 221.636 120.289C221.302 120.086 220.956 120.059 220.598 120.207ZM222.058 116.51L223.641 115.765L225.553 120.38L226.434 118.614C226.517 118.442 226.541 118.312 226.505 118.225C226.474 118.15 226.41 118.108 226.315 118.098C226.173 118.086 225.968 118.132 225.701 118.236L225.57 117.92L227.821 116.988L227.952 117.304C227.517 117.512 227.225 117.77 227.078 118.078L226.465 119.341L228.936 120.854C229.086 120.944 229.28 120.939 229.518 120.841L229.752 120.744L229.892 121.082L227.583 122.039L227.442 121.7L227.672 121.605C227.844 121.534 227.952 121.472 227.997 121.418C228.044 121.363 228.059 121.314 228.042 121.272C228.025 121.23 227.992 121.194 227.945 121.165L226.134 120.033L225.738 120.826L226.181 121.895C226.217 121.983 226.272 122.035 226.347 122.054C226.452 122.077 226.576 122.059 226.721 121.999L227.014 121.878L227.154 122.216L224.885 123.156L224.745 122.818L225.11 122.666C225.26 122.604 225.359 122.526 225.405 122.433C225.451 122.34 225.452 122.241 225.408 122.136L223.248 116.921C223.192 116.786 223.107 116.705 222.994 116.678C222.83 116.64 222.642 116.665 222.428 116.753L222.198 116.849L222.058 116.51ZM233.472 117.157L230.445 118.411C230.727 119.048 231.035 119.453 231.371 119.624C231.753 119.815 232.144 119.827 232.544 119.661C233.133 119.417 233.468 118.886 233.548 118.067L233.893 118.072C233.808 119.108 233.35 119.798 232.52 120.141C231.955 120.376 231.394 120.368 230.836 120.12C230.282 119.871 229.873 119.427 229.609 118.789C229.325 118.104 229.285 117.472 229.489 116.894C229.696 116.312 230.077 115.905 230.633 115.675C231.042 115.505 231.439 115.464 231.824 115.552C232.209 115.639 232.558 115.848 232.872 116.18C233.092 116.413 233.292 116.739 233.472 117.157ZM230.313 118.091L232.144 117.332C232.253 117.287 232.322 117.216 232.352 117.119C232.381 117.019 232.359 116.88 232.285 116.703C232.148 116.372 231.928 116.134 231.625 115.988C231.324 115.841 231.034 115.826 230.754 115.942C230.442 116.071 230.233 116.321 230.13 116.692C230.029 117.061 230.09 117.528 230.313 118.091ZM233.239 114.744L234.606 114.077C234.773 114.318 234.944 114.61 235.118 114.954C235.18 114.568 235.307 114.246 235.499 113.987C235.695 113.726 235.954 113.529 236.279 113.394C236.559 113.279 236.817 113.237 237.052 113.27C237.286 113.3 237.51 113.41 237.723 113.6C237.935 113.79 238.103 114.033 238.225 114.327L239.077 116.384C239.14 116.538 239.22 116.633 239.317 116.671C239.412 116.705 239.541 116.689 239.704 116.622L240.001 116.498L240.142 116.837L237.913 117.76L237.773 117.421L237.985 117.334C238.183 117.251 238.309 117.162 238.361 117.067C238.413 116.971 238.413 116.86 238.36 116.734L237.611 114.925C237.448 114.531 237.267 114.264 237.068 114.125C236.787 113.924 236.476 113.894 236.133 114.036C235.793 114.177 235.566 114.432 235.45 114.8C235.338 115.167 235.373 115.57 235.555 116.009L236.203 117.575C236.267 117.728 236.347 117.824 236.443 117.861C236.542 117.894 236.672 117.877 236.835 117.81L237.128 117.689L237.268 118.027L235.03 118.954L234.89 118.615L235.183 118.494C235.331 118.433 235.43 118.357 235.48 118.265C235.533 118.173 235.541 118.081 235.504 117.991L234.373 115.262C234.299 115.082 234.192 114.965 234.054 114.913C233.92 114.86 233.76 114.871 233.577 114.947L233.36 115.037L233.239 114.744Z" fill="black"/>
<path d="M211.236 162.217L208.904 167.847C208.869 167.931 208.873 168.008 208.914 168.079C208.975 168.178 209.069 168.254 209.195 168.306L210.07 168.668L209.93 169.007L206.687 167.663L206.827 167.325L207.576 167.635C207.732 167.7 207.863 167.712 207.968 167.671C208.074 167.627 208.153 167.543 208.204 167.42L209.966 163.166C210.002 163.078 209.998 162.99 209.954 162.902C209.909 162.813 209.833 162.746 209.725 162.701L208.723 162.286L208.852 161.975C209.347 162.109 209.76 162.187 210.093 162.209C210.427 162.227 210.739 162.202 211.029 162.131L211.236 162.217ZM216.393 163.867L221.806 166.109L220.892 168.685L220.581 168.556C220.991 166.989 220.763 166.026 219.896 165.667C219.722 165.595 219.589 165.575 219.498 165.608C219.41 165.642 219.337 165.728 219.28 165.866L217.071 171.198C217.027 171.307 217.025 171.4 217.067 171.477C217.109 171.554 217.202 171.623 217.347 171.682L218.019 171.961L217.879 172.299L214.78 171.015L214.92 170.677L215.687 170.995C215.789 171.037 215.878 171.044 215.953 171.015C216.028 170.987 216.083 170.93 216.118 170.846L218.359 165.437C218.406 165.323 218.407 165.223 218.361 165.137C218.317 165.048 218.218 164.972 218.065 164.908C217.629 164.728 217.18 164.783 216.717 165.074C216.336 165.314 215.941 165.778 215.533 166.465L215.204 166.329L216.393 163.867ZM222.637 169.17C223.205 169.405 223.596 169.809 223.811 170.38C224.029 170.95 224 171.57 223.722 172.241C223.53 172.704 223.279 173.063 222.969 173.319C222.663 173.573 222.31 173.728 221.909 173.784C221.512 173.841 221.129 173.793 220.759 173.64C220.211 173.413 219.833 173.013 219.623 172.44C219.416 171.868 219.449 171.251 219.723 170.59C219.998 169.925 220.413 169.464 220.967 169.208C221.521 168.951 222.077 168.938 222.637 169.17ZM222.504 169.49C222.167 169.351 221.827 169.389 221.483 169.606C221.141 169.821 220.833 170.257 220.561 170.915C220.283 171.586 220.187 172.121 220.272 172.519C220.36 172.918 220.574 173.188 220.914 173.329C221.266 173.475 221.614 173.438 221.959 173.218C222.307 172.999 222.626 172.538 222.918 171.834C223.188 171.181 223.276 170.664 223.18 170.283C223.087 169.903 222.862 169.638 222.504 169.49ZM226.15 167.909L227.797 168.501L225.886 173.116L227.757 172.49C227.938 172.428 228.046 172.353 228.082 172.266C228.113 172.191 228.099 172.116 228.038 172.041C227.945 171.933 227.768 171.82 227.506 171.705L227.637 171.389L229.888 172.321L229.757 172.637C229.302 172.477 228.914 172.453 228.592 172.567L227.265 173.027L227.942 175.844C227.985 176.013 228.125 176.147 228.363 176.245L228.597 176.343L228.457 176.681L226.148 175.724L226.288 175.386L226.518 175.481C226.689 175.552 226.81 175.585 226.879 175.578C226.952 175.573 226.997 175.549 227.014 175.507C227.032 175.465 227.034 175.417 227.022 175.362L226.541 173.282L225.701 173.562L225.258 174.632C225.222 174.719 225.223 174.795 225.263 174.861C225.321 174.952 225.422 175.027 225.566 175.087L225.859 175.208L225.719 175.547L223.45 174.607L223.59 174.269L223.955 174.42C224.106 174.482 224.23 174.497 224.329 174.463C224.427 174.43 224.498 174.361 224.541 174.256L226.702 169.041C226.758 168.905 226.755 168.788 226.694 168.689C226.605 168.546 226.454 168.431 226.24 168.342L226.01 168.247L226.15 167.909ZM233.764 176.437L230.737 175.184C230.486 175.833 230.418 176.337 230.534 176.695C230.669 177.1 230.937 177.386 231.337 177.551C231.926 177.795 232.539 177.656 233.174 177.134L233.415 177.382C232.622 178.054 231.811 178.218 230.981 177.874C230.415 177.64 230.023 177.238 229.805 176.668C229.589 176.1 229.614 175.497 229.878 174.859C230.162 174.174 230.58 173.699 231.134 173.435C231.691 173.169 232.248 173.151 232.805 173.382C233.214 173.551 233.524 173.803 233.734 174.137C233.945 174.47 234.043 174.865 234.031 175.322C234.021 175.642 233.932 176.014 233.764 176.437ZM230.87 174.863L232.701 175.622C232.81 175.667 232.909 175.666 232.999 175.618C233.09 175.568 233.172 175.454 233.246 175.277C233.383 174.946 233.396 174.622 233.284 174.304C233.175 173.988 232.981 173.772 232.702 173.656C232.389 173.526 232.065 173.556 231.729 173.745C231.397 173.935 231.11 174.308 230.87 174.863ZM235.306 174.566L236.744 175.061C236.692 175.349 236.606 175.676 236.486 176.043C236.802 175.814 237.12 175.676 237.439 175.629C237.761 175.583 238.085 175.627 238.41 175.761C238.689 175.877 238.901 176.03 239.044 176.22C239.189 176.407 239.269 176.642 239.285 176.927C239.301 177.212 239.248 177.502 239.126 177.797L238.274 179.854C238.21 180.007 238.199 180.131 238.241 180.226C238.284 180.318 238.387 180.397 238.549 180.465L238.847 180.588L238.707 180.926L236.478 180.003L236.618 179.665L236.83 179.753C237.029 179.835 237.18 179.861 237.285 179.83C237.389 179.799 237.467 179.721 237.52 179.594L238.269 177.785C238.432 177.391 238.493 177.075 238.451 176.835C238.395 176.495 238.195 176.254 237.852 176.112C237.512 175.971 237.171 175.99 236.83 176.169C236.491 176.349 236.23 176.659 236.048 177.098L235.4 178.664C235.336 178.817 235.326 178.941 235.367 179.036C235.413 179.129 235.518 179.209 235.68 179.276L235.973 179.398L235.833 179.736L233.595 178.809L233.736 178.471L234.029 178.592C234.176 178.653 234.3 178.669 234.4 178.64C234.503 178.613 234.573 178.554 234.611 178.463L235.741 175.734C235.816 175.554 235.823 175.396 235.762 175.262C235.705 175.129 235.584 175.024 235.401 174.948L235.184 174.859L235.306 174.566Z" fill="white"/>
<path d="M181.483 186.779L175.983 189.402C175.901 189.441 175.851 189.501 175.835 189.581C175.814 189.695 175.833 189.814 175.892 189.938L176.3 190.793L175.969 190.95L174.458 187.782L174.789 187.624L175.137 188.355C175.21 188.508 175.3 188.605 175.405 188.644C175.514 188.683 175.628 188.673 175.749 188.616L179.904 186.634C179.99 186.593 180.046 186.525 180.072 186.429C180.099 186.334 180.087 186.233 180.036 186.127L179.57 185.149L179.874 185.004C180.151 185.434 180.406 185.769 180.639 186.007C180.875 186.245 181.124 186.434 181.386 186.576L181.483 186.779ZM183.735 191.206C184.009 191.779 184.013 192.363 183.749 192.958C183.425 193.693 182.705 194.327 181.588 194.859C180.551 195.354 179.663 195.525 178.923 195.373C178.186 195.22 177.679 194.852 177.402 194.27C177.134 193.709 177.138 193.132 177.414 192.539C177.763 191.795 178.478 191.166 179.559 190.65C180.587 190.16 181.511 189.991 182.331 190.145C182.988 190.268 183.457 190.621 183.735 191.206ZM183.431 191.384C183.246 190.996 182.915 190.782 182.438 190.743C181.964 190.702 181.142 190.961 179.973 191.518C178.83 192.063 178.121 192.539 177.846 192.944C177.572 193.353 177.525 193.746 177.706 194.125C177.888 194.507 178.204 194.717 178.655 194.755C179.191 194.798 180.016 194.554 181.13 194.023C182.282 193.474 182.998 192.991 183.28 192.576C183.561 192.16 183.612 191.763 183.431 191.384ZM186.608 196.479L189.13 201.768L186.728 203.071L186.583 202.767C187.936 201.876 188.411 201.008 188.007 200.161C187.926 199.991 187.84 199.887 187.751 199.851C187.662 199.817 187.551 199.833 187.416 199.897L182.206 202.382C182.101 202.432 182.037 202.5 182.017 202.586C181.996 202.671 182.02 202.784 182.087 202.926L182.4 203.582L182.07 203.74L180.626 200.712L180.956 200.554L181.313 201.304C181.361 201.404 181.423 201.468 181.498 201.497C181.573 201.526 181.652 201.521 181.734 201.482L187.018 198.961C187.13 198.908 187.197 198.834 187.221 198.74C187.247 198.645 187.225 198.522 187.153 198.372C186.95 197.946 186.579 197.687 186.041 197.594C185.597 197.517 184.993 197.597 184.23 197.835L184.077 197.513L186.608 196.479ZM187.7 204.598C187.964 205.153 187.985 205.715 187.762 206.283C187.543 206.853 187.106 207.294 186.451 207.606C185.999 207.822 185.572 207.921 185.17 207.903C184.773 207.887 184.407 207.766 184.072 207.54C183.738 207.317 183.485 207.025 183.313 206.663C183.058 206.129 183.044 205.578 183.271 205.011C183.5 204.448 183.938 204.012 184.584 203.704C185.234 203.394 185.85 203.329 186.433 203.509C187.017 203.688 187.439 204.052 187.7 204.598ZM187.387 204.747C187.23 204.418 186.951 204.219 186.55 204.151C186.153 204.081 185.632 204.199 184.989 204.506C184.333 204.819 183.904 205.151 183.701 205.504C183.499 205.86 183.478 206.204 183.636 206.536C183.8 206.88 184.084 207.085 184.487 207.153C184.892 207.223 185.438 207.094 186.126 206.766C186.764 206.462 187.174 206.136 187.359 205.789C187.544 205.444 187.553 205.097 187.387 204.747ZM191.155 206.012L191.982 207.554L187.474 209.704L189.283 210.492C189.459 210.566 189.59 210.583 189.675 210.543C189.748 210.508 189.787 210.442 189.792 210.346C189.796 210.203 189.739 210.001 189.622 209.74L189.93 209.593L190.979 211.792L190.671 211.939C190.44 211.516 190.167 211.238 189.852 211.107L188.558 210.561L187.177 213.108C187.095 213.262 187.11 213.456 187.22 213.688L187.33 213.917L186.999 214.075L185.923 211.818L186.253 211.66L186.361 211.885C186.441 212.053 186.508 212.157 186.564 212.199C186.622 212.244 186.671 212.256 186.712 212.237C186.753 212.217 186.788 212.183 186.815 212.134L187.85 210.266L187.037 209.913L185.993 210.411C185.908 210.451 185.858 210.509 185.843 210.585C185.825 210.691 185.85 210.814 185.917 210.955L186.054 211.242L185.723 211.399L184.666 209.183L184.996 209.025L185.167 209.382C185.237 209.529 185.319 209.623 185.415 209.664C185.51 209.705 185.609 209.701 185.712 209.652L190.807 207.222C190.939 207.159 191.016 207.07 191.037 206.955C191.066 206.79 191.031 206.603 190.931 206.394L190.824 206.17L191.155 206.012ZM191.106 217.444L189.695 214.487C189.074 214.802 188.686 215.131 188.533 215.475C188.362 215.866 188.37 216.257 188.557 216.648C188.831 217.224 189.38 217.53 190.202 217.567L190.215 217.913C189.176 217.882 188.463 217.461 188.076 216.65C187.813 216.098 187.79 215.537 188.009 214.967C188.229 214.4 188.651 213.968 189.274 213.671C189.944 213.352 190.572 213.279 191.16 213.453C191.753 213.629 192.178 213.988 192.438 214.532C192.628 214.931 192.69 215.326 192.623 215.715C192.556 216.104 192.365 216.463 192.051 216.794C191.829 217.026 191.514 217.242 191.106 217.444ZM190.008 214.338L190.862 216.127C190.912 216.233 190.987 216.299 191.085 216.324C191.187 216.347 191.324 216.318 191.497 216.235C191.821 216.081 192.047 215.849 192.177 215.538C192.307 215.23 192.308 214.94 192.177 214.667C192.032 214.361 191.771 214.166 191.395 214.082C191.021 214.001 190.559 214.086 190.008 214.338ZM193.504 217.085L194.242 218.416C194.01 218.595 193.727 218.78 193.393 218.972C193.78 219.014 194.109 219.125 194.378 219.303C194.648 219.484 194.859 219.733 195.01 220.051C195.141 220.324 195.196 220.579 195.175 220.816C195.158 221.051 195.06 221.28 194.881 221.503C194.702 221.725 194.469 221.905 194.181 222.042L192.171 223.001C192.021 223.072 191.93 223.157 191.898 223.256C191.868 223.353 191.891 223.48 191.967 223.639L192.106 223.93L191.775 224.088L190.737 221.911L191.067 221.753L191.166 221.96C191.259 222.154 191.354 222.274 191.452 222.321C191.55 222.368 191.661 222.362 191.784 222.303L193.552 221.461C193.936 221.277 194.193 221.082 194.322 220.876C194.508 220.586 194.522 220.273 194.362 219.938C194.203 219.606 193.937 219.392 193.563 219.296C193.191 219.204 192.79 219.259 192.361 219.464L190.832 220.193C190.682 220.265 190.591 220.35 190.559 220.448C190.531 220.548 190.554 220.678 190.63 220.836L190.767 221.123L190.436 221.28L189.393 219.094L189.724 218.937L189.861 219.223C189.929 219.367 190.011 219.462 190.104 219.507C190.2 219.556 190.291 219.559 190.379 219.517L193.046 218.245C193.222 218.161 193.333 218.049 193.377 217.908C193.424 217.771 193.404 217.612 193.318 217.433L193.218 217.222L193.504 217.085Z" fill="black"/>
<path d="M149.629 184.086L143.999 181.754C143.915 181.719 143.837 181.723 143.767 181.764C143.668 181.825 143.592 181.919 143.54 182.045L143.178 182.92L142.839 182.78L144.183 179.537L144.521 179.677L144.211 180.426C144.146 180.582 144.134 180.713 144.175 180.818C144.219 180.924 144.303 181.003 144.426 181.054L148.68 182.816C148.767 182.852 148.855 182.848 148.944 182.804C149.033 182.76 149.1 182.683 149.145 182.575L149.56 181.574L149.871 181.703C149.737 182.197 149.659 182.61 149.637 182.943C149.619 183.277 149.644 183.589 149.715 183.879L149.629 184.086ZM147.846 188.723C147.603 189.309 147.172 189.703 146.553 189.905C145.79 190.156 144.837 190.045 143.694 189.572C142.632 189.132 141.911 188.586 141.529 187.935C141.15 187.285 141.084 186.662 141.33 186.066C141.568 185.492 142 185.109 142.625 184.917C143.411 184.679 144.357 184.789 145.464 185.247C146.517 185.683 147.26 186.257 147.695 186.969C148.043 187.54 148.094 188.124 147.846 188.723ZM147.51 188.615C147.674 188.218 147.611 187.829 147.322 187.449C147.035 187.069 146.293 186.632 145.096 186.136C143.926 185.651 143.098 185.442 142.613 185.509C142.126 185.578 141.802 185.807 141.641 186.195C141.479 186.586 141.535 186.962 141.809 187.322C142.136 187.749 142.869 188.199 144.009 188.671C145.188 189.16 146.026 189.369 146.523 189.301C147.02 189.232 147.349 189.003 147.51 188.615ZM145.715 193.865C145.473 194.452 145.042 194.846 144.422 195.048C143.66 195.299 142.707 195.188 141.564 194.714C140.502 194.275 139.78 193.729 139.398 193.077C139.019 192.427 138.953 191.804 139.2 191.209C139.438 190.634 139.87 190.251 140.495 190.059C141.281 189.821 142.227 189.931 143.334 190.39C144.387 190.826 145.13 191.4 145.565 192.112C145.913 192.682 145.963 193.267 145.715 193.865ZM145.379 193.758C145.544 193.361 145.481 192.972 145.191 192.591C144.905 192.212 144.163 191.774 142.966 191.278C141.796 190.794 140.968 190.585 140.483 190.651C139.996 190.721 139.672 190.95 139.511 191.338C139.349 191.729 139.405 192.104 139.679 192.464C140.006 192.892 140.739 193.342 141.879 193.814C143.057 194.302 143.896 194.512 144.393 194.443C144.89 194.374 145.219 194.146 145.379 193.758ZM143.719 199.528L141.476 204.942L138.9 204.028L139.029 203.717C140.597 204.126 141.56 203.898 141.919 203.032C141.991 202.858 142.011 202.725 141.978 202.634C141.944 202.546 141.858 202.473 141.719 202.416L136.387 200.207C136.279 200.162 136.186 200.161 136.109 200.203C136.032 200.245 135.963 200.338 135.903 200.482L135.625 201.154L135.286 201.014L136.57 197.915L136.908 198.055L136.591 198.822C136.548 198.924 136.542 199.013 136.57 199.089C136.599 199.164 136.656 199.219 136.74 199.254L142.149 201.494C142.263 201.542 142.363 201.542 142.449 201.497C142.537 201.453 142.614 201.354 142.677 201.201C142.858 200.764 142.803 200.315 142.511 199.853C142.271 199.471 141.807 199.077 141.12 198.669L141.257 198.34L143.719 199.528ZM138.416 205.772C138.18 206.341 137.777 206.732 137.205 206.946C136.636 207.165 136.016 207.135 135.345 206.857C134.882 206.666 134.522 206.415 134.267 206.104C134.013 205.798 133.858 205.445 133.802 205.045C133.744 204.648 133.792 204.264 133.946 203.894C134.172 203.347 134.572 202.968 135.145 202.758C135.717 202.551 136.334 202.585 136.996 202.859C137.661 203.134 138.121 203.549 138.378 204.102C138.635 204.656 138.647 205.213 138.416 205.772ZM138.095 205.64C138.235 205.303 138.196 204.963 137.979 204.619C137.765 204.277 137.329 203.969 136.67 203.696C135.999 203.418 135.465 203.322 135.067 203.407C134.667 203.496 134.397 203.71 134.257 204.049C134.111 204.401 134.148 204.75 134.368 205.094C134.587 205.442 135.048 205.762 135.752 206.054C136.404 206.324 136.921 206.411 137.303 206.315C137.683 206.223 137.947 205.997 138.095 205.64ZM139.677 209.286L139.085 210.933L134.47 209.021L135.095 210.892C135.158 211.073 135.233 211.182 135.32 211.218C135.395 211.249 135.47 211.234 135.544 211.173C135.653 211.081 135.765 210.904 135.881 210.642L136.197 210.772L135.264 213.023L134.948 212.893C135.109 212.438 135.132 212.049 135.019 211.727L134.559 210.401L131.742 211.078C131.572 211.121 131.439 211.261 131.34 211.498L131.243 211.733L130.905 211.593L131.861 209.283L132.2 209.423L132.104 209.653C132.033 209.825 132.001 209.945 132.007 210.015C132.013 210.088 132.036 210.133 132.078 210.15C132.12 210.167 132.169 210.17 132.223 210.157L134.304 209.677L134.023 208.836L132.954 208.393C132.867 208.357 132.79 208.359 132.725 208.399C132.634 208.456 132.558 208.557 132.499 208.702L132.377 208.995L132.039 208.855L132.979 206.586L133.317 206.726L133.166 207.091C133.103 207.241 133.089 207.366 133.122 207.464C133.155 207.562 133.225 207.633 133.33 207.677L138.545 209.837C138.68 209.893 138.797 209.891 138.897 209.83C139.039 209.741 139.155 209.589 139.243 209.376L139.339 209.146L139.677 209.286ZM131.148 216.9L132.402 213.873C131.752 213.621 131.248 213.553 130.89 213.669C130.485 213.805 130.2 214.072 130.034 214.472C129.79 215.062 129.929 215.674 130.452 216.31L130.204 216.551C129.532 215.758 129.368 214.946 129.711 214.116C129.946 213.551 130.348 213.159 130.917 212.941C131.486 212.725 132.089 212.749 132.726 213.013C133.412 213.297 133.887 213.716 134.151 214.269C134.417 214.827 134.434 215.384 134.204 215.94C134.035 216.349 133.783 216.659 133.449 216.87C133.115 217.08 132.72 217.179 132.264 217.166C131.944 217.157 131.572 217.068 131.148 216.9ZM132.722 214.005L131.964 215.837C131.919 215.945 131.92 216.044 131.967 216.134C132.018 216.226 132.131 216.308 132.309 216.382C132.64 216.519 132.964 216.531 133.281 216.42C133.598 216.311 133.814 216.117 133.93 215.837C134.059 215.524 134.03 215.2 133.841 214.865C133.651 214.533 133.278 214.246 132.722 214.005ZM133.02 218.441L132.525 219.88C132.236 219.827 131.909 219.741 131.543 219.621C131.771 219.938 131.909 220.256 131.957 220.575C132.003 220.897 131.959 221.22 131.824 221.545C131.708 221.825 131.556 222.036 131.366 222.18C131.179 222.324 130.943 222.405 130.658 222.421C130.373 222.436 130.084 222.383 129.789 222.261L127.732 221.409C127.578 221.346 127.454 221.335 127.36 221.376C127.268 221.419 127.188 221.522 127.121 221.685L126.998 221.982L126.659 221.842L127.582 219.614L127.921 219.754L127.833 219.966C127.751 220.164 127.725 220.316 127.756 220.42C127.786 220.524 127.865 220.603 127.991 220.655L129.8 221.404C130.194 221.568 130.511 221.628 130.75 221.586C131.091 221.53 131.332 221.331 131.474 220.988C131.615 220.648 131.595 220.307 131.416 219.965C131.236 219.626 130.927 219.366 130.487 219.184L128.922 218.536C128.769 218.472 128.645 218.461 128.55 218.503C128.457 218.549 128.377 218.653 128.309 218.816L128.188 219.109L127.85 218.969L128.776 216.731L129.115 216.871L128.993 217.164C128.932 217.312 128.916 217.436 128.945 217.536C128.973 217.639 129.032 217.709 129.122 217.746L131.851 218.877C132.032 218.952 132.189 218.959 132.324 218.898C132.457 218.84 132.561 218.72 132.637 218.536L132.727 218.32L133.02 218.441Z" fill="white"/>
<path d="M129.55 166.42C128.717 166.56 128.06 166.73 127.579 166.93C127.353 167.023 127.15 167.132 126.969 167.256C126.789 167.384 126.661 167.497 126.586 167.595C126.546 167.643 126.518 167.67 126.503 167.677C126.473 167.689 126.449 167.673 126.43 167.628C126.387 167.522 126.396 167.354 126.459 167.124C126.524 166.896 126.652 166.683 126.844 166.484C127.033 166.285 127.28 166.123 127.584 165.998C127.936 165.852 128.378 165.732 128.91 165.639L128.345 163.854C128.163 164.063 127.981 164.239 127.797 164.382C127.613 164.525 127.428 164.635 127.242 164.712C126.652 164.956 126.076 164.966 125.514 164.741C124.95 164.517 124.548 164.117 124.31 163.543C124.046 162.905 124.042 162.292 124.299 161.703C124.555 161.114 125.023 160.679 125.703 160.398C126.223 160.182 126.708 160.154 127.158 160.313C127.606 160.476 127.915 160.762 128.084 161.171C128.186 161.418 128.214 161.628 128.166 161.803C128.117 161.982 128.011 162.105 127.849 162.172C127.69 162.238 127.538 162.238 127.394 162.171C127.248 162.108 127.139 161.99 127.068 161.819C127.015 161.69 126.999 161.578 127.02 161.485C127.038 161.393 127.103 161.295 127.216 161.192C127.327 161.087 127.369 161 127.341 160.934C127.302 160.838 127.212 160.75 127.073 160.67C126.936 160.593 126.761 160.555 126.55 160.554C126.336 160.558 126.112 160.608 125.878 160.706C125.418 160.896 125.127 161.184 125.004 161.569C124.879 161.956 124.95 162.471 125.216 163.115C125.459 163.701 125.765 164.077 126.132 164.242C126.5 164.406 126.882 164.407 127.279 164.242C127.46 164.167 127.627 164.06 127.78 163.919C127.933 163.778 128.072 163.604 128.198 163.397C128.131 163.177 128.11 163.021 128.135 162.926C128.16 162.834 128.215 162.771 128.299 162.736C128.359 162.711 128.416 162.712 128.47 162.74C128.523 162.767 128.566 162.818 128.597 162.893C128.652 163.025 128.644 163.182 128.574 163.362C128.554 163.416 128.543 163.461 128.541 163.498L128.986 164.867C129.161 165.408 129.349 165.925 129.55 166.42ZM123.077 169.101C122.49 169.344 121.907 169.318 121.327 169.023C120.609 168.661 120.014 167.909 119.541 166.766C119.101 165.704 118.976 164.808 119.167 164.077C119.359 163.349 119.753 162.862 120.348 162.616C120.922 162.378 121.499 162.412 122.077 162.719C122.801 163.106 123.392 163.853 123.85 164.959C124.286 166.012 124.406 166.944 124.21 167.754C124.053 168.404 123.675 168.853 123.077 169.101ZM122.915 168.788C123.312 168.623 123.543 168.304 123.607 167.83C123.673 167.359 123.458 166.525 122.962 165.328C122.477 164.158 122.04 163.425 121.649 163.128C121.256 162.833 120.865 162.766 120.477 162.927C120.086 163.089 119.86 163.394 119.799 163.842C119.727 164.375 119.928 165.212 120.4 166.352C120.888 167.531 121.333 168.272 121.733 168.574C122.133 168.877 122.527 168.948 122.915 168.788ZM117.934 171.231C117.348 171.474 116.764 171.448 116.184 171.153C115.467 170.791 114.871 170.039 114.398 168.896C113.958 167.834 113.834 166.938 114.024 166.207C114.216 165.48 114.61 164.992 115.205 164.746C115.78 164.508 116.356 164.542 116.934 164.849C117.658 165.236 118.249 165.983 118.708 167.09C119.144 168.142 119.264 169.074 119.067 169.885C118.91 170.534 118.533 170.983 117.934 171.231ZM117.772 170.918C118.169 170.753 118.4 170.434 118.464 169.96C118.53 169.489 118.315 168.655 117.819 167.458C117.335 166.288 116.897 165.555 116.506 165.258C116.113 164.963 115.722 164.896 115.334 165.057C114.943 165.219 114.717 165.524 114.656 165.972C114.585 166.505 114.785 167.342 115.257 168.482C115.746 169.661 116.19 170.402 116.59 170.705C116.99 171.007 117.384 171.078 117.772 170.918ZM112.518 173.824L107.104 176.066L105.929 173.598L106.24 173.469C107.059 174.867 107.901 175.387 108.767 175.028C108.942 174.956 109.05 174.876 109.091 174.789C109.129 174.702 109.12 174.59 109.062 174.452L106.854 169.119C106.809 169.011 106.744 168.945 106.66 168.92C106.576 168.895 106.461 168.912 106.317 168.972L105.645 169.25L105.505 168.912L108.604 167.628L108.744 167.966L107.977 168.284C107.875 168.327 107.807 168.384 107.774 168.458C107.741 168.532 107.742 168.61 107.777 168.695L110.017 174.103C110.065 174.218 110.135 174.289 110.228 174.318C110.322 174.349 110.446 174.333 110.599 174.27C111.035 174.089 111.314 173.732 111.435 173.199C111.534 172.76 111.486 172.153 111.288 171.379L111.618 171.242L112.518 173.824ZM104.353 174.489C103.785 174.724 103.223 174.716 102.667 174.463C102.11 174.215 101.692 173.756 101.414 173.085C101.222 172.622 101.146 172.19 101.184 171.79C101.221 171.394 101.361 171.035 101.605 170.712C101.845 170.391 102.15 170.153 102.52 170C103.067 169.773 103.618 169.788 104.172 170.045C104.723 170.303 105.135 170.763 105.409 171.425C105.684 172.089 105.717 172.708 105.507 173.282C105.297 173.855 104.912 174.257 104.353 174.489ZM104.22 174.169C104.557 174.029 104.77 173.761 104.86 173.365C104.95 172.971 104.859 172.445 104.587 171.787C104.309 171.116 103.999 170.67 103.657 170.449C103.312 170.229 102.97 170.189 102.63 170.33C102.278 170.476 102.058 170.748 101.97 171.148C101.879 171.548 101.979 172.1 102.27 172.804C102.541 173.457 102.845 173.884 103.182 174.086C103.516 174.289 103.862 174.317 104.22 174.169ZM102.76 177.865L101.177 178.611L99.2653 173.996L98.3846 175.761C98.3009 175.934 98.2771 176.063 98.3132 176.15C98.3443 176.226 98.4077 176.268 98.5034 176.278C98.6456 176.289 98.8502 176.243 99.1174 176.14L99.2482 176.456L96.9971 177.388L96.8663 177.072C97.3015 176.864 97.5927 176.606 97.7401 176.298L98.3531 175.035L95.8818 173.521C95.732 173.432 95.5383 173.436 95.3007 173.535L95.0661 173.632L94.926 173.294L97.2357 172.337L97.3758 172.675L97.1458 172.771C96.9743 172.842 96.8663 172.904 96.8216 172.958C96.7739 173.013 96.7588 173.061 96.7762 173.103C96.7937 173.145 96.8261 173.181 96.8737 173.211L98.6847 174.342L99.0804 173.55L98.6375 172.48C98.6014 172.393 98.546 172.34 98.4714 172.322C98.3666 172.298 98.242 172.317 98.0976 172.376L97.8044 172.498L97.6642 172.159L99.9333 171.22L100.073 171.558L99.7081 171.709C99.5577 171.772 99.4595 171.849 99.4135 171.942C99.3675 172.035 99.3663 172.134 99.4099 172.24L101.57 177.455C101.626 177.59 101.711 177.671 101.824 177.698C101.988 177.736 102.176 177.711 102.39 177.622L102.62 177.527L102.76 177.865ZM91.3458 177.218L94.3728 175.965C94.0912 175.327 93.7828 174.923 93.4476 174.752C93.0656 174.561 92.6746 174.549 92.2746 174.714C91.6852 174.958 91.3504 175.49 91.2703 176.309L90.9248 176.304C91.0101 175.268 91.4678 174.578 92.2978 174.234C92.8632 174 93.4246 174.007 93.982 174.255C94.5363 174.505 94.9456 174.949 95.2097 175.586C95.4937 176.272 95.5334 176.904 95.3289 177.482C95.1226 178.064 94.7413 178.47 94.1849 178.701C93.7759 178.87 93.3789 178.911 92.994 178.824C92.609 178.737 92.2598 178.527 91.9462 178.196C91.7264 177.963 91.5262 177.637 91.3458 177.218ZM94.5054 176.285L92.6739 177.043C92.5657 177.088 92.4964 177.159 92.4661 177.256C92.4371 177.356 92.4594 177.495 92.5329 177.673C92.6699 178.004 92.8901 178.242 93.1936 178.387C93.494 178.534 93.7841 178.55 94.0637 178.434C94.3765 178.304 94.5847 178.054 94.6884 177.684C94.7891 177.314 94.7281 176.848 94.5054 176.285ZM91.5793 179.632L90.2118 180.299C90.045 180.058 89.8746 179.766 89.7006 179.422C89.6382 179.807 89.5109 180.129 89.3188 180.389C89.1237 180.649 88.8637 180.847 88.5389 180.981C88.2593 181.097 88.0016 181.139 87.7661 181.106C87.5318 181.076 87.3083 180.966 87.0956 180.776C86.8829 180.586 86.7155 180.343 86.5934 180.048L85.7413 177.991C85.6778 177.838 85.5977 177.742 85.5012 177.705C85.4058 177.67 85.277 177.687 85.1146 177.754L84.8168 177.877L84.6767 177.539L86.9052 176.616L87.0453 176.954L86.8333 177.042C86.6348 177.124 86.5096 177.213 86.4575 177.309C86.4055 177.404 86.4056 177.515 86.458 177.642L87.2073 179.451C87.3704 179.845 87.5514 180.111 87.7502 180.251C88.0307 180.452 88.3424 180.481 88.6853 180.339C89.0251 180.199 89.2526 179.944 89.3678 179.576C89.48 179.209 89.4452 178.805 89.2633 178.366L88.6149 176.801C88.5514 176.648 88.4713 176.552 88.3748 176.515C88.2764 176.481 88.1461 176.498 87.9837 176.566L87.6904 176.687L87.5503 176.349L89.7878 175.422L89.928 175.76L89.6347 175.882C89.4874 175.943 89.3885 176.019 89.3383 176.11C89.285 176.203 89.277 176.294 89.3144 176.384L90.4449 179.114C90.5196 179.294 90.6259 179.41 90.7638 179.462C90.8987 179.516 91.0578 179.505 91.2413 179.429L91.4578 179.339L91.5793 179.632Z" fill="black"/>
<path d="M129.069 138.599L131.401 132.969C131.435 132.885 131.432 132.808 131.391 132.738C131.33 132.639 131.236 132.563 131.11 132.511L130.234 132.148L130.375 131.81L133.618 133.153L133.478 133.492L132.729 133.182C132.573 133.117 132.442 133.105 132.337 133.146C132.231 133.19 132.152 133.274 132.101 133.397L130.339 137.651C130.303 137.738 130.307 137.826 130.351 137.915C130.395 138.004 130.471 138.071 130.58 138.115L131.581 138.53L131.452 138.842C130.958 138.707 130.545 138.629 130.212 138.608C129.878 138.589 129.566 138.615 129.276 138.685L129.069 138.599ZM124.432 136.816C123.846 136.573 123.452 136.142 123.25 135.523C122.999 134.76 123.11 133.808 123.583 132.665C124.023 131.603 124.569 130.881 125.22 130.499C125.87 130.12 126.493 130.054 127.089 130.301C127.663 130.539 128.046 130.971 128.238 131.596C128.476 132.382 128.366 133.328 127.908 134.435C127.472 135.487 126.898 136.231 126.186 136.665C125.615 137.014 125.031 137.064 124.432 136.816ZM124.54 136.48C124.937 136.645 125.325 136.582 125.706 136.292C126.086 136.006 126.523 135.264 127.019 134.067C127.504 132.897 127.713 132.069 127.646 131.583C127.576 131.097 127.348 130.773 126.96 130.612C126.569 130.45 126.193 130.506 125.833 130.78C125.406 131.106 124.956 131.84 124.483 132.979C123.995 134.158 123.785 134.996 123.854 135.494C123.923 135.991 124.152 136.32 124.54 136.48ZM119.289 134.686C118.703 134.443 118.309 134.012 118.107 133.393C117.856 132.63 117.967 131.677 118.441 130.535C118.88 129.473 119.426 128.751 120.077 128.369C120.728 127.99 121.351 127.924 121.946 128.171C122.52 128.409 122.904 128.84 123.095 129.466C123.334 130.252 123.224 131.198 122.765 132.305C122.329 133.357 121.755 134.101 121.043 134.535C120.473 134.884 119.888 134.934 119.289 134.686ZM119.397 134.35C119.794 134.515 120.183 134.452 120.564 134.162C120.943 133.875 121.381 133.134 121.876 131.937C122.361 130.767 122.57 129.939 122.503 129.453C122.434 128.966 122.205 128.643 121.817 128.482C121.426 128.32 121.051 128.376 120.691 128.65C120.263 128.976 119.813 129.709 119.341 130.849C118.852 132.028 118.643 132.866 118.712 133.363C118.781 133.861 119.009 134.189 119.397 134.35ZM114.147 132.556C113.56 132.313 113.166 131.882 112.965 131.263C112.713 130.5 112.825 129.547 113.298 128.404C113.738 127.343 114.283 126.621 114.935 126.239C115.585 125.86 116.208 125.794 116.803 126.04C117.378 126.278 117.761 126.71 117.953 127.336C118.191 128.122 118.081 129.068 117.622 130.175C117.186 131.227 116.613 131.971 115.901 132.405C115.33 132.754 114.745 132.804 114.147 132.556ZM114.254 132.22C114.651 132.384 115.04 132.322 115.421 132.032C115.8 131.745 116.238 131.003 116.734 129.806C117.218 128.637 117.427 127.809 117.361 127.323C117.291 126.836 117.062 126.512 116.674 126.352C116.283 126.19 115.908 126.246 115.548 126.519C115.12 126.846 114.67 127.579 114.198 128.719C113.71 129.898 113.5 130.736 113.569 131.233C113.638 131.73 113.866 132.059 114.254 132.22ZM108.484 130.559L103.07 128.317L103.984 125.741L104.295 125.87C103.886 127.437 104.114 128.4 104.98 128.759C105.155 128.831 105.287 128.851 105.378 128.818C105.466 128.784 105.539 128.698 105.596 128.56L107.805 123.228C107.85 123.119 107.851 123.027 107.809 122.949C107.767 122.872 107.674 122.803 107.53 122.744L106.858 122.465L106.998 122.127L110.097 123.411L109.957 123.749L109.19 123.431C109.088 123.389 108.999 123.382 108.924 123.411C108.848 123.44 108.793 123.496 108.758 123.58L106.518 128.989C106.471 129.103 106.47 129.203 106.515 129.289C106.559 129.378 106.658 129.454 106.812 129.518C107.248 129.698 107.697 129.643 108.159 129.352C108.541 129.112 108.935 128.648 109.343 127.961L109.673 128.097L108.484 130.559ZM102.24 125.256C101.672 125.021 101.28 124.617 101.066 124.046C100.847 123.476 100.877 122.856 101.155 122.185C101.347 121.722 101.598 121.363 101.908 121.107C102.214 120.854 102.567 120.699 102.967 120.642C103.364 120.585 103.748 120.633 104.118 120.786C104.665 121.013 105.044 121.413 105.254 121.986C105.461 122.558 105.428 123.175 105.154 123.836C104.878 124.501 104.464 124.962 103.91 125.219C103.356 125.475 102.799 125.488 102.24 125.256ZM102.373 124.936C102.709 125.076 103.05 125.037 103.393 124.82C103.736 124.606 104.043 124.169 104.316 123.511C104.594 122.84 104.69 122.306 104.605 121.907C104.517 121.508 104.303 121.238 103.963 121.097C103.611 120.951 103.263 120.988 102.918 121.209C102.57 121.427 102.25 121.889 101.959 122.592C101.688 123.245 101.601 123.762 101.697 124.143C101.789 124.524 102.015 124.788 102.373 124.936ZM98.7262 126.517L97.0795 125.925L98.991 121.31L97.1199 121.936C96.939 121.998 96.8305 122.073 96.7944 122.16C96.7632 122.236 96.7781 122.31 96.8388 122.385C96.9312 122.494 97.1084 122.606 97.3706 122.721L97.2398 123.037L94.9888 122.105L95.1196 121.789C95.5746 121.949 95.963 121.973 96.2848 121.859L97.6116 121.4L96.9341 118.582C96.8915 118.413 96.7513 118.279 96.5138 118.181L96.2792 118.083L96.4193 117.745L98.729 118.702L98.5889 119.04L98.3588 118.945C98.1874 118.874 98.0669 118.842 97.9973 118.848C97.9247 118.853 97.8796 118.877 97.8622 118.919C97.8448 118.961 97.8424 119.009 97.855 119.064L98.3356 121.144L99.176 120.864L99.6188 119.795C99.655 119.707 99.6532 119.631 99.6135 119.565C99.556 119.474 99.455 119.399 99.3107 119.339L99.0174 119.218L99.1576 118.879L101.427 119.819L101.287 120.158L100.921 120.006C100.771 119.944 100.646 119.929 100.548 119.963C100.45 119.996 100.379 120.065 100.335 120.17L98.1751 125.385C98.119 125.521 98.1215 125.638 98.1826 125.737C98.2715 125.88 98.4228 125.995 98.6363 126.084L98.8664 126.179L98.7262 126.517ZM91.1126 117.989L94.1395 119.243C94.3911 118.593 94.4589 118.089 94.343 117.731C94.2076 117.326 93.94 117.041 93.54 116.875C92.9506 116.631 92.338 116.77 91.7023 117.292L91.4614 117.045C92.2543 116.372 93.0657 116.208 93.8958 116.552C94.4612 116.786 94.8531 117.188 95.0717 117.758C95.2872 118.326 95.2629 118.929 94.9988 119.567C94.7148 120.252 94.2961 120.727 93.7428 120.991C93.1852 121.257 92.6282 121.275 92.0719 121.045C91.6629 120.875 91.3531 120.623 91.1426 120.29C90.932 119.956 90.8332 119.561 90.846 119.104C90.8553 118.784 90.9442 118.412 91.1126 117.989ZM94.0069 119.563L92.1754 118.804C92.0671 118.759 91.9679 118.761 91.8779 118.808C91.7866 118.858 91.7042 118.972 91.6307 119.149C91.4937 119.48 91.481 119.804 91.5925 120.122C91.7011 120.438 91.8953 120.654 92.175 120.77C92.4877 120.9 92.8118 120.87 93.1472 120.681C93.4796 120.491 93.7661 120.118 94.0069 119.563ZM89.5709 119.861L88.1324 119.365C88.1849 119.077 88.2711 118.75 88.391 118.384C88.0745 118.612 87.7567 118.75 87.4375 118.797C87.1153 118.843 86.7918 118.799 86.467 118.665C86.1874 118.549 85.9758 118.396 85.8324 118.206C85.6878 118.02 85.6076 117.784 85.5917 117.499C85.5758 117.214 85.6289 116.924 85.751 116.629L86.6031 114.572C86.6666 114.419 86.6775 114.295 86.6357 114.2C86.5927 114.108 86.49 114.029 86.3276 113.961L86.0299 113.838L86.17 113.5L88.3985 114.423L88.2584 114.761L88.0464 114.673C87.8479 114.591 87.6964 114.565 87.5921 114.596C87.4877 114.627 87.4094 114.705 87.3571 114.832L86.6078 116.641C86.4446 117.035 86.3839 117.351 86.4257 117.591C86.482 117.931 86.6816 118.172 87.0245 118.314C87.3643 118.455 87.7052 118.436 88.0471 118.257C88.386 118.077 88.6464 117.767 88.8283 117.328L89.4767 115.763C89.5402 115.609 89.5511 115.485 89.5093 115.39C89.4633 115.297 89.3591 115.217 89.1967 115.15L88.9035 115.028L89.0436 114.69L91.2811 115.617L91.141 115.955L90.8478 115.834C90.7004 115.773 90.5767 115.757 90.4766 115.786C90.3735 115.813 90.3032 115.872 90.2659 115.963L89.1354 118.692C89.0606 118.872 89.0536 119.03 89.1142 119.164C89.1718 119.297 89.2924 119.402 89.4758 119.478L89.6923 119.567L89.5709 119.861Z" fill="white"/>
<path d="M145.599 117.431C145.458 116.598 145.288 115.941 145.089 115.46C144.995 115.234 144.887 115.031 144.762 114.85C144.635 114.67 144.522 114.542 144.424 114.467C144.376 114.427 144.348 114.399 144.342 114.384C144.33 114.354 144.346 114.33 144.391 114.311C144.496 114.268 144.664 114.277 144.895 114.34C145.122 114.405 145.336 114.533 145.535 114.725C145.733 114.914 145.895 115.161 146.021 115.465C146.167 115.817 146.286 116.258 146.38 116.791L148.165 116.226C147.956 116.044 147.78 115.862 147.637 115.678C147.494 115.494 147.384 115.309 147.306 115.123C147.062 114.533 147.053 113.957 147.278 113.395C147.502 112.831 147.901 112.429 148.476 112.191C149.113 111.927 149.727 111.923 150.315 112.18C150.904 112.436 151.34 112.904 151.621 113.584C151.837 114.104 151.865 114.589 151.706 115.039C151.543 115.487 151.257 115.796 150.848 115.965C150.601 116.067 150.39 116.095 150.216 116.047C150.037 115.998 149.914 115.892 149.846 115.73C149.78 115.571 149.781 115.419 149.848 115.275C149.911 115.129 150.028 115.02 150.2 114.949C150.329 114.896 150.44 114.88 150.534 114.901C150.626 114.919 150.723 114.984 150.826 115.097C150.932 115.208 151.018 115.25 151.084 115.222C151.181 115.183 151.269 115.093 151.349 114.954C151.425 114.817 151.464 114.642 151.465 114.431C151.461 114.217 151.41 113.993 151.313 113.759C151.123 113.299 150.835 113.008 150.449 112.885C150.063 112.76 149.547 112.831 148.904 113.097C148.317 113.34 147.942 113.645 147.777 114.013C147.612 114.381 147.612 114.763 147.777 115.16C147.851 115.341 147.959 115.508 148.1 115.661C148.241 115.814 148.415 115.953 148.622 116.079C148.841 116.012 148.998 115.991 149.093 116.016C149.184 116.041 149.248 116.096 149.282 116.18C149.307 116.24 149.306 116.297 149.279 116.351C149.252 116.404 149.201 116.447 149.126 116.478C148.993 116.533 148.837 116.525 148.656 116.455C148.602 116.435 148.557 116.424 148.521 116.422L147.152 116.867C146.611 117.042 146.093 117.23 145.599 117.431ZM142.918 110.958C142.675 110.371 142.701 109.788 142.996 109.208C143.358 108.49 144.11 107.895 145.253 107.422C146.315 106.982 147.211 106.857 147.941 107.048C148.669 107.24 149.156 107.634 149.403 108.229C149.641 108.803 149.607 109.38 149.3 109.958C148.913 110.682 148.166 111.273 147.059 111.731C146.007 112.167 145.075 112.287 144.264 112.091C143.614 111.934 143.165 111.556 142.918 110.958ZM143.231 110.796C143.396 111.193 143.715 111.424 144.189 111.488C144.66 111.554 145.494 111.339 146.691 110.843C147.861 110.358 148.594 109.921 148.89 109.53C149.185 109.137 149.253 108.746 149.092 108.358C148.93 107.967 148.625 107.741 148.177 107.68C147.643 107.608 146.807 107.809 145.667 108.281C144.488 108.769 143.747 109.214 143.444 109.614C143.141 110.014 143.07 110.408 143.231 110.796ZM140.787 105.815C140.544 105.229 140.571 104.645 140.866 104.065C141.228 103.348 141.98 102.752 143.123 102.279C144.184 101.839 145.081 101.715 145.811 101.905C146.539 102.097 147.026 102.491 147.273 103.086C147.511 103.661 147.476 104.237 147.17 104.815C146.783 105.539 146.036 106.13 144.929 106.589C143.876 107.025 142.945 107.145 142.134 106.948C141.484 106.791 141.035 106.413 140.787 105.815ZM141.101 105.653C141.265 106.05 141.585 106.281 142.059 106.345C142.53 106.411 143.364 106.196 144.561 105.7C145.731 105.215 146.464 104.778 146.76 104.387C147.055 103.994 147.122 103.603 146.962 103.215C146.8 102.824 146.495 102.598 146.047 102.537C145.513 102.466 144.677 102.666 143.537 103.138C142.358 103.627 141.617 104.071 141.314 104.471C141.011 104.871 140.94 105.265 141.101 105.653ZM138.657 100.672C138.414 100.086 138.44 99.5025 138.736 98.9222C139.097 98.205 139.85 97.6098 140.993 97.1364C142.054 96.6967 142.95 96.5721 143.681 96.7627C144.409 96.9545 144.896 97.3481 145.143 97.9436C145.381 98.518 145.346 99.0943 145.04 99.6723C144.652 100.396 143.906 100.988 142.799 101.446C141.746 101.882 140.815 102.002 140.004 101.806C139.354 101.649 138.905 101.271 138.657 100.672ZM138.971 100.511C139.135 100.908 139.454 101.138 139.929 101.203C140.4 101.268 141.234 101.053 142.431 100.557C143.601 100.073 144.334 99.6353 144.63 99.2448C144.925 98.8512 144.992 98.4605 144.832 98.0725C144.67 97.6816 144.365 97.4556 143.916 97.3945C143.383 97.3231 142.546 97.5234 141.407 97.9955C140.228 98.4838 139.487 98.9281 139.184 99.3284C138.881 99.7286 138.81 100.123 138.971 100.511ZM136.065 95.256L133.823 89.8426L136.29 88.6673L136.419 88.9785C135.021 89.7972 134.501 90.6396 134.86 91.5057C134.933 91.6801 135.012 91.788 135.1 91.8292C135.186 91.8675 135.299 91.8579 135.437 91.8006L140.769 89.592C140.877 89.5471 140.944 89.4825 140.969 89.3982C140.994 89.3139 140.976 89.1995 140.917 89.0552L140.638 88.383L140.977 88.2429L142.26 91.342L141.922 91.4822L141.604 90.7153C141.562 90.613 141.504 90.5454 141.43 90.5125C141.357 90.4795 141.278 90.4805 141.194 90.5153L135.785 92.7558C135.671 92.8031 135.599 92.8732 135.571 92.966C135.539 93.0601 135.555 93.1838 135.619 93.3372C135.8 93.7733 136.156 94.0519 136.689 94.1729C137.129 94.2727 137.736 94.2239 138.51 94.0265L138.646 94.3558L136.065 95.256ZM135.399 87.0912C135.164 86.5228 135.173 85.9608 135.425 85.4052C135.673 84.8479 136.133 84.4303 136.804 84.1525C137.267 83.9606 137.698 83.884 138.098 83.9227C138.494 83.9596 138.853 84.0997 139.176 84.343C139.498 84.5833 139.735 84.8884 139.888 85.2583C140.115 85.8057 140.1 86.3563 139.843 86.9101C139.585 87.461 139.125 87.8734 138.464 88.1475C137.799 88.4228 137.18 88.4554 136.607 88.2454C136.034 88.0353 135.631 87.6506 135.399 87.0912ZM135.72 86.9586C135.859 87.2954 136.127 87.5086 136.524 87.598C136.917 87.6888 137.443 87.5977 138.102 87.3249C138.772 87.0471 139.218 86.7373 139.44 86.3954C139.66 86.0506 139.699 85.7083 139.559 85.3684C139.413 85.0166 139.14 84.7965 138.741 84.7083C138.34 84.6171 137.788 84.7172 137.084 85.0087C136.432 85.279 136.004 85.5828 135.802 85.9202C135.599 86.2546 135.572 86.6007 135.72 86.9586ZM132.023 85.4984L131.277 83.9152L135.892 82.0036L134.127 81.1229C133.955 81.0392 133.825 81.0154 133.738 81.0515C133.663 81.0826 133.62 81.146 133.611 81.2416C133.599 81.3838 133.645 81.5885 133.749 81.8557L133.433 81.9865L132.501 79.7354L132.816 79.6046C133.025 80.0397 133.283 80.331 133.59 80.4784L134.854 81.0914L136.367 78.6201C136.457 78.4703 136.452 78.2766 136.354 78.039L136.256 77.8044L136.595 77.6643L137.552 79.974L137.213 80.1141L137.118 79.884C137.047 79.7126 136.985 79.6046 136.931 79.5599C136.876 79.5122 136.827 79.4971 136.785 79.5145C136.743 79.5319 136.707 79.5644 136.678 79.6119L135.546 81.423L136.339 81.8186L137.408 81.3758C137.495 81.3397 137.548 81.2843 137.567 81.2097C137.59 81.1049 137.572 80.9802 137.512 80.8359L137.391 80.5427L137.729 80.4025L138.669 82.6716L138.331 82.8118L138.179 82.4464C138.117 82.296 138.039 82.1978 137.946 82.1518C137.853 82.1058 137.754 82.1046 137.649 82.1482L132.434 84.3082C132.299 84.3643 132.217 84.449 132.19 84.5624C132.152 84.7261 132.178 84.9147 132.266 85.1282L132.361 85.3583L132.023 85.4984ZM132.67 74.0841L133.924 77.1111C134.561 76.8294 134.966 76.521 135.137 76.1859C135.327 75.8039 135.34 75.4129 135.174 75.0129C134.93 74.4235 134.399 74.0887 133.58 74.0086L133.584 73.6631C134.62 73.7484 135.31 74.206 135.654 75.0361C135.888 75.6015 135.881 76.1629 135.633 76.7202C135.383 77.2746 134.94 77.6838 134.302 77.9479C133.617 78.232 132.985 78.2717 132.407 78.0672C131.825 77.8609 131.418 77.4795 131.188 76.9232C131.018 76.5142 130.977 76.1172 131.064 75.7322C131.152 75.3473 131.361 74.9981 131.693 74.6845C131.926 74.4646 132.252 74.2645 132.67 74.0841ZM133.604 77.2437L132.845 75.4122C132.8 75.3039 132.729 75.2347 132.632 75.2044C132.532 75.1754 132.393 75.1977 132.216 75.2712C131.885 75.4082 131.647 75.6284 131.501 75.9319C131.354 76.2323 131.339 76.5223 131.455 76.802C131.584 77.1148 131.834 77.323 132.205 77.4267C132.574 77.5274 133.041 77.4664 133.604 77.2437ZM130.256 74.3175L129.59 72.9501C129.831 72.7833 130.123 72.6129 130.467 72.4388C130.081 72.3764 129.759 72.2492 129.5 72.0571C129.239 71.862 129.042 71.602 128.907 71.2772C128.791 70.9975 128.75 70.7399 128.783 70.5044C128.812 70.27 128.922 70.0465 129.113 69.8338C129.303 69.6212 129.545 69.4538 129.84 69.3317L131.897 68.4796C132.051 68.4161 132.146 68.336 132.184 68.2395C132.218 68.1441 132.202 68.0153 132.134 67.8529L132.011 67.5551L132.349 67.415L133.272 69.6435L132.934 69.7836L132.846 69.5716C132.764 69.3731 132.675 69.2478 132.58 69.1958C132.484 69.1438 132.373 69.1439 132.247 69.1962L130.438 69.9455C130.044 70.1087 129.777 70.2897 129.638 70.4885C129.437 70.769 129.407 71.0807 129.549 71.4236C129.69 71.7634 129.945 71.9909 130.313 72.1061C130.68 72.2183 131.083 72.1835 131.522 72.0016L133.088 71.3532C133.241 71.2897 133.336 71.2096 133.374 71.113C133.407 71.0147 133.39 70.8843 133.323 70.7219L133.201 70.4287L133.54 70.2886L134.467 72.5261L134.128 72.6662L134.007 72.373C133.946 72.2256 133.87 72.1268 133.778 72.0766C133.686 72.0233 133.594 72.0153 133.504 72.0527L130.775 73.1832C130.594 73.2579 130.478 73.3642 130.426 73.5021C130.373 73.6369 130.384 73.7961 130.46 73.9796L130.55 74.1961L130.256 74.3175Z" fill="black"/>
<path d="M170.256 117.44L175.886 119.772C175.97 119.807 176.048 119.803 176.118 119.762C176.217 119.701 176.293 119.607 176.345 119.481L176.707 118.606L177.046 118.746L175.702 121.989L175.364 121.849L175.674 121.1C175.739 120.944 175.751 120.813 175.71 120.708C175.666 120.602 175.582 120.523 175.459 120.472L171.205 118.71C171.118 118.674 171.029 118.678 170.941 118.722C170.852 118.766 170.785 118.843 170.74 118.951L170.325 119.952L170.014 119.823C170.148 119.329 170.226 118.916 170.248 118.583C170.266 118.249 170.241 117.937 170.17 117.647L170.256 117.44ZM172.039 112.803C172.282 112.217 172.713 111.823 173.332 111.621C174.095 111.37 175.048 111.481 176.191 111.954C177.253 112.394 177.974 112.94 178.356 113.591C178.735 114.242 178.801 114.864 178.555 115.46C178.317 116.034 177.885 116.417 177.26 116.609C176.474 116.848 175.528 116.738 174.421 116.279C173.368 115.843 172.625 115.269 172.19 114.557C171.842 113.986 171.791 113.402 172.039 112.803ZM172.375 112.911C172.211 113.308 172.274 113.697 172.563 114.077C172.85 114.457 173.592 114.895 174.789 115.39C175.959 115.875 176.787 116.084 177.272 116.017C177.759 115.948 178.083 115.719 178.244 115.331C178.406 114.94 178.35 114.565 178.076 114.205C177.749 113.777 177.016 113.327 175.876 112.855C174.697 112.366 173.859 112.157 173.362 112.226C172.865 112.294 172.536 112.523 172.375 112.911ZM174.17 107.661C174.412 107.074 174.843 106.68 175.462 106.479C176.225 106.227 177.178 106.338 178.321 106.812C179.383 107.252 180.105 107.797 180.487 108.449C180.865 109.099 180.932 109.722 180.685 110.317C180.447 110.892 180.015 111.275 179.39 111.467C178.604 111.705 177.658 111.595 176.551 111.136C175.498 110.7 174.755 110.126 174.32 109.414C173.972 108.844 173.922 108.259 174.17 107.661ZM174.506 107.768C174.341 108.165 174.404 108.554 174.694 108.935C174.98 109.314 175.722 109.752 176.919 110.248C178.089 110.732 178.917 110.941 179.402 110.875C179.889 110.805 180.213 110.576 180.374 110.188C180.536 109.797 180.48 109.422 180.206 109.062C179.879 108.634 179.146 108.184 178.006 107.712C176.827 107.224 175.989 107.014 175.492 107.083C174.995 107.152 174.666 107.38 174.506 107.768ZM176.3 102.518C176.543 101.932 176.974 101.538 177.593 101.336C178.356 101.085 179.308 101.196 180.451 101.669C181.513 102.109 182.235 102.654 182.617 103.306C182.996 103.956 183.062 104.579 182.815 105.175C182.577 105.749 182.145 106.132 181.52 106.324C180.734 106.562 179.788 106.452 178.681 105.994C177.629 105.558 176.885 104.984 176.451 104.272C176.102 103.701 176.052 103.116 176.3 102.518ZM176.636 102.625C176.471 103.022 176.534 103.411 176.824 103.792C177.11 104.172 177.852 104.609 179.049 105.105C180.219 105.59 181.047 105.799 181.533 105.732C182.019 105.662 182.343 105.434 182.504 105.046C182.666 104.655 182.61 104.279 182.336 103.919C182.01 103.491 181.276 103.041 180.137 102.569C178.958 102.081 178.12 101.871 177.622 101.94C177.125 102.009 176.796 102.238 176.636 102.625ZM178.43 97.3753C178.673 96.7889 179.104 96.3949 179.723 96.1932C180.486 95.942 181.439 96.0531 182.581 96.5264C183.643 96.9662 184.365 97.5118 184.747 98.1633C185.126 98.8135 185.192 99.4364 184.945 100.032C184.707 100.606 184.276 100.989 183.65 101.181C182.864 101.42 181.918 101.309 180.811 100.851C179.759 100.415 179.015 99.8411 178.581 99.1291C178.232 98.5584 178.182 97.9738 178.43 97.3753ZM178.766 97.4828C178.601 97.8798 178.664 98.2686 178.954 98.6494C179.241 99.0289 179.982 99.4666 181.179 99.9624C182.349 100.447 183.177 100.656 183.663 100.589C184.15 100.52 184.473 100.291 184.634 99.9029C184.796 99.512 184.74 99.1365 184.466 98.7765C184.14 98.3487 183.407 97.8988 182.267 97.4266C181.088 96.9383 180.25 96.7286 179.753 96.7975C179.255 96.8664 178.927 97.0948 178.766 97.4828ZM180.427 91.7123L182.669 86.299L185.245 87.2127L185.116 87.524C183.549 87.1143 182.586 87.3426 182.227 88.2087C182.155 88.3831 182.135 88.5159 182.168 88.607C182.202 88.695 182.288 88.7677 182.426 88.825L187.758 91.0337C187.866 91.0785 187.959 91.08 188.037 91.038C188.114 90.996 188.182 90.9028 188.242 90.7585L188.521 90.0863L188.859 90.2265L187.575 93.3256L187.237 93.1855L187.555 92.4186C187.597 92.3163 187.604 92.2275 187.575 92.1522C187.546 92.0769 187.49 92.0218 187.406 91.9869L181.997 89.7465C181.882 89.6992 181.782 89.6983 181.697 89.7438C181.608 89.788 181.532 89.8869 181.468 90.0402C181.288 90.4763 181.343 90.9255 181.634 91.3879C181.874 91.7693 182.338 92.1639 183.025 92.5719L182.889 92.9012L180.427 91.7123ZM185.73 85.4685C185.965 84.9001 186.368 84.5088 186.94 84.2945C187.51 84.0759 188.13 84.1056 188.8 84.3834C189.264 84.5752 189.623 84.8262 189.879 85.1364C190.132 85.4424 190.287 85.7955 190.343 86.1958C190.401 86.5931 190.353 86.9766 190.2 87.3466C189.973 87.8939 189.573 88.2726 189 88.4826C188.428 88.6897 187.811 88.6561 187.149 88.3821C186.485 88.1068 186.024 87.6922 185.767 87.1384C185.51 86.5845 185.498 86.0279 185.73 85.4685ZM186.05 85.6012C185.91 85.938 185.949 86.2782 186.166 86.6218C186.38 86.9642 186.817 87.2718 187.475 87.5446C188.146 87.8224 188.68 87.9186 189.078 87.8334C189.478 87.7452 189.748 87.5312 189.889 87.1913C190.035 86.8395 189.997 86.4911 189.777 86.1463C189.559 85.7984 189.097 85.4787 188.393 85.1872C187.741 84.9169 187.224 84.8296 186.842 84.9253C186.462 85.018 186.198 85.2433 186.05 85.6012ZM184.468 81.9548L185.061 80.308L189.676 82.2196L189.05 80.3485C188.988 80.1676 188.913 80.0591 188.826 80.0229C188.75 79.9918 188.675 80.0066 188.601 80.0674C188.492 80.1597 188.38 80.337 188.264 80.5992L187.949 80.4684L188.881 78.2173L189.197 78.3481C189.037 78.8032 189.013 79.1916 189.126 79.5134L189.586 80.8402L192.404 80.1627C192.573 80.12 192.707 79.9799 192.805 79.7423L192.902 79.5077L193.241 79.6479L192.284 81.9576L191.946 81.8174L192.041 81.5874C192.112 81.4159 192.144 81.2954 192.138 81.2258C192.133 81.1532 192.109 81.1082 192.067 81.0908C192.025 81.0733 191.977 81.0709 191.922 81.0835L189.841 81.5642L190.122 82.4045L191.191 82.8474C191.279 82.8835 191.355 82.8817 191.421 82.842C191.512 82.7845 191.587 82.6836 191.647 82.5392L191.768 82.246L192.106 82.3861L191.167 84.6552L190.828 84.5151L190.98 84.1497C191.042 83.9993 191.056 83.875 191.023 83.7766C190.99 83.6783 190.921 83.6073 190.815 83.5637L185.6 81.4036C185.465 81.3476 185.348 81.3501 185.249 81.4111C185.106 81.5001 184.991 81.6513 184.902 81.8648L184.807 82.0949L184.468 81.9548ZM192.997 74.3411L191.743 77.3681C192.393 77.6196 192.897 77.6874 193.255 77.5715C193.66 77.4362 193.945 77.1685 194.111 76.7686C194.355 76.1791 194.216 75.5665 193.694 74.9309L193.941 74.69C194.614 75.4828 194.778 76.2943 194.434 77.1243C194.2 77.6897 193.798 78.0817 193.228 78.3002C192.66 78.5158 192.057 78.4915 191.419 78.2274C190.733 77.9434 190.258 77.5247 189.994 76.9714C189.729 76.4138 189.711 75.8568 189.941 75.3004C190.111 74.8914 190.362 74.5816 190.696 74.3711C191.03 74.1606 191.425 74.0617 191.881 74.0745C192.202 74.0839 192.574 74.1727 192.997 74.3411ZM191.423 77.2354L192.182 75.4039C192.226 75.2956 192.225 75.1965 192.178 75.1064C192.128 75.0151 192.014 74.9328 191.836 74.8593C191.506 74.7222 191.181 74.7095 190.864 74.8211C190.548 74.9297 190.332 75.1238 190.216 75.4035C190.086 75.7163 190.116 76.0404 190.305 76.3758C190.495 76.7081 190.867 76.9947 191.423 77.2354ZM191.125 72.7994L191.621 71.361C191.909 71.4135 192.236 71.4997 192.602 71.6196C192.374 71.3031 192.236 70.9852 192.189 70.6661C192.142 70.3439 192.187 70.0204 192.321 69.6956C192.437 69.4159 192.59 69.2044 192.779 69.061C192.966 68.9164 193.202 68.8361 193.487 68.8203C193.772 68.8044 194.062 68.8575 194.356 68.9796L196.414 69.8316C196.567 69.8952 196.691 69.9061 196.786 69.8643C196.878 69.8213 196.957 69.7186 197.024 69.5562L197.148 69.2584L197.486 69.3986L196.563 71.6271L196.225 71.4869L196.312 71.2749C196.395 71.0764 196.42 70.925 196.39 70.8206C196.359 70.7163 196.28 70.638 196.154 70.5856L194.345 69.8363C193.951 69.6732 193.634 69.6125 193.395 69.6543C193.055 69.7106 192.814 69.9102 192.672 70.253C192.531 70.5928 192.55 70.9337 192.729 71.2756C192.909 71.6146 193.219 71.875 193.658 72.0568L195.223 72.7052C195.377 72.7688 195.501 72.7796 195.596 72.7379C195.689 72.6919 195.769 72.5877 195.836 72.4253L195.957 72.132L196.296 72.2722L195.369 74.5097L195.031 74.3695L195.152 74.0763C195.213 73.929 195.229 73.8052 195.2 73.7051C195.172 73.602 195.113 73.5318 195.023 73.4944L192.294 72.3639C192.114 72.2892 191.956 72.2821 191.822 72.3428C191.689 72.4004 191.584 72.5209 191.508 72.7044L191.418 72.9209L191.125 72.7994Z" fill="white"/>
<defs>
<filter id="filter0_d_2_629" x="0" y="0" width="326" height="326" filterUnits="userSpaceOnUse" color-interpolation-filters="sRGB">
<feFlood flood-opacity="0" result="BackgroundImageFix"/>
<feColorMatrix in="SourceAlpha" type="matrix" values="0 0 0 0 0 0 0 0 0 0 0 0 0 0 0 0 0 0 127 0" result="hardAlpha"/>
<feOffset dy="16"/>
<feGaussianBlur stdDeviation="24"/>
<feColorMatrix type="matrix" values="0 0 0 0 0 0 0 0 0 0.388235 0 0 0 0 0.960784 0 0 0 0.24 0"/>
<feBlend mode="normal" in2="BackgroundImageFix" result="effect1_dropShadow_2_629"/>
<feBlend mode="normal" in="SourceGraphic" in2="effect1_dropShadow_2_629" result="shape"/>
</filter>
<filter id="filter1_d_2_629" x="167.846" y="116.551" width="27.8154" height="27.8154" filterUnits="userSpaceOnUse" color-interpolation-filters="sRGB">
<feFlood flood-opacity="0" result="BackgroundImageFix"/>
<feColorMatrix in="SourceAlpha" type="matrix" values="0 0 0 0 0 0 0 0 0 0 0 0 0 0 0 0 0 0 127 0" result="hardAlpha"/>
<feOffset dy="2"/>
<feGaussianBlur stdDeviation="2"/>
<feColorMatrix type="matrix" values="0 0 0 0 0 0 0 0 0 0 0 0 0 0 0 0 0 0 0.075 0"/>
<feBlend mode="normal" in2="BackgroundImageFix" result="effect1_dropShadow_2_629"/>
<feBlend mode="normal" in="SourceGraphic" in2="effect1_dropShadow_2_629" result="shape"/>
</filter>
</defs>
</svg>
