<svg width="84" height="84" viewBox="0 0 84 84" fill="none" xmlns="http://www.w3.org/2000/svg">
<path d="M43.0762 10.5131C42.4725 11.2875 42 11.8125 42 11.8125C42 11.8125 41.5275 11.2875 40.9106 10.5131C40.0969 9.48938 39.0206 8.00625 38.4562 6.72C38.2069 6.18187 38.0625 5.67 38.0625 5.25C38.0625 3.07125 39.8213 1.3125 42 1.3125C44.1788 1.3125 45.9375 3.07125 45.9375 5.25C45.9375 5.67 45.7931 6.18187 45.5438 6.72C44.9794 8.00625 43.9031 9.48938 43.0762 10.5131Z" fill="#656D78"/>
<path d="M42.0001 57.7497V78.7497C35.7919 78.7497 29.9644 77.096 24.9507 74.1691L35.4376 56.0041L35.4507 55.991C37.3801 57.1066 39.6113 57.7497 42.0001 57.7497Z" fill="#8CC152"/>
<path d="M40.9106 10.5133C41.5275 11.2877 42 11.8127 42 11.8127V31.5002C39.6112 31.5002 37.3669 32.1433 35.4375 33.2589L24.9375 15.0808C29.6625 12.3246 35.1094 10.6971 40.9106 10.5133Z" fill="#FFCE54"/>
<path d="M35.4506 55.9914L35.4374 56.0046L24.9506 74.1696C19.7662 71.1902 15.4349 66.8721 12.4556 61.6877L30.6337 51.2008H30.6468C31.8018 53.1958 33.4556 54.8496 35.4506 55.9914Z" fill="#C555ED"/>
<path d="M30.6206 38.0627L30.6338 38.0758C29.5181 40.0052 28.875 42.2364 28.875 44.6252V44.6383H7.88813H7.875V44.6252C7.875 38.4171 9.52875 32.5896 12.4425 27.5758H12.4556L30.6206 38.0627Z" fill="#8CC152"/>
<path d="M42 78.7502C48.2081 78.7502 54.0356 77.0965 59.0494 74.1696C64.2338 71.1902 68.565 66.8721 71.5444 61.6877C74.4581 56.674 76.125 50.8465 76.125 44.6383V44.6252C76.125 38.4171 74.4713 32.5896 71.5575 27.5758C68.5663 22.3915 64.2482 18.0733 59.0625 15.0808C54.3375 12.3377 48.8906 10.6971 43.0762 10.5133C43.9031 9.48959 44.9794 8.00646 45.5438 6.72021C64.9031 8.51834 80.0625 24.7933 80.0625 44.6252C80.0625 65.6515 63.0262 82.6877 42 82.6877C20.9737 82.6877 3.9375 65.6515 3.9375 44.6252C3.9375 24.7933 19.0969 8.51834 38.4562 6.72021C39.0219 8.00515 40.0969 9.48959 40.9106 10.5133C35.1094 10.6971 29.6625 12.3246 24.9375 15.0808C19.7531 18.0602 15.435 22.3902 12.4425 27.5758C9.52875 32.5896 7.875 38.4171 7.875 44.6252V44.6383C7.875 50.8465 9.54187 56.674 12.4556 61.6877C15.435 66.8721 19.7649 71.1902 24.9506 74.1696C29.9644 77.0965 35.7919 78.7502 42 78.7502Z" fill="#E6E9ED"/>
<path d="M24.9375 15.0804L35.4375 33.2586C33.4425 34.4136 31.7756 36.0805 30.6338 38.0755L30.6206 38.0623L12.4556 27.5754H12.4425C15.435 22.3911 19.7531 18.0598 24.9375 15.0804Z" fill="#C555ED"/>
<path d="M76.125 44.6383C76.125 50.8464 74.4581 56.6739 71.5443 61.6877L53.3662 51.1877C54.4818 49.2583 55.125 47.0271 55.125 44.6383H76.125Z" fill="#8CC152"/>
<path d="M71.5575 27.5755H71.5444L53.3663 38.0755C52.2244 36.0805 50.5562 34.4136 48.5625 33.2717L59.0625 15.0818C64.2469 18.073 68.565 22.3911 71.5575 27.5755Z" fill="#C555ED"/>
<path d="M7.88813 44.6383H28.875C28.875 47.0271 29.5181 49.2714 30.6469 51.2008H30.6338L12.4556 61.6877C9.54187 56.6739 7.875 50.8464 7.875 44.6383H7.88813Z" fill="#FFCE54"/>
<path d="M59.0625 15.0808L48.5625 33.2721C46.6331 32.1433 44.3888 31.5002 42 31.5002V11.8127C42 11.8127 42.4725 11.2877 43.0762 10.5133C48.8906 10.6971 54.3375 12.3377 59.0625 15.0808Z" fill="#8CC152"/>
<path d="M53.3663 51.1875L71.5444 61.6875C68.565 66.8719 64.2351 71.19 59.0494 74.1694L48.5625 55.9913C50.5575 54.8362 52.2112 53.1825 53.3663 51.1875Z" fill="#C555ED"/>
<path d="M48.5625 55.991L59.0494 74.1691C54.0356 77.096 48.2081 78.7497 42 78.7497V57.7497C44.3888 57.7497 46.6331 57.1066 48.5625 55.991Z" fill="#FFCE54"/>
<path d="M76.125 44.6252V44.6383H55.125V44.6252C55.125 42.2364 54.4818 40.0052 53.3662 38.0758L71.5443 27.5758H71.5575C74.4712 32.5896 76.125 38.4171 76.125 44.6252Z" fill="#FFCE54"/>
<path d="M55.125 44.625V44.6381C55.125 47.0269 54.4819 49.2594 53.3662 51.1875C52.2113 53.1825 50.5562 54.8363 48.5625 55.9912C46.6331 57.1069 44.3888 57.75 42 57.75C39.6112 57.75 37.38 57.1069 35.4506 55.9912C33.4556 54.8494 31.8032 53.1956 30.6469 51.2006C29.5194 49.2712 28.875 47.0269 28.875 44.6381V44.625C28.875 42.2362 29.5181 40.005 30.6338 38.0756C31.7756 36.0806 33.4438 34.4138 35.4375 33.2588C37.3669 32.1431 39.6112 31.5 42 31.5C44.3888 31.5 46.6331 32.1431 48.5625 33.2719C50.5575 34.4138 52.2244 36.0819 53.3662 38.0756C54.4819 40.005 55.125 42.2362 55.125 44.625Z" fill="#E6E9ED"/>
<path d="M72.4658 37.7853C71.74 37.7853 71.1467 37.1986 71.1467 36.4728C71.1467 35.747 71.7269 35.1603 72.4513 35.1603H72.4658C73.1903 35.1603 73.7783 35.747 73.7783 36.4728C73.7783 37.1986 73.1903 37.7853 72.4658 37.7853Z" fill="#E6E9ED"/>
<path d="M11.6117 54.0891C10.8859 54.0891 10.2926 53.5024 10.2926 52.7766C10.2926 52.0508 10.8727 51.4641 11.5972 51.4641H11.6117C12.3362 51.4641 12.9242 52.0508 12.9242 52.7766C12.9242 53.5024 12.3349 54.0891 11.6117 54.0891Z" fill="#E6E9ED"/>
<path d="M64.3138 23.663C63.588 23.663 62.9948 23.0763 62.9948 22.3505C62.9948 21.6247 63.5749 21.038 64.2994 21.038H64.3138C65.0383 21.038 65.6263 21.6247 65.6263 22.3505C65.6263 23.0763 65.0383 23.663 64.3138 23.663Z" fill="#E6E9ED"/>
<path d="M19.7649 68.2118C19.0391 68.2118 18.4458 67.6251 18.4458 66.8993C18.4458 66.1735 19.0259 65.5868 19.7504 65.5868H19.7649C20.4894 65.5868 21.0774 66.1735 21.0774 66.8993C21.0774 67.6251 20.488 68.2118 19.7649 68.2118Z" fill="#E6E9ED"/>
<path d="M50.1926 15.5084C49.4668 15.5084 48.8735 14.9217 48.8735 14.1959C48.8735 13.4701 49.4537 12.8834 50.1782 12.8834H50.1926C50.9171 12.8834 51.5051 13.4701 51.5051 14.1959C51.5051 14.9217 50.9171 15.5084 50.1926 15.5084Z" fill="#E6E9ED"/>
<path d="M33.8849 76.3636C33.159 76.3636 32.5658 75.777 32.5658 75.0511C32.5658 74.3253 33.1459 73.7386 33.8704 73.7386H33.8849C34.6094 73.7386 35.1974 74.3253 35.1974 75.0511C35.1974 75.777 34.6094 76.3636 33.8849 76.3636Z" fill="#E6E9ED"/>
<path d="M33.8861 15.5084C33.1603 15.5084 32.567 14.9217 32.567 14.1959C32.567 13.4701 33.1471 12.8834 33.8716 12.8834H33.8861C34.6106 12.8834 35.1986 13.4701 35.1986 14.1959C35.1986 14.9217 34.6106 15.5084 33.8861 15.5084Z" fill="#E6E9ED"/>
<path d="M50.1913 76.3636C49.4654 76.3636 48.8722 75.777 48.8722 75.0511C48.8722 74.3253 49.4523 73.7386 50.1768 73.7386H50.1913C50.9158 73.7386 51.5038 74.3253 51.5038 75.0511C51.5038 75.777 50.9158 76.3636 50.1913 76.3636Z" fill="#E6E9ED"/>
<path d="M19.7649 23.6603C19.0391 23.6603 18.4458 23.0736 18.4458 22.3478C18.4458 21.622 19.0259 21.0353 19.7504 21.0353H19.7649C20.4894 21.0353 21.0774 21.622 21.0774 22.3478C21.0774 23.0736 20.488 23.6603 19.7649 23.6603Z" fill="#E6E9ED"/>
<path d="M64.3138 68.2118C63.588 68.2118 62.9948 67.6251 62.9948 66.8993C62.9948 66.1735 63.5749 65.5868 64.2994 65.5868H64.3138C65.0383 65.5868 65.6263 66.1735 65.6263 66.8993C65.6263 67.6251 65.0383 68.2118 64.3138 68.2118Z" fill="#E6E9ED"/>
<path d="M11.6117 37.783C10.8859 37.783 10.2926 37.1963 10.2926 36.4705C10.2926 35.7446 10.8727 35.158 11.5972 35.158H11.6117C12.3362 35.158 12.9242 35.7446 12.9242 36.4705C12.9242 37.1963 12.3349 37.783 11.6117 37.783Z" fill="#E6E9ED"/>
<path d="M72.467 54.0891C71.7412 54.0891 71.1479 53.5024 71.1479 52.7766C71.1479 52.0508 71.7281 51.4641 72.4526 51.4641H72.467C73.1915 51.4641 73.7795 52.0508 73.7795 52.7766C73.7795 53.5024 73.1915 54.0891 72.467 54.0891Z" fill="#E6E9ED"/>
<path d="M48.5586 43.3125H35.4375C34.7117 43.3125 34.125 42.7258 34.125 42C34.125 41.2742 34.7117 40.6875 35.4375 40.6875H48.5586C49.2844 40.6875 49.8711 41.2742 49.8711 42C49.8711 42.7258 49.2844 43.3125 48.5586 43.3125Z" fill="#CCD1D9"/>
<path d="M48.5586 47.25H35.4375C34.7117 47.25 34.125 46.6633 34.125 45.9375C34.125 45.2117 34.7117 44.625 35.4375 44.625H48.5586C49.2844 44.625 49.8711 45.2117 49.8711 45.9375C49.8711 46.6633 49.2844 47.25 48.5586 47.25Z" fill="#CCD1D9"/>
<path d="M44.625 51.1875H39.3711C38.6453 51.1875 38.0586 50.6008 38.0586 49.875C38.0586 49.1492 38.6453 48.5625 39.3711 48.5625H44.625C45.3509 48.5625 45.9375 49.1492 45.9375 49.875C45.9375 50.6008 45.3509 51.1875 44.625 51.1875Z" fill="#CCD1D9"/>
</svg>
