<svg width="84" height="84" viewBox="0 0 84 84" fill="none" xmlns="http://www.w3.org/2000/svg">
<path d="M43.0762 10.5131C42.4725 11.2875 42 11.8125 42 11.8125C42 11.8125 41.5275 11.2875 40.9106 10.5131C40.0969 9.48938 39.0206 8.00625 38.4562 6.72C38.2069 6.18187 38.0625 5.67 38.0625 5.25C38.0625 3.07125 39.8213 1.3125 42 1.3125C44.1788 1.3125 45.9375 3.07125 45.9375 5.25C45.9375 5.67 45.7931 6.18187 45.5438 6.72C44.9794 8.00625 43.9031 9.48938 43.0762 10.5131Z" fill="#656D78"/>
<path d="M42.0001 57.7497V78.7497C35.7919 78.7497 29.9644 77.096 24.9507 74.1691L35.4376 56.0041L35.4507 55.991C37.3801 57.1066 39.6113 57.7497 42.0001 57.7497Z" fill="#8CC152"/>
<path d="M40.9106 10.5132C41.5275 11.2876 42 11.8126 42 11.8126V31.5001C39.6112 31.5001 37.3669 32.1432 35.4375 33.2588L24.9375 15.0807C29.6625 12.3244 35.1094 10.6969 40.9106 10.5132Z" fill="#FFCE54"/>
<path d="M35.4506 55.9913L35.4374 56.0044L24.9506 74.1694C19.7662 71.1901 15.4349 66.8719 12.4556 61.6876L30.6337 51.2007H30.6468C31.8018 53.1957 33.4556 54.8494 35.4506 55.9913Z" fill="#ED5565"/>
<path d="M30.6206 38.0626L30.6338 38.0757C29.5181 40.0051 28.875 42.2363 28.875 44.6251V44.6382H7.88813H7.875V44.6251C7.875 38.4169 9.52875 32.5894 12.4425 27.5757H12.4556L30.6206 38.0626Z" fill="#8CC152"/>
<path d="M42 78.7502C48.2081 78.7502 54.0356 77.0965 59.0494 74.1696C64.2338 71.1902 68.565 66.8721 71.5444 61.6877C74.4581 56.674 76.125 50.8465 76.125 44.6383V44.6252C76.125 38.4171 74.4713 32.5896 71.5575 27.5758C68.5663 22.3915 64.2482 18.0733 59.0625 15.0808C54.3375 12.3377 48.8906 10.6971 43.0762 10.5133C43.9031 9.48959 44.9794 8.00646 45.5438 6.72021C64.9031 8.51834 80.0625 24.7933 80.0625 44.6252C80.0625 65.6515 63.0262 82.6877 42 82.6877C20.9737 82.6877 3.9375 65.6515 3.9375 44.6252C3.9375 24.7933 19.0969 8.51834 38.4562 6.72021C39.0219 8.00515 40.0969 9.48959 40.9106 10.5133C35.1094 10.6971 29.6625 12.3246 24.9375 15.0808C19.7531 18.0602 15.435 22.3902 12.4425 27.5758C9.52875 32.5896 7.875 38.4171 7.875 44.6252V44.6383C7.875 50.8465 9.54187 56.674 12.4556 61.6877C15.435 66.8721 19.7649 71.1902 24.9506 74.1696C29.9644 77.0965 35.7919 78.7502 42 78.7502Z" fill="#E6E9ED"/>
<path d="M24.9376 15.0806L35.4376 33.2587C33.4426 34.4137 31.7758 36.0806 30.6339 38.0756L30.6208 38.0624L12.4558 27.5756H12.4426C15.4351 22.3912 19.7533 18.0599 24.9376 15.0806Z" fill="#ED5565"/>
<path d="M76.125 44.6382C76.125 50.8463 74.4581 56.6738 71.5443 61.6875L53.3662 51.1876C54.4818 49.2582 55.125 47.0269 55.125 44.6382H76.125Z" fill="#8CC152"/>
<path d="M71.5575 27.5755H71.5444L53.3663 38.0755C52.2244 36.0805 50.5562 34.4136 48.5625 33.2717L59.0625 15.0818C64.2469 18.073 68.565 22.3911 71.5575 27.5755Z" fill="#ED5565"/>
<path d="M7.88813 44.6382H28.875C28.875 47.0269 29.5181 49.2713 30.6469 51.2007H30.6338L12.4556 61.6875C9.54187 56.6738 7.875 50.8463 7.875 44.6382H7.88813Z" fill="#FFCE54"/>
<path d="M59.0625 15.0807L48.5625 33.2719C46.6331 32.1432 44.3888 31.5001 42 31.5001V11.8126C42 11.8126 42.4725 11.2876 43.0762 10.5132C48.8906 10.6969 54.3375 12.3376 59.0625 15.0807Z" fill="#8CC152"/>
<path d="M53.3663 51.1875L71.5444 61.6875C68.565 66.8719 64.2351 71.19 59.0494 74.1694L48.5625 55.9913C50.5575 54.8362 52.2112 53.1825 53.3663 51.1875Z" fill="#ED5565"/>
<path d="M48.5625 55.991L59.0494 74.1691C54.0356 77.096 48.2081 78.7497 42 78.7497V57.7497C44.3888 57.7497 46.6331 57.1066 48.5625 55.991Z" fill="#FFCE54"/>
<path d="M76.125 44.6251V44.6382H55.125V44.6251C55.125 42.2363 54.4818 40.0051 53.3662 38.0757L71.5443 27.5757H71.5575C74.4712 32.5894 76.125 38.4169 76.125 44.6251Z" fill="#FFCE54"/>
<path d="M55.125 44.625V44.6381C55.125 47.0269 54.4819 49.2594 53.3662 51.1875C52.2113 53.1825 50.5562 54.8363 48.5625 55.9912C46.6331 57.1069 44.3888 57.75 42 57.75C39.6112 57.75 37.38 57.1069 35.4506 55.9912C33.4556 54.8494 31.8032 53.1956 30.6469 51.2006C29.5194 49.2712 28.875 47.0269 28.875 44.6381V44.625C28.875 42.2362 29.5181 40.005 30.6338 38.0756C31.7756 36.0806 33.4438 34.4138 35.4375 33.2588C37.3669 32.1431 39.6112 31.5 42 31.5C44.3888 31.5 46.6331 32.1431 48.5625 33.2719C50.5575 34.4138 52.2244 36.0819 53.3662 38.0756C54.4819 40.005 55.125 42.2362 55.125 44.625Z" fill="#E6E9ED"/>
<path d="M72.4658 37.7852C71.74 37.7852 71.1467 37.1985 71.1467 36.4727C71.1467 35.7468 71.7269 35.1602 72.4513 35.1602H72.4658C73.1903 35.1602 73.7783 35.7468 73.7783 36.4727C73.7783 37.1985 73.1903 37.7852 72.4658 37.7852Z" fill="#E6E9ED"/>
<path d="M11.6118 54.0889C10.886 54.0889 10.2927 53.5022 10.2927 52.7764C10.2927 52.0506 10.8729 51.4639 11.5974 51.4639H11.6118C12.3363 51.4639 12.9243 52.0506 12.9243 52.7764C12.9243 53.5022 12.335 54.0889 11.6118 54.0889Z" fill="#E6E9ED"/>
<path d="M64.3139 23.6628C63.5881 23.6628 62.9949 23.0762 62.9949 22.3503C62.9949 21.6245 63.575 21.0378 64.2995 21.0378H64.3139C65.0384 21.0378 65.6264 21.6245 65.6264 22.3503C65.6264 23.0762 65.0384 23.6628 64.3139 23.6628Z" fill="#E6E9ED"/>
<path d="M19.7651 68.2117C19.0393 68.2117 18.446 67.625 18.446 66.8992C18.446 66.1734 19.0262 65.5867 19.7507 65.5867H19.7651C20.4896 65.5867 21.0776 66.1734 21.0776 66.8992C21.0776 67.625 20.4883 68.2117 19.7651 68.2117Z" fill="#E6E9ED"/>
<path d="M50.1926 15.5083C49.4668 15.5083 48.8735 14.9216 48.8735 14.1958C48.8735 13.47 49.4537 12.8833 50.1782 12.8833H50.1926C50.9171 12.8833 51.5051 13.47 51.5051 14.1958C51.5051 14.9216 50.9171 15.5083 50.1926 15.5083Z" fill="#E6E9ED"/>
<path d="M33.885 76.3635C33.1592 76.3635 32.5659 75.7768 32.5659 75.051C32.5659 74.3252 33.146 73.7385 33.8705 73.7385H33.885C34.6095 73.7385 35.1975 74.3252 35.1975 75.051C35.1975 75.7768 34.6095 76.3635 33.885 76.3635Z" fill="#E6E9ED"/>
<path d="M33.8862 15.5083C33.1604 15.5083 32.5671 14.9216 32.5671 14.1958C32.5671 13.47 33.1473 12.8833 33.8718 12.8833H33.8862C34.6107 12.8833 35.1987 13.47 35.1987 14.1958C35.1987 14.9216 34.6107 15.5083 33.8862 15.5083Z" fill="#E6E9ED"/>
<path d="M50.1914 76.3635C49.4656 76.3635 48.8723 75.7768 48.8723 75.051C48.8723 74.3252 49.4524 73.7385 50.1769 73.7385H50.1914C50.9159 73.7385 51.5039 74.3252 51.5039 75.051C51.5039 75.7768 50.9159 76.3635 50.1914 76.3635Z" fill="#E6E9ED"/>
<path d="M19.7651 23.6602C19.0393 23.6602 18.446 23.0735 18.446 22.3477C18.446 21.6218 19.0262 21.0352 19.7507 21.0352H19.7651C20.4896 21.0352 21.0776 21.6218 21.0776 22.3477C21.0776 23.0735 20.4883 23.6602 19.7651 23.6602Z" fill="#E6E9ED"/>
<path d="M64.3139 68.2117C63.5881 68.2117 62.9949 67.625 62.9949 66.8992C62.9949 66.1734 63.575 65.5867 64.2995 65.5867H64.3139C65.0384 65.5867 65.6264 66.1734 65.6264 66.8992C65.6264 67.625 65.0384 68.2117 64.3139 68.2117Z" fill="#E6E9ED"/>
<path d="M11.6118 37.783C10.886 37.783 10.2927 37.1963 10.2927 36.4705C10.2927 35.7446 10.8729 35.158 11.5974 35.158H11.6118C12.3363 35.158 12.9243 35.7446 12.9243 36.4705C12.9243 37.1963 12.335 37.783 11.6118 37.783Z" fill="#E6E9ED"/>
<path d="M72.4673 54.0889C71.7414 54.0889 71.1482 53.5022 71.1482 52.7764C71.1482 52.0506 71.7283 51.4639 72.4528 51.4639H72.4673C73.1918 51.4639 73.7798 52.0506 73.7798 52.7764C73.7798 53.5022 73.1918 54.0889 72.4673 54.0889Z" fill="#E6E9ED"/>
<path d="M48.5586 43.3125H35.4375C34.7117 43.3125 34.125 42.7258 34.125 42C34.125 41.2742 34.7117 40.6875 35.4375 40.6875H48.5586C49.2844 40.6875 49.8711 41.2742 49.8711 42C49.8711 42.7258 49.2844 43.3125 48.5586 43.3125Z" fill="#CCD1D9"/>
<path d="M48.5586 47.25H35.4375C34.7117 47.25 34.125 46.6633 34.125 45.9375C34.125 45.2117 34.7117 44.625 35.4375 44.625H48.5586C49.2844 44.625 49.8711 45.2117 49.8711 45.9375C49.8711 46.6633 49.2844 47.25 48.5586 47.25Z" fill="#CCD1D9"/>
<path d="M44.625 51.1875H39.3711C38.6453 51.1875 38.0586 50.6008 38.0586 49.875C38.0586 49.1492 38.6453 48.5625 39.3711 48.5625H44.625C45.3509 48.5625 45.9375 49.1492 45.9375 49.875C45.9375 50.6008 45.3509 51.1875 44.625 51.1875Z" fill="#CCD1D9"/>
</svg>
