<svg width="238" height="201" viewBox="0 0 238 201" fill="none" xmlns="http://www.w3.org/2000/svg">
<g opacity="0.6">
<path d="M99.5952 31.4212C105.38 25.6366 105.38 16.2579 99.5952 10.4733C93.8106 4.68873 84.4319 4.68874 78.6473 10.4733C72.8627 16.2579 72.8627 25.6366 78.6473 31.4212C84.4319 37.2058 93.8106 37.2058 99.5952 31.4212Z" fill="#FABA23"/>
<path d="M100.273 25.8309C97.5731 31.9844 90.3941 34.7885 84.2406 32.1012C83.5915 31.8156 82.9943 31.4911 82.4231 31.1146C81.4624 30.4785 80.6186 29.7255 79.8916 28.8817C79.6189 28.5571 79.3593 28.2326 79.1256 27.882C77.373 25.3505 76.6201 22.2089 77.1004 19.0932C77.2562 18.0676 77.5548 17.055 77.9832 16.0684C79.9954 11.4727 84.5002 8.7465 89.2127 8.77246C90.8224 8.78544 92.4452 9.11 94.016 9.79805C95.3662 10.3952 96.5605 11.2001 97.5731 12.1738C97.8717 12.4723 98.1703 12.7709 98.4299 13.0955C99.1569 13.9653 99.7671 14.926 100.221 15.9515C101.585 18.9764 101.701 22.5464 100.273 25.8309Z" fill="#FAD332"/>
<path d="M63.6295 96.5544C73.047 94.025 78.6308 84.3402 76.1014 74.9228C73.5721 65.5053 63.8872 59.9215 54.4698 62.4508C45.0524 64.9802 39.4685 74.665 41.9979 84.0825C44.5273 93.4999 54.2121 99.0838 63.6295 96.5544Z" fill="#FABA23"/>
<path d="M72.323 85.3156C69.1165 92.6504 60.5613 95.9998 53.2264 92.7802C52.4605 92.4427 51.7335 92.0532 51.0584 91.6118C49.916 90.8589 48.9034 89.9631 48.0336 88.9635C47.709 88.587 47.3975 88.1846 47.1119 87.7692C45.0218 84.7573 44.126 81.0055 44.6972 77.2926C44.879 76.0723 45.2295 74.865 45.7487 73.6836C48.1504 68.2182 53.512 64.9597 59.1203 64.9986C61.0286 65.0116 62.9759 65.4011 64.8453 66.2189C66.4551 66.92 67.8832 67.8936 69.0775 69.049C69.441 69.3995 69.7785 69.763 70.1031 70.1395C70.9729 71.1781 71.6999 72.3205 72.2451 73.5408C73.8938 77.1498 74.0367 81.408 72.323 85.3156Z" fill="#FAD332"/>
<path d="M191.083 106.254C199.487 101.309 202.29 90.4872 197.344 82.0839C192.398 73.6806 181.577 70.8776 173.174 75.8232C164.77 80.7689 161.967 91.5904 166.913 99.9937C171.859 108.397 182.68 111.2 191.083 106.254Z" fill="#FABA23"/>
<path d="M195.419 96.8682C192.212 104.203 183.657 107.552 176.322 104.333C175.556 103.995 174.829 103.606 174.154 103.164C173.012 102.412 171.999 101.516 171.13 100.516C170.805 100.14 170.493 99.7372 170.208 99.3218C168.118 96.3099 167.222 92.5581 167.793 88.8452C167.975 87.6249 168.325 86.4176 168.845 85.2362C171.246 79.7708 176.608 76.5123 182.216 76.5512C184.125 76.5642 186.072 76.9537 187.941 77.7716C189.551 78.4726 190.979 79.4462 192.173 80.6016C192.537 80.9522 192.874 81.3157 193.199 81.6921C194.069 82.7307 194.796 83.8731 195.341 85.0934C196.977 88.7024 197.133 92.9476 195.419 96.8682Z" fill="#FAD332"/>
<path d="M180.567 106.046C178.997 105.722 178.698 105.852 177.841 107.176C178.179 105.631 178.049 105.319 176.712 104.45C178.283 104.774 178.581 104.644 179.438 103.32C179.113 104.891 179.243 105.19 180.567 106.046Z" fill="white"/>
<path d="M149.125 52.1589L139.116 78.876L107.621 162.896L104.363 171.594L94.9508 168.115L42.737 148.784L66.8966 84.5102L79.2036 51.7954L79.3464 51.406L114.203 39.2288L149.125 52.1589Z" fill="#3F964F"/>
<path d="M102.662 46.7451L126.302 55.495C124.186 61.2201 127.107 67.5813 132.832 69.7104L103.428 147.655C97.7029 145.539 91.3287 148.46 89.2126 154.185L65.5723 145.435C67.6884 139.71 64.7674 133.348 59.0423 131.219L88.4467 53.2751C94.1718 55.4041 100.546 52.4832 102.662 46.7451Z" fill="#4EAD60"/>
<path d="M102.896 79.9399C112.412 83.458 117.267 94.0254 113.736 103.528C110.205 113.031 99.6503 117.899 90.1474 114.368C80.6316 110.85 75.7763 100.283 79.3074 90.7799C82.8385 81.277 93.3929 76.4088 102.896 79.9399Z" fill="#3F964F"/>
<path d="M114.203 39.2279L100.338 64.3222L79.2035 51.7945L78.84 51.5868L79.3463 51.4051L114.203 39.2279Z" fill="#3F964F"/>
<path opacity="0.2" d="M76.1008 60.1811L100.338 64.3224L79.2035 51.7947L76.1008 60.1811Z" fill="#193F1E"/>
<path opacity="0.2" d="M114.203 39.2278L100.338 64.3221L116.527 40.0846L114.203 39.2278Z" fill="#193F1E"/>
<path opacity="0.2" d="M139.116 78.8762L107.621 162.896L94.9507 168.115L42.7369 148.785L66.8965 84.5234H78.1C82.3322 84.5234 85.9282 91.0793 87.2783 100.219L139.116 78.8762Z" fill="#193F1E"/>
<path d="M166.855 71.3097L24.9857 129.717L49.9985 190.472L191.868 132.065L166.855 71.3097Z" fill="#3F964F"/>
<path d="M164.34 94.2479L173.934 117.551C168.286 119.874 165.586 126.34 167.91 131.987L66.9615 173.555C64.6377 167.908 58.1726 165.208 52.5254 167.532L42.9317 144.229C48.5789 141.905 51.2791 135.44 48.9553 129.793L149.917 88.2242C152.228 93.8714 158.693 96.5717 164.34 94.2479Z" fill="#4EAD60"/>
<path d="M124.459 122.913C128.315 132.286 123.849 143.022 114.476 146.878C105.103 150.733 94.3666 146.268 90.5109 136.894C86.6552 127.521 91.1211 116.785 100.494 112.93C109.867 109.061 120.603 113.54 124.459 122.913Z" fill="#3F964F"/>
<path d="M85.1753 112.863V177.578H19.4731V112.863H65.7152C65.7671 99.9198 70.1031 89.4693 75.4517 89.4693C80.7873 89.4693 85.1234 99.9198 85.1753 112.863Z" fill="#3F964F"/>
<path d="M75.4387 89.5601H29.2096V162.312H75.4387V89.5601Z" fill="#4EAD60"/>
<path d="M68.726 130.396C68.882 121.342 61.6684 113.875 52.6138 113.719C43.5593 113.563 36.0926 120.777 35.9366 129.831C35.7805 138.886 42.9942 146.353 52.0487 146.509C61.1032 146.665 68.5699 139.451 68.726 130.396Z" fill="#3F964F"/>
<path opacity="0.2" d="M85.1753 112.863V119.497H19.4731V89.4693H75.4387C80.7873 89.4693 85.1234 99.9198 85.1753 112.863Z" fill="#193F1E"/>
<path d="M75.4387 89.4706C70.0901 89.4706 65.7541 99.9342 65.7022 112.864H0C0.0519282 99.9212 4.38793 89.4706 9.73654 89.4706H75.4387Z" fill="#3F964F"/>
<path d="M63.5731 89.4693C61.2104 89.4693 59.1332 91.6113 57.9259 94.8569C54.3039 94.9477 51.3959 97.7259 51.3959 101.153V101.166H18.1749V101.153C18.1749 98.0115 15.7212 95.4021 12.5147 94.9347C13.709 91.6503 15.7991 89.4693 18.1878 89.4693H63.5731Z" fill="#4EAD60"/>
<path d="M159.69 132.275C170.368 129.273 176.59 118.183 173.588 107.505C170.585 96.8268 159.495 90.6047 148.817 93.6072C138.139 96.6097 131.917 107.7 134.92 118.378C137.922 129.056 149.012 135.278 159.69 132.275Z" fill="#FABA23"/>
<path d="M169.351 119.561C165.69 127.908 155.966 131.712 147.619 128.051C146.749 127.675 145.931 127.22 145.152 126.714C143.854 125.857 142.699 124.845 141.712 123.689C141.336 123.261 140.985 122.806 140.674 122.339C138.298 118.912 137.272 114.641 137.921 110.422C138.129 109.032 138.532 107.656 139.116 106.319C141.842 100.101 147.944 96.4009 154.331 96.4399C156.512 96.4529 158.719 96.8943 160.848 97.829C162.678 98.6339 164.301 99.7373 165.664 101.049C166.079 101.451 166.469 101.866 166.832 102.295C167.832 103.476 168.637 104.774 169.273 106.163C171.13 110.266 171.298 115.108 169.351 119.561Z" fill="#FAD332"/>
<path d="M165.664 101.036L140.674 122.34C138.298 118.913 137.272 114.642 137.921 110.422L154.331 96.4277C156.512 96.4407 158.719 96.882 160.848 97.8167C162.691 98.6346 164.301 99.7251 165.664 101.036Z" fill="#FAEE6C"/>
<path d="M169.273 106.164L145.152 126.715C143.854 125.858 142.699 124.845 141.712 123.69L166.832 102.282C167.832 103.464 168.65 104.775 169.273 106.164Z" fill="#FAEE6C"/>
<path d="M146.477 96.0896C144.971 97.9071 144.932 98.3874 146.074 100.413C144.296 98.9197 143.802 98.8677 141.751 100.01C143.257 98.1927 143.296 97.7123 142.154 95.6871C143.971 97.1931 144.451 97.232 146.477 96.0896Z" fill="white"/>
<path d="M174.557 109.007C174.557 109.007 177.075 121.807 172.103 133.919C166.729 134.828 165.755 133.296 165.755 133.296L165.937 114.524L174.557 109.007Z" fill="#D15F0A"/>
<path d="M154.772 144.994L164.522 134.556C164.522 134.556 166.936 130.415 172.09 133.907C171.584 137.036 166.807 142.319 159.459 147.85C156.875 147.616 154.772 144.994 154.772 144.994Z" fill="#D15F0A"/>
<path d="M165.145 103.582L163.924 106.23L169.896 109.735L172.947 107.399L172.869 103.361L166.365 100.985L165.145 103.582Z" fill="#F37A50"/>
<path d="M189.175 183.083C186.111 186.861 179.438 183.408 179.373 188.731C190.005 189.237 194.432 189.548 194.432 189.548C194.484 188.328 194.432 185.42 194.251 184.278L189.175 183.083Z" fill="#201D40"/>
<path d="M229.601 177.916C229.497 182.772 222.188 184.888 225.42 189.133C234.131 183.005 238 179.954 238 179.954C237.286 178.955 235.287 176.177 234.443 175.372L229.601 177.916Z" fill="#201D40"/>
<path d="M195.484 121.508L209.933 128.155C209.933 128.155 199.612 150.407 193.368 157.456C192.277 158.689 185.604 157.222 185.059 155.846C183.073 150.835 195.484 121.508 195.484 121.508Z" fill="#0063F5"/>
<path d="M194.276 154.626C197.431 164.181 195.64 184.81 195.64 184.81C195.64 184.81 190.603 184.29 187.188 183.239C186.202 166.609 184.592 159.053 184.916 152.952C186.669 149.135 192.018 149.369 194.276 154.626Z" fill="#0063F5"/>
<path d="M198.768 124.676L215.385 119.704C215.385 119.704 217.54 147.018 215.97 156.301C215.697 157.91 209.868 160.039 208.674 159.157C204.338 155.976 198.768 124.676 198.768 124.676Z" fill="#0150C6"/>
<path d="M215.061 152.73C223.603 157.144 234.988 175.605 234.988 175.605C234.988 175.605 231.782 177.5 228.484 178.889C215.995 167.75 212.633 163.103 208.674 159.169C205.61 155.119 209.946 150.147 215.061 152.73Z" fill="#0150C6"/>
<path d="M176.231 98.3894C176.231 98.3894 173.025 101.284 172.142 103.128C171.623 109.411 169.013 109.087 169.013 109.087C167.624 110.58 165.95 114.526 165.95 114.526C172.506 119.057 190.07 135.998 190.07 135.998C190.07 135.998 203.039 133.013 207.557 129.52C213.75 124.717 215.398 119.706 215.398 119.706C209.959 112.358 203.87 107.594 193.718 100.986C189.824 98.4673 179.763 95.819 176.231 98.3894Z" fill="#FF6D00"/>
<path d="M164.249 94.039C168.364 98.0116 169.182 103.84 166.066 107.073C162.951 110.306 157.083 109.708 152.968 105.749C148.852 101.776 148.034 95.9474 151.15 92.7149C154.266 89.4823 160.134 90.0795 164.249 94.039Z" fill="#F37A50"/>
<path d="M157.914 102.866C158.29 104.152 158.719 105.761 158.719 105.761C158.719 105.761 159.887 106.255 160.965 105.086C160.315 105.398 159.537 105.593 159.043 104.788C158.563 103.983 157.914 102.866 157.914 102.866Z" fill="#DE623C"/>
<path d="M161.665 89.859C157.602 86.2629 153.227 89.2099 153.227 89.2099C153.227 89.2099 153.578 88.0804 152.098 87.3275C152.02 88.2492 151.63 89.1449 151.02 89.833C146.866 94.4416 145.386 98.1675 147.697 99.1151C148.515 99.4527 146.502 102.932 152.163 104.892C151.851 104.191 150.008 102.413 150.267 101.114C150.527 99.8162 151.695 101.556 153.071 99.1801C154.447 96.7784 154.59 94.6623 156.654 93.6887C158.394 92.9876 164.885 95.2725 165.184 95.61C164.483 94.8311 163.457 91.4428 161.665 89.859Z" fill="#201D40"/>
<path d="M155.434 107.619C155.434 107.619 158.225 109.021 159.29 108.969C158.303 108.06 160.705 106.216 161.549 105.269C163.068 103.542 162.808 100.465 165.69 101.634C167.559 99.3879 163.016 94.7274 163.016 94.7274C169.247 97.0901 171.104 102.439 167.443 108.514C165.015 112.526 158.706 111.072 155.434 107.619Z" fill="#201D40"/>
<path d="M159.601 100.011C159.887 99.6734 159.835 99.1801 159.511 98.9074C159.173 98.6218 158.68 98.6738 158.407 98.9983C158.121 99.3359 158.173 99.8292 158.498 100.102C158.823 100.374 159.316 100.335 159.601 100.011Z" fill="black"/>
<path d="M155.551 105.1C155.837 104.762 155.785 104.269 155.46 103.996C155.123 103.711 154.629 103.762 154.357 104.087C154.071 104.425 154.123 104.918 154.448 105.19C154.772 105.463 155.265 105.424 155.551 105.1Z" fill="black"/>
<path d="M153.448 105.178C153.539 105.074 153.565 104.931 153.513 104.802C153.383 104.425 153.383 104.113 153.513 103.867C153.746 103.425 154.292 103.27 154.305 103.27C154.512 103.218 154.629 102.997 154.577 102.789C154.525 102.582 154.305 102.465 154.097 102.517C154.058 102.53 153.214 102.75 152.825 103.49C152.578 103.945 152.565 104.477 152.773 105.061C152.838 105.269 153.071 105.373 153.266 105.308C153.357 105.269 153.409 105.23 153.448 105.178Z" fill="#201D40"/>
<path d="M159.64 97.8292C159.692 97.7643 159.731 97.6864 159.731 97.5826C159.731 97.3619 159.562 97.1931 159.355 97.1801C158.537 97.1542 157.901 97.3619 157.472 97.8033C156.914 98.3615 156.94 99.0885 156.94 99.1145C156.953 99.3352 157.135 99.5039 157.343 99.4909C157.563 99.478 157.719 99.3092 157.719 99.0885C157.719 99.0755 157.719 98.6601 158.031 98.3485C158.303 98.0759 158.732 97.9461 159.329 97.972C159.446 97.972 159.562 97.9201 159.64 97.8292Z" fill="#201D40"/>
<path d="M163.068 94.6877C163.236 96.0249 164.262 96.9855 165.352 96.8557C166.443 96.7129 167.196 95.5186 167.027 94.1944C166.858 92.8573 165.833 91.8966 164.742 92.0264C163.652 92.1562 162.899 93.3506 163.068 94.6877Z" fill="#F37A50"/>
<path d="M165.794 95.5967C165.755 95.6226 165.716 95.6356 165.664 95.6356C164.989 95.7135 164.444 95.4279 164.21 94.8956C163.963 94.3374 164.106 93.6624 164.548 93.2859C164.664 93.182 164.859 93.195 164.963 93.3118C165.067 93.4287 165.054 93.6234 164.937 93.7273C164.703 93.935 164.625 94.3374 164.755 94.649C164.885 94.9476 165.184 95.0904 165.612 95.0385C165.768 95.0255 165.924 95.1423 165.937 95.2981C165.95 95.4279 165.885 95.5447 165.794 95.5967Z" fill="#DE623C"/>
<path d="M163.756 103.737C163.613 103.594 163.431 103.516 163.327 103.698C163.068 104.152 162.639 104.892 162.159 105.554C161.679 106.216 161.107 106.865 160.757 107.242C160.614 107.398 160.744 107.54 160.926 107.631C161.692 107.982 163.003 107.774 163.743 106.761C164.483 105.749 164.301 104.282 163.756 103.737Z" fill="white"/>
<path d="M131.443 184.148V187.848C131.443 189.289 130.275 190.47 128.821 190.47H83.6953C82.2543 190.47 81.0729 189.302 81.0729 187.848V184.148C81.0729 183.499 81.3066 182.915 81.6961 182.461C82.1764 181.889 82.8904 181.539 83.6953 181.539H128.821C129.626 181.539 130.34 181.902 130.82 182.461C131.21 182.915 131.443 183.499 131.443 184.148Z" fill="#FAD332"/>
<path d="M84.8897 181.525H83.5785V190.457H84.8897V181.525Z" fill="#FABA23"/>
<path d="M90.3811 181.525H89.0699V190.457H90.3811V181.525Z" fill="#FABA23"/>
<path d="M95.8855 181.525H94.5743V190.457H95.8855V181.525Z" fill="#FABA23"/>
<path d="M101.377 181.525H100.066V190.457H101.377V181.525Z" fill="#FABA23"/>
<path d="M106.881 181.525H105.57V190.457H106.881V181.525Z" fill="#FABA23"/>
<path d="M112.373 181.525H111.061V190.457H112.373V181.525Z" fill="#FABA23"/>
<path d="M117.877 181.525H116.566V190.457H117.877V181.525Z" fill="#FABA23"/>
<path d="M123.368 181.525H122.057V190.457H123.368V181.525Z" fill="#FABA23"/>
<path d="M128.86 181.525H127.549V190.457H128.86V181.525Z" fill="#FABA23"/>
<path d="M130.82 182.447H81.6961C82.1764 181.875 82.8904 181.525 83.6953 181.525H128.821C129.626 181.525 130.34 181.888 130.82 182.447Z" fill="#FABA23"/>
<path d="M130.82 189.522H81.6961C82.1764 190.093 82.8904 190.444 83.6953 190.444H128.821C129.626 190.457 130.34 190.093 130.82 189.522Z" fill="#FABA23"/>
<path d="M134.598 175.217V178.917C134.598 180.358 133.43 181.539 131.976 181.539H86.85C85.409 181.539 84.2276 180.371 84.2276 178.917V175.217C84.2276 174.568 84.4613 173.984 84.8507 173.529C85.3311 172.958 86.0451 172.607 86.85 172.607H131.976C132.78 172.607 133.494 172.971 133.975 173.529C134.364 173.984 134.598 174.568 134.598 175.217Z" fill="#FAD332"/>
<path d="M88.0443 172.593H86.7331V181.525H88.0443V172.593Z" fill="#FABA23"/>
<path d="M93.5357 172.593H92.2245V181.525H93.5357V172.593Z" fill="#FABA23"/>
<path d="M99.0401 172.593H97.7289V181.525H99.0401V172.593Z" fill="#FABA23"/>
<path d="M104.532 172.593H103.22V181.525H104.532V172.593Z" fill="#FABA23"/>
<path d="M110.036 172.593H108.725V181.525H110.036V172.593Z" fill="#FABA23"/>
<path d="M115.527 172.593H114.216V181.525H115.527V172.593Z" fill="#FABA23"/>
<path d="M121.032 172.593H119.72V181.525H121.032V172.593Z" fill="#FABA23"/>
<path d="M126.523 172.593H125.212V181.525H126.523V172.593Z" fill="#FABA23"/>
<path d="M132.028 172.593H130.716V181.525H132.028V172.593Z" fill="#FABA23"/>
<path d="M133.975 173.528H84.8507C85.331 172.957 86.045 172.606 86.8499 172.606H131.976C132.78 172.593 133.494 172.957 133.975 173.528Z" fill="#FABA23"/>
<path d="M133.975 180.603H84.8507C85.331 181.174 86.045 181.525 86.8499 181.525H131.976C132.78 181.525 133.494 181.161 133.975 180.603Z" fill="#FABA23"/>
<path d="M175.668 182.169C185.914 171.923 185.914 155.311 175.668 145.065C165.422 134.819 148.81 134.819 138.564 145.065C128.318 155.311 128.318 171.923 138.564 182.169C148.81 192.415 165.422 192.415 175.668 182.169Z" fill="#FABA23"/>
<path d="M177.633 170.245C173.972 181.578 161.821 187.783 150.501 184.135C149.32 183.759 148.19 183.279 147.126 182.72C145.321 181.786 143.698 180.604 142.27 179.241C141.725 178.722 141.219 178.19 140.738 177.618C137.207 173.477 135.312 168.064 135.597 162.494C135.688 160.664 136.026 158.82 136.61 157.003C139.336 148.552 146.788 142.943 155.097 142.164C157.927 141.892 160.861 142.19 163.743 143.112C166.235 143.917 168.481 145.137 170.428 146.656C171.013 147.111 171.584 147.604 172.116 148.123C173.557 149.525 174.79 151.109 175.79 152.836C178.737 157.925 179.581 164.195 177.633 170.245Z" fill="#FAD332"/>
<path d="M170.428 146.656L140.725 177.618C137.194 173.477 135.299 168.064 135.585 162.494L155.097 142.164C157.927 141.892 160.861 142.19 163.743 143.112C166.248 143.904 168.494 145.124 170.428 146.656Z" fill="#FAEE6C"/>
<path d="M175.79 152.836L147.126 182.708C145.321 181.773 143.698 180.592 142.27 179.228L172.116 148.11C173.557 149.526 174.79 151.109 175.79 152.836Z" fill="#FAEE6C"/>
<path d="M158.576 143.125C156.031 142.852 155.564 143.112 154.421 145.371C154.707 142.852 154.46 142.385 152.176 141.216C154.72 141.489 155.187 141.229 156.33 138.971C156.057 141.515 156.317 141.982 158.576 143.125Z" fill="white"/>
<path d="M149.566 183.616C147.411 183.395 147.022 183.603 146.061 185.511C146.295 183.382 146.087 182.993 144.166 182.006C146.321 182.227 146.71 182.019 147.671 180.111C147.437 182.253 147.658 182.642 149.566 183.616Z" fill="white"/>
<path d="M166.508 145.863C168.066 144.968 170.286 143.397 169.766 142.631C168.935 141.385 167.884 142.267 167.144 141.41C166.495 140.658 168.663 139.1 172.739 140.619L173.194 140.073L176.478 142.319L175.946 142.787C175.712 145.759 171.675 149.719 167.871 150.212C164.028 150.719 164.431 147.058 166.508 145.863Z" fill="#F37A50"/>
<path d="M179.451 97.3883C186.396 98.375 188.512 106.813 190.836 122.859C185.669 127.221 182.567 124.43 182.567 124.43C182.567 124.43 176.854 114.07 175.193 110.409C171.181 101.646 176.101 96.921 179.451 97.3883Z" fill="#D15F0A"/>
<path d="M172.454 139.879L181.489 124.91C181.489 124.91 183.41 120.743 190.823 122.872C191.433 126.741 188.876 133.803 176.517 143.202C174.596 142.774 172.454 139.879 172.454 139.879Z" fill="#D15F0A"/>
</g>
</svg>
